<svg width="188" height="53" viewBox="0 0 188 53" fill="none" xmlns="http://www.w3.org/2000/svg">
<path d="M67.5863 22.4035L68.3379 21.0947C69.6467 22.2089 71.9723 23.1595 74.4926 23.1595C78.096 23.1595 79.5374 21.8817 79.5374 19.9496C79.5374 14.971 68.2053 18.6408 68.2053 11.9246C68.2053 9.3381 70.3674 7.24233 74.6915 7.24233C76.8536 7.24233 79.2103 7.89671 80.5544 8.91364L79.8027 10.2224C78.3613 9.17451 76.4955 8.68372 74.6606 8.68372C71.318 8.68372 69.8456 10.0588 69.8456 11.8937C69.8456 17.0358 81.1778 13.4014 81.1778 19.9186C81.1778 22.7041 78.7858 24.6009 74.4307 24.6009C71.6142 24.6009 68.9304 23.6503 67.5863 22.4079M97.4576 13.6225V24.4639H95.888V21.4175C94.8091 23.385 92.7089 24.5965 89.7289 24.5965C85.8955 24.5965 83.5742 22.6334 83.5742 19.7152C83.5742 17.1287 85.2102 14.9357 89.9588 14.9357H95.8216V13.5606C95.8216 10.3816 94.084 8.6793 90.7458 8.6793C88.3892 8.6793 86.258 9.56359 84.852 10.8414L84.0341 9.66086C85.7363 8.15315 88.2256 7.23791 90.8785 7.23791C95.1054 7.23791 97.462 9.4 97.462 13.6225M95.8216 19.4234V16.2135H89.9897C86.4526 16.2135 85.2057 17.6902 85.2057 19.6533C85.2057 21.8817 86.9434 23.2568 89.9544 23.2568C92.9654 23.2568 94.8357 21.8817 95.8172 19.4234M103.546 0.163594H105.186V24.4683H103.546V0.163594ZM125.883 16.3107H111.177C111.341 20.3696 114.321 23.1242 118.415 23.1242C120.577 23.1242 122.576 22.3372 123.885 20.7322L124.835 21.811C123.327 23.6459 120.971 24.5965 118.384 24.5965C113.211 24.5965 109.572 20.993 109.572 15.9172C109.572 10.8414 113.079 7.23791 117.761 7.23791C122.443 7.23791 125.918 10.7751 125.918 15.8509C125.918 15.9835 125.887 16.1471 125.887 16.3107M111.208 15.0329H124.309C124.079 11.3322 121.391 8.6793 117.756 8.6793C114.122 8.6793 111.469 11.2968 111.204 15.0329M127.811 22.4035L128.562 21.0947C129.871 22.2089 132.197 23.1595 134.722 23.1595C138.325 23.1595 139.766 21.8817 139.766 19.9496C139.766 14.971 128.434 18.6408 128.434 11.9246C128.434 9.3381 130.596 7.24233 134.92 7.24233C137.083 7.24233 139.439 7.89671 140.783 8.91364L140.032 10.2224C138.59 9.17451 136.724 8.68372 134.89 8.68372C131.547 8.68372 130.075 10.0588 130.075 11.8937C130.075 17.0358 141.407 13.4014 141.407 19.9186C141.407 22.7041 139.015 24.6009 134.66 24.6009C131.843 24.6009 129.159 23.6503 127.815 22.4079M76.018 52.0537C73.9355 52.0537 72.0696 51.1694 70.4337 49.4008C68.7933 47.6323 67.9754 45.4392 67.9754 42.8173C67.9754 40.1954 68.7712 38.051 70.3629 36.3797C71.9547 34.7084 73.8249 33.8727 75.9649 33.8727C78.1049 33.8727 79.8514 34.6244 81.2043 36.1321V27.4881H86.1166V51.7884H81.2043V49.4627C79.8293 51.1871 78.096 52.0493 76.0135 52.0493M72.9274 43.0118C72.9274 44.4311 73.3518 45.594 74.2052 46.5004C75.0585 47.4068 76.0489 47.8578 77.1852 47.8578C78.3215 47.8578 79.2854 47.4068 80.0857 46.5004C80.8816 45.594 81.2795 44.4267 81.2795 42.9942C81.2795 41.5616 80.8816 40.3767 80.0857 39.4261C79.2898 38.4754 78.3127 38.0023 77.1543 38.0023C75.9959 38.0023 75.0055 38.4843 74.1742 39.4437C73.343 40.4032 72.9318 41.5926 72.9318 43.0118M100.04 38.4931C98.5762 38.4931 97.4841 39.0104 96.7634 40.0495C96.0427 41.0885 95.6846 42.4592 95.6846 44.1614V51.7928H90.7723V34.1734H95.6846V36.4991C96.3168 35.7784 97.1083 35.1682 98.0589 34.6642C99.0095 34.1645 99.9734 33.8992 100.959 33.8771L100.99 38.4931H100.04ZM104.642 31.9273C104.085 31.3702 103.807 30.6893 103.807 29.8801C103.807 29.071 104.085 28.3901 104.642 27.833C105.2 27.2759 105.88 26.9974 106.69 26.9974C107.499 26.9974 108.18 27.2759 108.737 27.833C109.294 28.3901 109.572 29.071 109.572 29.8801C109.572 30.6893 109.294 31.3702 108.737 31.9273C108.18 32.4844 107.499 32.7629 106.69 32.7629C105.88 32.7629 105.2 32.4844 104.642 31.9273ZM109.143 51.7884H104.231V34.169H109.143V51.7884ZM118.543 51.7884L111.566 34.138H116.678L121.064 45.2403L125.454 34.138H130.561L123.588 51.7884H118.543ZM148.247 49.2372C146.262 51.1164 143.927 52.0537 141.256 52.0537C138.586 52.0537 136.371 51.2313 134.624 49.5821C132.878 47.9329 132.002 45.7222 132.002 42.9499C132.002 40.1777 132.891 37.9714 134.673 36.3355C136.45 34.6951 138.555 33.8771 140.978 33.8771C143.401 33.8771 145.461 34.6111 147.15 36.0702C148.844 37.5337 149.688 39.541 149.688 42.0966V44.7141H136.848C137.003 45.678 137.503 46.4606 138.356 47.0752C139.209 47.6853 140.169 47.9904 141.239 47.9904C142.963 47.9904 144.382 47.4112 145.497 46.2572L148.247 49.2372ZM143.533 38.7894C142.857 38.2234 142.03 37.936 141.062 37.936C140.094 37.936 139.2 38.2323 138.391 38.8203C137.582 39.4084 137.114 40.2087 136.985 41.2123H144.714C144.603 40.1644 144.21 39.3553 143.533 38.7894ZM162.493 38.4931C161.029 38.4931 159.937 39.0104 159.216 40.0495C158.496 41.0885 158.138 42.4592 158.138 44.1614V51.7928H153.225V34.1734H158.138V36.4991C158.77 35.7784 159.561 35.1682 160.512 34.6642C161.462 34.1645 162.426 33.8992 163.408 33.8771L163.439 38.4931H162.488H162.493ZM166.22 51.4922C165.915 51.1827 165.765 50.8069 165.765 50.3647C165.765 49.9226 165.919 49.5556 166.22 49.2505C166.525 48.9454 166.896 48.7951 167.334 48.7951C167.772 48.7951 168.148 48.9454 168.462 49.2505C168.771 49.5556 168.93 49.927 168.93 50.3647C168.93 50.8024 168.776 51.1783 168.462 51.4922C168.152 51.8017 167.772 51.9609 167.334 51.9609C166.896 51.9609 166.525 51.8017 166.22 51.4922ZM172.224 37.1402C172.224 36.6715 172.609 36.2691 173.095 36.2691C173.582 36.2691 173.966 36.6538 173.966 37.1181C173.966 37.5823 173.586 37.9891 173.095 37.9891C172.604 37.9891 172.224 37.6088 172.224 37.1402ZM172.565 40.6906H173.63V51.7884H172.565V40.6906ZM176.898 46.2395C176.898 42.9455 179.259 40.6066 182.447 40.6066C185.635 40.6066 187.996 42.9455 187.996 46.2395C187.996 49.5335 185.635 51.8724 182.447 51.8724C179.259 51.8724 176.898 49.5335 176.898 46.2395ZM186.917 46.2395C186.917 43.454 185.002 41.5616 182.451 41.5616C179.9 41.5616 177.985 43.454 177.985 46.2395C177.985 49.025 179.9 50.9174 182.451 50.9174C185.002 50.9174 186.917 49.025 186.917 46.2395ZM59.9548 0H59.0971V51.9918H59.9548V0ZM22.5008 0.247601C21.9525 0.322766 21.4042 0.389087 20.8737 0.495202C20.7145 0.526152 20.5642 0.574788 20.405 0.605738C18.8752 0.941769 17.394 1.39276 15.9791 1.98081C15.9482 1.99407 15.9172 2.00734 15.8863 2.01618C12.8178 3.30282 10.0544 5.15983 7.72427 7.4413C7.64027 7.52531 7.56068 7.60931 7.47667 7.69332C6.46416 8.71467 5.5445 9.82004 4.71327 10.9917C4.62042 11.1199 4.51872 11.2437 4.4303 11.3764C4.10753 11.8495 3.82013 12.3491 3.52832 12.8443C3.26745 13.2953 3.01543 13.7507 2.78109 14.2194C2.56887 14.6394 2.35221 15.0595 2.16209 15.4928C1.773 16.3903 1.41929 17.3055 1.13189 18.2517C1.04789 18.5259 0.990408 18.8088 0.915243 19.0874C0.698592 19.9054 0.512892 20.7366 0.375827 21.5811C0.344877 21.7624 0.318348 21.9436 0.291819 22.1249L8.59088 26.5243L18.0307 31.3569V42.6979C12.1501 40.0053 7.90998 34.337 7.23791 27.6341L0.0972755 23.8758C0.053061 24.486 0.00442505 25.0961 0.00442505 25.7151C0.00442505 25.724 0.00442505 25.7373 0.00442505 25.7461C0.00442505 25.7549 0.00442505 25.7594 0.00442505 25.7682C0.00442505 27.0372 0.132647 28.2752 0.309505 29.4955C0.349298 29.7652 0.38467 30.0349 0.433306 30.3002C0.645535 31.4719 0.928508 32.617 1.29107 33.7224C1.36181 33.939 1.45024 34.1424 1.5254 34.3591C1.88796 35.3627 2.30358 36.3355 2.78109 37.2772C2.8651 37.4452 2.94027 37.6221 3.0287 37.7857C3.58138 38.8159 4.20922 39.793 4.89013 40.7304C5.03603 40.9293 5.18636 41.1283 5.33669 41.3229C6.06623 42.269 6.83998 43.1799 7.69332 44.0155C7.69775 44.0199 7.70659 44.0244 7.71101 44.0332C8.57761 44.8821 9.51496 45.6515 10.4921 46.3721C10.6424 46.4827 10.7883 46.5976 10.9387 46.7038C11.9335 47.4068 12.977 48.0479 14.0691 48.605C14.1663 48.6536 14.268 48.6978 14.3653 48.7465C15.5016 49.308 16.6733 49.8032 17.8936 50.2011C20.1928 50.9484 22.6334 51.3772 25.1625 51.4612V26.9089L8.59972 18.5126C10.4169 14.2238 13.7993 10.753 18.0218 8.81637V21.1699L25.1625 24.8662V0.0265287C24.9591 0.0353716 24.7557 0.0442145 24.5523 0.0574788C23.8581 0.088429 23.1728 0.163594 22.4963 0.247601M52.1023 25.7461C52.1023 25.6267 52.0847 25.5118 52.0847 25.3968C52.0758 24.6363 52.0449 23.8758 51.9697 23.133C51.952 22.9473 51.9078 22.766 51.8857 22.5759C51.8017 21.8994 51.7133 21.223 51.5762 20.5597C51.5629 20.5023 51.5452 20.4492 51.532 20.3961C49.2373 9.6476 40.1689 1.37949 28.9472 0.150329C28.6864 0.123801 28.4211 0.106115 28.1602 0.088429C27.8198 0.0619003 27.4793 0.0530574 27.1344 0.0353716V51.448C30.3046 51.3198 33.3377 50.6565 36.1144 49.5025C36.1586 49.4849 36.2028 49.4672 36.2515 49.4451C39.9787 47.8754 43.2506 45.4613 45.846 42.4592C45.9875 42.2912 46.1378 42.132 46.2749 41.964C46.7214 41.4201 47.1459 40.8586 47.5483 40.2794C47.9241 39.7356 48.269 39.1696 48.6006 38.5948C48.9543 37.9935 49.2726 37.3745 49.5777 36.7422C49.8607 36.1498 50.1171 35.5396 50.3515 34.9206C50.4045 34.7924 50.4576 34.6597 50.5062 34.5315C50.6256 34.222 50.7494 33.9169 50.8511 33.603C50.8599 33.5765 50.8643 33.55 50.8688 33.5234C51.6293 31.3171 52.067 28.9516 52.067 26.4756C52.067 26.4579 52.067 26.4358 52.067 26.4182C52.0758 26.2015 52.0979 25.9849 52.0979 25.7682C52.0979 25.7594 52.0979 25.7549 52.0979 25.7461M38.2809 11.5046C41.4157 14.1354 43.6441 17.7786 44.5196 21.926C41.7429 21.7889 39.174 20.9444 36.9014 18.968C36.1055 18.2783 35.2036 17.814 34.2751 17.4647V9.07723C35.6944 9.56359 37.065 10.4125 38.2853 11.5046M35.1505 42.1055C35.1505 42.0568 35.1417 42.0082 35.1417 41.9595C35.1417 40.2706 35.1461 38.5816 35.1417 36.8926C35.1373 35.3981 35.7076 34.1778 36.7776 33.1741C37.2286 32.7497 37.6575 32.3031 38.0864 31.8521C39.3642 30.5168 40.9072 29.9597 42.7289 30.1189C43.2771 30.1675 43.8298 30.1852 44.3781 30.2118C43.1047 35.3539 39.7046 39.6427 35.1505 42.1055Z" fill="#00A7E2"/>
</svg>
