<svg width="188" height="53" viewBox="0 0 188 53" fill="none" xmlns="http://www.w3.org/2000/svg">
<path d="M67.5818 23.2155L68.3335 21.9067C69.6422 23.0209 71.9679 23.9716 74.4881 23.9716C78.0916 23.9716 79.533 22.6938 79.533 20.7616C79.533 15.783 68.2008 19.4528 68.2008 12.7367C68.2008 10.1501 70.3629 8.05434 74.6871 8.05434C76.8492 8.05434 79.2058 8.70872 80.55 9.72565L79.7983 11.0344C78.3569 9.98652 76.4911 9.49574 74.6562 9.49574C71.3135 9.49574 69.8412 10.8708 69.8412 12.7057C69.8412 17.8479 81.1734 14.2134 81.1734 20.7306C81.1734 23.5161 78.7814 25.413 74.4262 25.413C71.6098 25.413 68.926 24.4623 67.5818 23.2199M97.4531 14.4345V25.2759H95.8835V22.2295C94.8047 24.1971 92.7045 25.4085 89.7245 25.4085C85.8911 25.4085 83.5698 23.4454 83.5698 20.5273C83.5698 17.9407 85.2057 15.7477 89.9544 15.7477H95.8172V14.3726C95.8172 11.1936 94.0796 9.49131 90.7414 9.49131C88.3848 9.49131 86.2536 10.3756 84.8476 11.6534L84.0296 10.4729C85.7319 8.96516 88.2212 8.04992 90.874 8.04992C95.1009 8.04992 97.4576 10.212 97.4576 14.4345M95.8172 20.2354V17.0255H89.9853C86.4482 17.0255 85.2013 18.5022 85.2013 20.4654C85.2013 22.6938 86.9389 24.0688 89.9499 24.0688C92.961 24.0688 94.8312 22.6938 95.8128 20.2354M103.541 0.975605H105.182V25.2803H103.541V0.975605ZM125.879 17.1227H111.173C111.336 21.1816 114.317 23.9362 118.411 23.9362C120.573 23.9362 122.571 23.1492 123.88 21.5442L124.831 22.623C123.323 24.4579 120.966 25.4085 118.38 25.4085C113.207 25.4085 109.568 21.805 109.568 16.7292C109.568 11.6534 113.074 8.04992 117.756 8.04992C122.439 8.04992 125.914 11.5871 125.914 16.6629C125.914 16.7955 125.883 16.9591 125.883 17.1227M111.204 15.8449H124.305C124.075 12.1442 121.386 9.49131 117.752 9.49131C114.118 9.49131 111.465 12.1088 111.199 15.8449M127.806 23.2155L128.558 21.9067C129.867 23.0209 132.192 23.9716 134.717 23.9716C138.321 23.9716 139.762 22.6938 139.762 20.7616C139.762 15.783 128.43 19.4528 128.43 12.7367C128.43 10.1501 130.592 8.05434 134.916 8.05434C137.078 8.05434 139.435 8.70872 140.779 9.72565L140.027 11.0344C138.586 9.98652 136.72 9.49574 134.885 9.49574C131.543 9.49574 130.07 10.8708 130.07 12.7057C130.07 17.8479 141.402 14.2134 141.402 20.7306C141.402 23.5161 139.01 25.413 134.655 25.413C131.839 25.413 129.155 24.4623 127.811 23.2199M76.0135 52.8657C73.931 52.8657 72.0652 51.9814 70.4293 50.2129C68.7889 48.4443 67.9709 46.2512 67.9709 43.6293C67.9709 41.0074 68.7668 38.863 70.3585 37.1917C71.9502 35.5204 73.8205 34.6847 75.9605 34.6847C78.1005 34.6847 79.8469 35.4364 81.1999 36.9441V28.3002H86.1121V52.6004H81.1999V50.2748C79.8248 51.9991 78.0916 52.8613 76.0091 52.8613M72.923 43.8239C72.923 45.2431 73.3474 46.406 74.2008 47.3124C75.0541 48.2188 76.0445 48.6698 77.1808 48.6698C78.3171 48.6698 79.281 48.2188 80.0813 47.3124C80.8771 46.406 81.2751 45.2387 81.2751 43.8062C81.2751 42.3736 80.8771 41.1887 80.0813 40.2381C79.2854 39.2875 78.3083 38.8144 77.1499 38.8144C75.9914 38.8144 75.001 39.2963 74.1698 40.2558C73.3386 41.2152 72.9274 42.4046 72.9274 43.8239M100.035 39.3051C98.5718 39.3051 97.4797 39.8225 96.759 40.8615C96.0383 41.9005 95.6801 43.2712 95.6801 44.9734V52.6049H90.7679V34.9854H95.6801V37.3111C96.3124 36.5904 97.1039 35.9802 98.0545 35.4762C99.0051 34.9765 99.9689 34.7113 100.955 34.6892L100.986 39.3051H100.035ZM104.638 32.7393C104.081 32.1822 103.802 31.5013 103.802 30.6922C103.802 29.883 104.081 29.2021 104.638 28.645C105.195 28.0879 105.876 27.8094 106.685 27.8094C107.494 27.8094 108.175 28.0879 108.732 28.645C109.289 29.2021 109.568 29.883 109.568 30.6922C109.568 31.5013 109.289 32.1822 108.732 32.7393C108.175 33.2964 107.494 33.5749 106.685 33.5749C105.876 33.5749 105.195 33.2964 104.638 32.7393ZM109.139 52.6004H104.227V34.981H109.139V52.6004ZM118.539 52.6004L111.562 34.95H116.673L121.059 46.0523L125.45 34.95H130.557L123.584 52.6004H118.539ZM148.242 50.0493C146.257 51.9284 143.923 52.8657 141.252 52.8657C138.581 52.8657 136.366 52.0433 134.62 50.3941C132.873 48.7449 131.998 46.5342 131.998 43.762C131.998 40.9897 132.887 38.7834 134.668 37.1475C136.446 35.5071 138.551 34.6892 140.973 34.6892C143.396 34.6892 145.457 35.4231 147.146 36.8822C148.839 38.3457 149.684 40.353 149.684 42.9086V45.5261H136.844C136.999 46.49 137.498 47.2726 138.352 47.8872C139.205 48.4973 140.164 48.8024 141.234 48.8024C142.959 48.8024 144.378 48.2232 145.492 47.0692L148.242 50.0493ZM143.529 39.6014C142.853 39.0354 142.026 38.748 141.057 38.748C140.089 38.748 139.196 39.0443 138.387 39.6323C137.578 40.2204 137.109 41.0207 136.981 42.0243H144.71C144.599 40.9764 144.206 40.1673 143.529 39.6014ZM162.488 39.3051C161.025 39.3051 159.933 39.8225 159.212 40.8615C158.491 41.9005 158.133 43.2712 158.133 44.9734V52.6049H153.221V34.9854H158.133V37.3111C158.765 36.5904 159.557 35.9802 160.507 35.4762C161.458 34.9765 162.422 34.7113 163.403 34.6892L163.434 39.3051H162.484H162.488ZM166.216 52.3042C165.91 51.9947 165.76 51.6189 165.76 51.1767C165.76 50.7346 165.915 50.3676 166.216 50.0625C166.521 49.7574 166.892 49.6071 167.33 49.6071C167.767 49.6071 168.143 49.7574 168.457 50.0625C168.767 50.3676 168.926 50.739 168.926 51.1767C168.926 51.6145 168.771 51.9903 168.457 52.3042C168.148 52.6137 167.767 52.7729 167.33 52.7729C166.892 52.7729 166.521 52.6137 166.216 52.3042ZM172.22 37.9522C172.22 37.4835 172.604 37.0812 173.091 37.0812C173.577 37.0812 173.962 37.4658 173.962 37.9301C173.962 38.3943 173.582 38.8011 173.091 38.8011C172.6 38.8011 172.22 38.4209 172.22 37.9522ZM172.56 41.5026H173.626V52.6004H172.56V41.5026ZM176.893 47.0515C176.893 43.7575 179.254 41.4186 182.442 41.4186C185.63 41.4186 187.991 43.7575 187.991 47.0515C187.991 50.3455 185.63 52.6844 182.442 52.6844C179.254 52.6844 176.893 50.3455 176.893 47.0515ZM186.912 47.0515C186.912 44.266 184.998 42.3736 182.447 42.3736C179.895 42.3736 177.981 44.266 177.981 47.0515C177.981 49.837 179.895 51.7294 182.447 51.7294C184.998 51.7294 186.912 49.837 186.912 47.0515ZM59.9504 0.812012H59.0927V52.8038H59.9504V0.812012ZM22.4963 1.05961C21.9481 1.13478 21.3998 1.2011 20.8692 1.30721C20.7101 1.33816 20.5597 1.3868 20.4006 1.41775C18.8707 1.75378 17.3896 2.20477 15.9747 2.79282C15.9437 2.80608 15.9128 2.81935 15.8818 2.82819C12.8134 4.11483 10.05 5.97184 7.71985 8.25331C7.63584 8.33732 7.55626 8.42132 7.47225 8.50533C6.45974 9.52669 5.54007 10.632 4.70884 11.8037C4.61599 11.932 4.5143 12.0558 4.42587 12.1884C4.1031 12.6615 3.81571 13.1611 3.52389 13.6563C3.26303 14.1073 3.01101 14.5627 2.77667 15.0314C2.56444 15.4514 2.34779 15.8715 2.15767 16.3048C1.76858 17.2023 1.41486 18.1176 1.12747 19.0638C1.04346 19.3379 0.985983 19.6209 0.910818 19.8994C0.694167 20.7174 0.508467 21.5486 0.371402 22.3931C0.340452 22.5744 0.313923 22.7557 0.287394 22.9369L8.58645 27.3363L18.0262 32.1689V43.5099C12.1457 40.8173 7.90555 35.149 7.23349 28.4461L0.0928504 24.6878C0.0486359 25.298 0 25.9082 0 26.5272C0 26.536 0 26.5493 0 26.5581C0 26.5669 0 26.5714 0 26.5802C0 27.8492 0.128222 29.0872 0.30508 30.3075C0.344873 30.5772 0.380245 30.8469 0.428881 31.1122C0.64111 32.2839 0.924083 33.429 1.28664 34.5344C1.35738 34.751 1.44581 34.9544 1.52098 35.1711C1.88354 36.1748 2.29915 37.1475 2.77667 38.0892C2.86068 38.2573 2.93584 38.4341 3.02427 38.5977C3.57695 39.6279 4.2048 40.605 4.8857 41.5424C5.03161 41.7414 5.18194 41.9403 5.33227 42.1349C6.06181 43.0811 6.83556 43.9919 7.6889 44.8275C7.69332 44.832 7.70216 44.8364 7.70658 44.8452C8.57319 45.6941 9.51054 46.4635 10.4877 47.1842C10.638 47.2947 10.7839 47.4097 10.9342 47.5158C11.9291 48.2188 12.9725 48.8599 14.0646 49.417C14.1619 49.4656 14.2636 49.5098 14.3609 49.5585C15.4972 50.12 16.6689 50.6152 17.8892 51.0131C20.1883 51.7604 22.629 52.1892 25.158 52.2732V27.7209L8.5953 19.3246C10.4125 15.0358 13.7949 11.565 18.0174 9.62838V21.9819L25.158 25.6782V0.83854C24.9547 0.847383 24.7513 0.856226 24.5479 0.869491C23.8537 0.900441 23.1684 0.975605 22.4919 1.05961M52.0979 26.5581C52.0979 26.4387 52.0802 26.3238 52.0802 26.2088C52.0714 25.4483 52.0404 24.6878 51.9653 23.945C51.9476 23.7593 51.9034 23.5781 51.8813 23.3879C51.7973 22.7114 51.7088 22.035 51.5718 21.3717C51.5585 21.3143 51.5408 21.2612 51.5276 21.2082C49.2328 10.4596 40.1644 2.1915 28.9428 0.962341C28.6819 0.935812 28.4166 0.918126 28.1558 0.900441C27.8153 0.873912 27.4749 0.865069 27.13 0.847383V52.26C30.3002 52.1318 33.3333 51.4685 36.11 50.3145C36.1542 50.2969 36.1984 50.2792 36.247 50.2571C39.9743 48.6875 43.2462 46.2733 45.8416 43.2712C45.9831 43.1032 46.1334 42.944 46.2705 42.776C46.717 42.2321 47.1415 41.6706 47.5438 41.0914C47.9197 40.5476 48.2645 39.9816 48.5961 39.4068C48.9499 38.8055 49.2682 38.1865 49.5733 37.5542C49.8563 36.9618 50.1127 36.3516 50.347 35.7326C50.4001 35.6044 50.4531 35.4717 50.5018 35.3435C50.6212 35.034 50.745 34.7289 50.8467 34.415C50.8555 34.3885 50.8599 34.362 50.8643 34.3354C51.6248 32.1291 52.0626 29.7637 52.0626 27.2876C52.0626 27.27 52.0626 27.2479 52.0626 27.2302C52.0714 27.0135 52.0935 26.7969 52.0935 26.5802C52.0935 26.5714 52.0935 26.5669 52.0935 26.5581M38.2765 12.3166C41.4113 14.9474 43.6397 18.5907 44.5151 22.738C41.7385 22.6009 39.1696 21.7564 36.897 19.78C36.1011 19.0903 35.1991 18.626 34.2706 18.2767V9.88925C35.6899 10.3756 37.0606 11.2245 38.2809 12.3166M35.1461 42.9175C35.1461 42.8688 35.1373 42.8202 35.1373 42.7716C35.1373 41.0826 35.1417 39.3936 35.1373 37.7046C35.1328 36.2101 35.7032 34.9898 36.7732 33.9861C37.2242 33.5617 37.6531 33.1151 38.0819 32.6641C39.3597 31.3288 40.9028 30.7717 42.7245 30.9309C43.2727 30.9796 43.8254 30.9972 44.3737 31.0238C43.1003 36.1659 39.7002 40.4547 35.1461 42.9175Z" fill="white"/>
</svg>
