<svg width="25" height="26" viewBox="0 0 25 26" fill="none" xmlns="http://www.w3.org/2000/svg">
<g clip-path="url(#clip0_398_34807)">
<path d="M25 12.5269C25 5.62336 19.4035 0.0268555 12.5 0.0268555C5.5965 0.0268555 0 5.62336 0 12.5269C0 18.3889 4.036 23.3079 9.4805 24.6589V16.3469H6.903V12.5269H9.4805V10.8809C9.4805 6.62636 11.406 4.65436 15.583 4.65436C16.375 4.65436 17.7415 4.80986 18.3005 4.96486V8.42736C18.0055 8.39636 17.493 8.38086 16.8565 8.38086C14.807 8.38086 14.015 9.15736 14.015 11.1759V12.5269H18.098L17.3965 16.3469H14.015V24.9354C20.2045 24.1879 25.0005 18.9179 25.0005 12.5269H25Z" fill="white"/>
</g>
<defs>
<clipPath id="clip0_398_34807">
<rect width="25" height="25" fill="white" transform="translate(0 0.0268555)"/>
</clipPath>
</defs>
</svg>
