<?xml version="1.0" encoding="UTF-8"?>
<svg id="Layer_1" data-name="Layer 1" xmlns="http://www.w3.org/2000/svg" viewBox="0 0 500 500">
  <defs>
    <style>
      .cls-1 {
        fill: #00a7e2;
      }

      .cls-1, .cls-2, .cls-3 {
        fill-rule: evenodd;
      }

      .cls-2 {
        fill: #fff;
      }

      .cls-3 {
        fill: #fbad18;
      }

      .cls-4 {
        opacity: .5;
      }
    </style>
  </defs>
  <g>
    <path class="cls-3" d="M57.42,217.25c-2.79-5.98-.2-13.09,5.78-15.88l154.7-72.14c5.98-2.79,13.09-.2,15.88,5.78l99.55,213.48c2.79,5.98.2,13.09-5.78,15.88l-154.7,72.14c-5.98,2.79-13.09.2-15.88-5.78L57.42,217.25Z"/>
    <g class="cls-4">
      <path class="cls-2" d="M67.21,222.1c-2.79-5.98-.2-13.09,5.78-15.88l141.55-66c5.98-2.79,13.09-.2,15.88,5.78l66,141.55c2.79,5.98.2,13.09-5.78,15.88l-141.55,66c-5.98,2.79-13.09.2-15.88-5.78l-66-141.55Z"/>
    </g>
  </g>
  <g>
    <path class="cls-1" d="M249.12,74.32c0-6.6,5.35-11.95,11.95-11.95h170.69c6.6,0,11.95,5.35,11.95,11.95v235.55c0,6.6-5.35,11.95-11.95,11.95h-170.69c-6.6,0-11.95-5.35-11.95-11.95V74.32Z"/>
    <g class="cls-4">
      <path class="cls-2" d="M255.95,82.85c0-6.6,5.35-11.95,11.95-11.95h156.18c6.6,0,11.95,5.35,11.95,11.95v156.18c0,6.6-5.35,11.95-11.95,11.95h-156.18c-6.6,0-11.95-5.35-11.95-11.95V82.85Z"/>
    </g>
  </g>
</svg>