<?xml version="1.0" encoding="UTF-8"?>
<svg id="Layer_1" data-name="Layer 1" xmlns="http://www.w3.org/2000/svg" viewBox="0 0 500 500">
  <defs>
    <style>
      .cls-1 {
        fill: #00a7e2;
      }

      .cls-1, .cls-2 {
        fill-rule: evenodd;
      }

      .cls-2 {
        fill: #fbad18;
      }
    </style>
  </defs>
  <path class="cls-1" d="M329.35,125.1l23.16,23.16c6.1,6.1,6.1,16.07,0,22.17l-18.65,18.65c5.15,9.61,9.07,19.97,11.57,30.87h24.16c8.62,0,15.68,7.06,15.68,15.68v32.76c0,8.62-7.06,15.68-15.68,15.68h-26.37c-3.23,10.67-7.86,20.74-13.67,29.99l17.11,17.1c6.1,6.1,6.1,16.08,0,22.17l-23.16,23.16c-6.1,6.09-16.07,6.09-22.17,0l-18.65-18.65c-9.61,5.15-19.97,9.08-30.87,11.57v24.16c0,8.62-7.05,15.68-15.68,15.68h-32.76c-8.62,0-15.68-7.06-15.68-15.68v-26.37c-10.67-3.24-20.74-7.86-29.99-13.67l-17.1,17.11c-6.1,6.1-16.08,6.1-22.17,0l-23.16-23.16c-6.1-6.1-6.1-16.07,0-22.17l18.65-18.65c-5.15-9.61-9.08-19.96-11.57-30.87h-24.17c-8.62,0-15.68-7.05-15.68-15.68v-32.76c0-8.62,7.06-15.68,15.68-15.68h26.37c3.24-10.67,7.86-20.74,13.67-29.99l-17.1-17.1c-6.1-6.1-6.1-16.08,0-22.17l23.16-23.16c6.1-6.1,16.07-6.1,22.17,0l18.65,18.65c9.61-5.15,19.97-9.08,30.87-11.57v-24.16c0-8.62,7.06-15.68,15.68-15.68h32.76c8.62,0,15.68,7.06,15.68,15.68v26.36c10.67,3.23,20.75,7.86,30,13.67l17.09-17.1c6.1-6.1,16.08-6.1,22.17,0h0ZM223.89,183.47c35.57,0,64.4,28.84,64.4,64.4s-28.84,64.4-64.4,64.4-64.4-28.84-64.4-64.4c0-35.56,28.84-64.4,64.4-64.4h0Z"/>
  <path class="cls-2" d="M414.59,297.12l9.49,9.49c2.5,2.5,2.5,6.58,0,9.08l-7.64,7.64c2.11,3.94,3.72,8.18,4.74,12.64h9.9c3.53,0,6.42,2.89,6.42,6.42v13.42c0,3.53-2.89,6.42-6.42,6.42h-10.8c-1.32,4.37-3.22,8.5-5.6,12.28l7.01,7c2.5,2.5,2.5,6.58,0,9.08l-9.49,9.49c-2.5,2.5-6.58,2.5-9.08,0l-7.64-7.64c-3.93,2.11-8.18,3.72-12.64,4.74v9.9c0,3.53-2.89,6.42-6.42,6.42h-13.42c-3.53,0-6.42-2.89-6.42-6.42v-10.8c-4.37-1.33-8.5-3.22-12.28-5.6l-7.01,7.01c-2.5,2.5-6.58,2.5-9.08,0l-9.49-9.49c-2.5-2.5-2.5-6.58,0-9.08l7.64-7.64c-2.11-3.93-3.72-8.18-4.74-12.64h-9.9c-3.53,0-6.42-2.89-6.42-6.42v-13.42c0-3.53,2.89-6.42,6.42-6.42h10.8c1.33-4.37,3.22-8.5,5.6-12.28l-7.01-7c-2.5-2.5-2.5-6.58,0-9.08l9.49-9.49c2.5-2.5,6.58-2.5,9.08,0l7.64,7.64c3.94-2.11,8.18-3.72,12.64-4.74v-9.9c0-3.53,2.89-6.42,6.42-6.42h13.42c3.53,0,6.42,2.89,6.42,6.42v10.8c4.37,1.32,8.5,3.22,12.29,5.6l7-7c2.5-2.5,6.58-2.5,9.08,0h0ZM371.4,321.03c14.57,0,26.38,11.81,26.38,26.38s-11.81,26.38-26.38,26.38-26.38-11.81-26.38-26.38c0-14.57,11.81-26.38,26.38-26.38h0Z"/>
</svg>