<?xml version="1.0" encoding="UTF-8"?>
<svg id="Layer_1" data-name="Layer 1" xmlns="http://www.w3.org/2000/svg" viewBox="0 0 500 500">
  <defs>
    <style>
      .cls-1 {
        fill: #00a7e2;
      }

      .cls-1, .cls-2 {
        fill-rule: evenodd;
      }

      .cls-2 {
        fill: #fbad18;
      }
    </style>
  </defs>
  <path class="cls-1" d="M130.76,413.51h266.34c0-48.79-26.25-91.45-65.39-114.64,16.91-17.17,27.34-40.73,27.34-66.73,0-52.53-42.59-95.12-95.12-95.12s-95.12,42.59-95.12,95.12c0,26,10.44,49.56,27.34,66.73-39.14,23.19-65.39,65.85-65.39,114.64Z"/>
  <path class="cls-2" d="M389.46,228.82h-11.38c0-64.05-51.93-115.98-115.98-115.98-51.64,0-95.39,33.75-110.4,80.39-3.62,11.22-5.57,23.17-5.57,35.58s1.95,24.37,5.57,35.58c15.01,46.63,58.75,80.38,110.37,80.39h0c0-7.84,6.35-14.19,14.19-14.19h37.51c7.84,0,14.19,6.35,14.19,14.19v12.16c0,7.84-6.35,14.19-14.19,14.19h-51.7c-66.32-.01-122.02-45.38-137.83-106.75h-13.72c-7.84,0-14.19-6.35-14.19-14.19v-42.78c0-7.84,6.35-14.19,14.19-14.19h13.72c15.8-61.39,71.52-106.75,137.85-106.75,73.26,0,133.6,55.35,141.47,126.52.93,8.43-5.63,15.81-14.11,15.81Z"/>
</svg>