<?xml version="1.0" encoding="UTF-8"?>
<svg id="Layer_1" data-name="Layer 1" xmlns="http://www.w3.org/2000/svg" viewBox="0 0 500 500">
  <defs>
    <style>
      .cls-1 {
        fill: #00a7e2;
      }

      .cls-2 {
        fill: #fbad18;
      }
    </style>
  </defs>
  <g>
    <path class="cls-1" d="M296.14,286.83c.85,0,1.71,0,2.56-.01-25.08,5.93-58.34,9.53-94.84,9.53-10.82,0-21.37-.32-31.49-.93-62.91-3.72-109.86-18.41-109.86-35.95,0-4.59,3.22-8.98,9.08-13.03,7.64,4.21,17.62,7.93,29.95,11.14,16.88,4.41,37.14,7.6,59.2,9.4,3.09.26,6.2.49,9.35.68,6.6,2.96,14.51,5.65,23.73,8.05,27.45,7.17,63.79,11.12,102.33,11.12Z"/>
    <path class="cls-1" d="M345.22,259.48c0,6.07-5.64,11.82-15.63,16.87-10.72.69-21.93,1.05-33.45,1.05-34.74,0-66.56-3.27-91.17-8.7,38.13-.08,74.04-4.01,101.22-11.12,12.33-3.21,22.3-6.93,29.95-11.14,5.86,4.05,9.08,8.44,9.08,13.03Z"/>
    <path class="cls-1" d="M336.14,209.37c-7.64,4.21-17.62,7.93-29.94,11.15-27.45,7.16-63.8,11.11-102.34,11.11s-74.88-3.94-102.34-11.11c-12.32-3.21-22.3-6.94-29.94-11.15-5.86,4.05-9.08,8.44-9.08,13.03,0,20.37,63.29,36.88,141.36,36.88s141.36-16.51,141.36-36.88c0-4.59-3.22-8.98-9.08-13.03Z"/>
    <path class="cls-1" d="M336.14,172.3c-7.64,4.21-17.62,7.93-29.94,11.15-27.45,7.16-63.8,11.11-102.34,11.11s-74.88-3.94-102.34-11.11c-12.32-3.21-22.3-6.94-29.94-11.15-5.86,4.05-9.08,8.44-9.08,13.03,0,20.37,63.29,36.88,141.36,36.88s141.36-16.51,141.36-36.88c0-4.59-3.22-8.98-9.08-13.03Z"/>
    <ellipse class="cls-1" cx="203.86" cy="148.25" rx="141.36" ry="36.88"/>
  </g>
  <g>
    <path class="cls-2" d="M428.42,338.73c-7.64,4.21-17.62,7.93-29.94,11.15-27.45,7.16-63.8,11.11-102.34,11.11s-74.88-3.94-102.34-11.11c-12.32-3.21-22.3-6.94-29.94-11.15-5.86,4.05-9.08,8.44-9.08,13.03,0,20.37,63.29,36.88,141.36,36.88s141.36-16.51,141.36-36.88c0-4.59-3.22-8.98-9.08-13.03Z"/>
    <path class="cls-2" d="M428.42,301.65c-7.64,4.21-17.62,7.93-29.94,11.15-27.45,7.16-63.8,11.11-102.34,11.11s-74.88-3.94-102.34-11.11c-12.32-3.21-22.3-6.94-29.94-11.15-5.86,4.05-9.08,8.44-9.08,13.03,0,20.37,63.29,36.88,141.36,36.88s141.36-16.51,141.36-36.88c0-4.59-3.22-8.98-9.08-13.03Z"/>
    <path class="cls-2" d="M437.5,277.6c0,20.37-63.28,36.88-141.36,36.88-53.29,0-99.69-7.69-123.77-19.06-11.21-5.27-17.59-11.35-17.59-17.82,0-3.7,2.08-7.26,5.95-10.62.94-.81,1.99-1.62,3.13-2.41,1.92,1.06,4,2.09,6.22,3.09,6.6,2.96,14.51,5.65,23.73,8.05,27.45,7.17,63.79,11.12,102.33,11.12.85,0,1.71,0,2.56-.01,37.59-.17,72.94-4.09,99.78-11.11,12.32-3.21,22.3-6.93,29.95-11.14,5.86,4.05,9.08,8.44,9.08,13.03Z"/>
    <path class="cls-2" d="M437.5,240.52c0,17.36-45.98,31.91-107.91,35.83-10.72.69-21.93,1.05-33.45,1.05-34.74,0-66.56-3.27-91.17-8.7-13.14-2.89-24.22-6.4-32.6-10.36-11.21-5.28-17.59-11.37-17.59-17.82,0-3.69,2.08-7.25,5.95-10.62,3.45-3,8.32-5.84,14.42-8.46,24.77-10.68,69.68-17.8,120.99-17.8,9.84,0,19.44.26,28.71.76,64.31,3.46,112.65,18.32,112.65,36.12Z"/>
  </g>
</svg>