<?xml version="1.0" encoding="UTF-8"?>
<svg id="Layer_1" data-name="Layer 1" xmlns="http://www.w3.org/2000/svg" viewBox="0 0 500 500">
  <defs>
    <style>
      .cls-1 {
        fill: #fff;
      }

      .cls-2 {
        fill: #00a7e2;
      }

      .cls-3 {
        fill: #fbad18;
      }
    </style>
  </defs>
  <g>
    <path class="cls-3" d="M410.83,385.55l-98.53-98.54c36.85-49.12,32.94-119.12-11.74-163.8-48.97-48.97-128.38-48.97-177.35,0s-48.97,128.38,0,177.35c44.68,44.68,114.68,48.59,163.8,11.74l98.54,98.53c3.56,3.57,9.34,3.57,12.9,0l12.38-12.38c3.57-3.56,3.57-9.34,0-12.9ZM289.63,289.63c-4.19,4.19-8.66,7.99-13.35,11.39-18.62,13.52-40.93,20.81-64.38,20.81-29.37,0-56.98-11.44-77.74-32.2-20.76-20.76-32.2-48.36-32.2-77.73s11.44-56.98,32.2-77.74c20.76-20.76,48.37-32.2,77.74-32.2s56.97,11.44,77.73,32.2c20.76,20.76,32.2,48.37,32.2,77.74,0,23.45-7.29,45.76-20.81,64.38-3.4,4.7-7.2,9.16-11.39,13.35Z"/>
    <path class="cls-3" d="M306.03,211.9c0,25.14-9.79,48.78-27.57,66.57-17.78,17.77-41.42,27.57-66.57,27.57s-48.79-9.79-66.57-27.57c-17.78-17.78-27.58-41.42-27.58-66.57s9.79-48.79,27.58-66.57c17.77-17.78,41.42-27.58,66.57-27.58,12.57,0,24.77,2.45,36.04,7.12,11.28,4.68,21.64,11.57,30.53,20.46,17.77,17.77,27.57,41.42,27.57,66.57Z"/>
  </g>
  <g>
    <path class="cls-2" d="M306.03,211.9c0,25.14-9.79,48.78-27.57,66.57-17.78,17.77-41.42,27.57-66.57,27.57s-48.79-9.79-66.57-27.57c-17.78-17.78-27.58-41.42-27.58-66.57s9.79-48.79,27.58-66.57c17.77-17.78,41.42-27.58,66.57-27.58,12.57,0,24.77,2.45,36.04,7.12,11.28,4.68,21.64,11.57,30.53,20.46,17.77,17.77,27.57,41.42,27.57,66.57Z"/>
    <path class="cls-1" d="M289.63,134.16c-20.76-20.76-48.36-32.2-77.73-32.2s-56.98,11.44-77.74,32.2c-20.76,20.76-32.2,48.37-32.2,77.74s11.44,56.97,32.2,77.73c20.76,20.76,48.37,32.2,77.74,32.2,23.45,0,45.76-7.29,64.38-20.81,4.7-3.4,9.16-7.2,13.35-11.39s7.99-8.66,11.39-13.35c13.52-18.62,20.81-40.93,20.81-64.38,0-29.37-11.44-56.98-32.2-77.74ZM211.9,306.03c-25.14,0-48.79-9.79-66.57-27.57-17.78-17.78-27.58-41.42-27.58-66.57s9.79-48.79,27.58-66.57c17.77-17.78,41.42-27.58,66.57-27.58,12.57,0,24.77,2.45,36.04,7.12,11.28,4.68,21.64,11.57,30.53,20.46,17.77,17.77,27.57,41.42,27.57,66.57s-9.79,48.78-27.57,66.57c-17.78,17.77-41.42,27.57-66.57,27.57Z"/>
  </g>
</svg>