<svg width="25" height="26" viewBox="0 0 25 26" fill="none" xmlns="http://www.w3.org/2000/svg">
<g clip-path="url(#clip0_398_34808)">
<path d="M12.5 2.27783C15.8398 2.27783 16.2354 2.29248 17.5488 2.35107C18.7695 2.40479 19.4287 2.60986 19.8682 2.78076C20.4492 3.00537 20.8691 3.27881 21.3037 3.71338C21.7432 4.15283 22.0117 4.56787 22.2363 5.14893C22.4072 5.58838 22.6123 6.25244 22.666 7.46826C22.7246 8.78662 22.7393 9.18213 22.7393 12.5171C22.7393 15.8569 22.7246 16.2524 22.666 17.5659C22.6123 18.7866 22.4072 19.4458 22.2363 19.8853C22.0117 20.4663 21.7383 20.8862 21.3037 21.3208C20.8643 21.7603 20.4492 22.0288 19.8682 22.2534C19.4287 22.4243 18.7646 22.6294 17.5488 22.6831C16.2305 22.7417 15.835 22.7563 12.5 22.7563C9.16016 22.7563 8.76465 22.7417 7.45117 22.6831C6.23047 22.6294 5.57129 22.4243 5.13184 22.2534C4.55078 22.0288 4.13086 21.7554 3.69629 21.3208C3.25684 20.8814 2.98828 20.4663 2.76367 19.8853C2.59277 19.4458 2.3877 18.7817 2.33398 17.5659C2.27539 16.2476 2.26074 15.8521 2.26074 12.5171C2.26074 9.17725 2.27539 8.78174 2.33398 7.46826C2.3877 6.24756 2.59277 5.58838 2.76367 5.14893C2.98828 4.56787 3.26172 4.14795 3.69629 3.71338C4.13574 3.27393 4.55078 3.00537 5.13184 2.78076C5.57129 2.60986 6.23535 2.40479 7.45117 2.35107C8.76465 2.29248 9.16016 2.27783 12.5 2.27783ZM12.5 0.0268555C9.10645 0.0268555 8.68164 0.0415039 7.34863 0.100098C6.02051 0.158691 5.10742 0.373535 4.31641 0.681152C3.49121 1.00342 2.79297 1.42822 2.09961 2.12647C1.40137 2.81982 0.976562 3.51807 0.654297 4.33838C0.34668 5.13428 0.131836 6.04248 0.0732422 7.37061C0.0146484 8.7085 0 9.1333 0 12.5269C0 15.9204 0.0146484 16.3452 0.0732422 17.6782C0.131836 19.0063 0.34668 19.9194 0.654297 20.7105C0.976562 21.5356 1.40137 22.2339 2.09961 22.9272C2.79297 23.6206 3.49121 24.0503 4.31152 24.3677C5.10742 24.6753 6.01562 24.8901 7.34375 24.9487C8.67676 25.0073 9.10156 25.022 12.4951 25.022C15.8887 25.022 16.3135 25.0073 17.6465 24.9487C18.9746 24.8901 19.8877 24.6753 20.6787 24.3677C21.499 24.0503 22.1973 23.6206 22.8906 22.9272C23.584 22.2339 24.0137 21.5356 24.3311 20.7153C24.6387 19.9194 24.8535 19.0112 24.9121 17.6831C24.9707 16.3501 24.9854 15.9253 24.9854 12.5317C24.9854 9.13819 24.9707 8.71338 24.9121 7.38037C24.8535 6.05225 24.6387 5.13916 24.3311 4.34814C24.0234 3.51807 23.5986 2.81982 22.9004 2.12647C22.207 1.43311 21.5088 1.00342 20.6885 0.686035C19.8926 0.378418 18.9844 0.163574 17.6563 0.10498C16.3184 0.0415039 15.8936 0.0268555 12.5 0.0268555Z" fill="white"/>
<path d="M12.5 6.10596C8.95508 6.10596 6.0791 8.98193 6.0791 12.5269C6.0791 16.0718 8.95508 18.9478 12.5 18.9478C16.0449 18.9478 18.9209 16.0718 18.9209 12.5269C18.9209 8.98193 16.0449 6.10596 12.5 6.10596ZM12.5 16.6919C10.2002 16.6919 8.33496 14.8267 8.33496 12.5269C8.33496 10.2271 10.2002 8.36182 12.5 8.36182C14.7998 8.36182 16.665 10.2271 16.665 12.5269C16.665 14.8267 14.7998 16.6919 12.5 16.6919Z" fill="white"/>
<path d="M20.6738 5.85205C20.6738 6.68213 20 7.35108 19.1748 7.35108C18.3447 7.35108 17.6758 6.67725 17.6758 5.85205C17.6758 5.02197 18.3496 4.35303 19.1748 4.35303C20 4.35303 20.6738 5.02686 20.6738 5.85205Z" fill="white"/>
</g>
<defs>
<clipPath id="clip0_398_34808">
<rect width="25" height="25" fill="white" transform="translate(0 0.0268555)"/>
</clipPath>
</defs>
</svg>
