<svg width="25" height="26" viewBox="0 0 25 26" fill="none" xmlns="http://www.w3.org/2000/svg">
<g clip-path="url(#clip0_398_34806)">
<path d="M23.1545 0.0268555H1.84549C1.35603 0.0268555 0.886626 0.22129 0.540531 0.567386C0.194435 0.913482 0 1.38289 0 1.87234V23.1814C0 23.6708 0.194435 24.1402 0.540531 24.4863C0.886626 24.8324 1.35603 25.0269 1.84549 25.0269H23.1545C23.644 25.0269 24.1134 24.8324 24.4595 24.4863C24.8056 24.1402 25 23.6708 25 23.1814V1.87234C25 1.38289 24.8056 0.913482 24.4595 0.567386C24.1134 0.22129 23.644 0.0268555 23.1545 0.0268555ZM7.45139 21.3237H3.69271V9.38449H7.45139V21.3237ZM5.56944 7.72998C5.14309 7.72758 4.727 7.59893 4.37368 7.36028C4.02037 7.12163 3.74567 6.78366 3.58425 6.38903C3.42283 5.9944 3.38192 5.56081 3.4667 5.14295C3.55147 4.7251 3.75813 4.34173 4.06058 4.04121C4.36303 3.7407 4.74772 3.53651 5.16611 3.45442C5.5845 3.37233 6.01783 3.41602 6.41141 3.57997C6.80499 3.74392 7.14119 4.02078 7.37757 4.37562C7.61395 4.73046 7.73992 5.14737 7.73958 5.57373C7.74361 5.85918 7.69012 6.14252 7.5823 6.40686C7.47449 6.6712 7.31456 6.91113 7.11205 7.11234C6.90954 7.31356 6.66859 7.47194 6.40357 7.57805C6.13854 7.68417 5.85486 7.73584 5.56944 7.72998ZM21.3056 21.3341H17.5486V14.8116C17.5486 12.888 16.7309 12.2942 15.6753 12.2942C14.5608 12.2942 13.467 13.1345 13.467 14.8602V21.3341H9.70833V9.39318H13.3229V11.0477H13.3715C13.7344 10.3133 15.0052 9.05811 16.9444 9.05811C19.0417 9.05811 21.3073 10.3029 21.3073 13.9487L21.3056 21.3341Z" fill="white"/>
</g>
<defs>
<clipPath id="clip0_398_34806">
<rect width="25" height="25" fill="white" transform="translate(0 0.0268555)"/>
</clipPath>
</defs>
</svg>
