<svg width="25" height="26" viewBox="0 0 25 26" fill="none" xmlns="http://www.w3.org/2000/svg">
<g clip-path="url(#clip0_398_34809)">
<path d="M24.5021 6.47021C24.3607 5.93835 24.0822 5.45294 23.6943 5.06256C23.3064 4.67218 22.8228 4.39053 22.2918 4.24578C20.3373 3.72021 12.5248 3.72021 12.5248 3.72021C12.5248 3.72021 4.71228 3.72021 2.75773 4.24578C2.22679 4.39053 1.74318 4.67218 1.35529 5.06256C0.967401 5.45294 0.688849 5.93835 0.547508 6.47021C0.0247803 8.43328 0.0247803 12.527 0.0247803 12.527C0.0247803 12.527 0.0247803 16.6208 0.547508 18.5838C0.688849 19.1157 0.967401 19.6011 1.35529 19.9915C1.74318 20.3819 2.22679 20.6635 2.75773 20.8083C4.71228 21.3338 12.5248 21.3338 12.5248 21.3338C12.5248 21.3338 20.3373 21.3338 22.2918 20.8083C22.8228 20.6635 23.3064 20.3819 23.6943 19.9915C24.0822 19.6011 24.3607 19.1157 24.5021 18.5838C25.0248 16.6208 25.0248 12.527 25.0248 12.527C25.0248 12.527 25.0248 8.43328 24.5021 6.47021Z" fill="white"/>
<path d="M9.96799 16.2442V8.80957L16.5021 12.5269L9.96799 16.2442Z" fill="#00263A"/>
</g>
<defs>
<clipPath id="clip0_398_34809">
<rect width="25" height="25" fill="white" transform="translate(0 0.0268555)"/>
</clipPath>
</defs>
</svg>
