<svg width="1336" height="664" viewBox="0 0 1336 664" fill="none" xmlns="http://www.w3.org/2000/svg">
<path d="M1327 0L1307.53 21.3107L1335.72 27.5192L1327 0ZM-69.2558 654.987C27.3348 664.921 192.935 669.096 376.03 649.373C559.107 629.652 759.863 586.019 926.644 500.223L924.356 495.777C758.337 581.181 558.26 624.715 375.495 644.402C192.748 664.087 27.4985 659.912 -68.7442 650.013L-69.2558 654.987ZM926.644 500.223C1081.68 420.47 1175.21 327.424 1232.97 241.057C1290.72 154.701 1312.64 75.1404 1324.6 22.5122L1319.73 21.4036C1307.82 73.7494 1286.08 152.642 1228.81 238.278C1171.54 323.905 1078.67 416.393 924.356 495.777L926.644 500.223Z" fill="url(#paint0_linear_410_27199)"/>
<defs>
<linearGradient id="paint0_linear_410_27199" x1="-52.5" y1="403.5" x2="949.47" y2="-317.824" gradientUnits="userSpaceOnUse">
<stop stop-color="white" stop-opacity="0"/>
<stop offset="0.2" stop-color="#FBAD18" stop-opacity="0.24"/>
<stop offset="0.8" stop-color="#FBAD18"/>
<stop offset="1" stop-color="#FBAD18"/>
</linearGradient>
</defs>
</svg>
