<svg width="1440" height="845" viewBox="0 0 1440 845" fill="none" xmlns="http://www.w3.org/2000/svg">
<path fill-rule="evenodd" clip-rule="evenodd" d="M1462.78 784.748C1459.46 784.748 1456.78 787.435 1456.78 790.748V844.235C1456.78 844.658 1456.43 845 1456.01 845C1455.59 845 1455.25 844.658 1455.25 844.235V790.748C1455.25 787.435 1452.56 784.748 1449.25 784.748H1400.86C1397.55 784.748 1394.86 787.435 1394.86 790.748V842.746C1394.86 843.169 1394.52 843.511 1394.1 843.511C1393.67 843.511 1393.33 843.169 1393.33 842.746V790.748C1393.33 787.435 1390.65 784.748 1387.33 784.748H1338.95C1335.63 784.748 1332.95 787.435 1332.95 790.748V842.746C1332.95 843.169 1332.61 843.511 1332.18 843.511C1331.76 843.511 1331.42 843.169 1331.42 842.746V790.748C1331.42 787.435 1328.73 784.748 1325.42 784.748H1277.03C1273.72 784.748 1271.03 787.435 1271.03 790.748V842.746C1271.03 843.169 1270.69 843.511 1270.27 843.511C1269.85 843.511 1269.5 843.169 1269.5 842.746V790.748C1269.5 787.435 1266.82 784.748 1263.5 784.748H1215.12C1211.81 784.748 1209.12 787.435 1209.12 790.748V842.746C1209.12 843.169 1208.78 843.511 1208.35 843.511C1207.93 843.511 1207.59 843.169 1207.59 842.746V790.748C1207.59 787.435 1204.9 784.748 1201.59 784.748H1153.2C1149.89 784.748 1147.2 787.435 1147.2 790.748V842.746C1147.2 843.169 1146.86 843.511 1146.44 843.511C1146.02 843.511 1145.67 843.169 1145.67 842.746V790.748C1145.67 787.435 1142.99 784.748 1139.67 784.748H1091.29C1087.98 784.748 1085.29 787.435 1085.29 790.748V842.746C1085.29 843.169 1084.95 843.511 1084.52 843.511C1084.1 843.511 1083.76 843.169 1083.76 842.746V790.748C1083.76 787.435 1081.07 784.748 1077.76 784.748H1029.37C1026.06 784.748 1023.37 787.435 1023.37 790.748V842.746C1023.37 843.169 1023.03 843.511 1022.61 843.511C1022.19 843.511 1021.84 843.169 1021.84 842.746V790.748C1021.84 787.435 1019.16 784.748 1015.84 784.748L967.46 784.748C964.147 784.748 961.46 787.435 961.46 790.748V842.746C961.46 843.169 961.118 843.511 960.695 843.511C960.273 843.511 959.931 843.169 959.931 842.746V790.748C959.931 787.435 957.244 784.748 953.931 784.748H905.545C902.231 784.748 899.545 787.435 899.545 790.748V842.746C899.545 843.169 899.203 843.511 898.78 843.511C898.358 843.511 898.015 843.169 898.015 842.746V790.748C898.015 787.435 895.329 784.748 892.015 784.748H843.631C840.317 784.748 837.631 787.435 837.631 790.748V842.746C837.631 843.169 837.289 843.511 836.866 843.511C836.444 843.511 836.101 843.169 836.101 842.746V790.748C836.101 787.435 833.415 784.748 830.101 784.748H781.716C778.402 784.748 775.716 787.435 775.716 790.748V842.746C775.716 843.169 775.373 843.511 774.951 843.511C774.528 843.511 774.186 843.169 774.186 842.746V790.748C774.186 787.435 771.5 784.748 768.186 784.748H719.802C716.488 784.748 713.802 787.435 713.802 790.748V842.746C713.802 843.169 713.459 843.511 713.037 843.511C712.615 843.511 712.272 843.169 712.272 842.746V790.748C712.272 787.435 709.586 784.748 706.272 784.748H657.886C654.573 784.748 651.886 787.435 651.886 790.748V842.746C651.886 843.169 651.544 843.511 651.122 843.511C650.699 843.511 650.357 843.169 650.357 842.746V790.748C650.357 787.435 647.67 784.748 644.357 784.748H595.973C592.659 784.748 589.973 787.435 589.973 790.748V842.746C589.973 843.169 589.63 843.511 589.208 843.511C588.785 843.511 588.443 843.169 588.443 842.746V790.748C588.443 787.435 585.757 784.748 582.443 784.748H534.057C530.744 784.748 528.057 787.435 528.057 790.748V842.746C528.057 843.169 527.715 843.511 527.292 843.511C526.87 843.511 526.527 843.169 526.527 842.746V790.748C526.527 787.435 523.841 784.748 520.527 784.748H472.143C468.83 784.748 466.143 787.435 466.143 790.748V842.746C466.143 843.169 465.801 843.511 465.379 843.511C464.956 843.511 464.614 843.169 464.614 842.746V790.748C464.614 787.435 461.927 784.748 458.614 784.748H410.228C406.914 784.748 404.228 787.435 404.228 790.748V842.746C404.228 843.169 403.885 843.511 403.463 843.511C403.041 843.511 402.698 843.169 402.698 842.746V790.748C402.698 787.435 400.012 784.748 396.698 784.748H348.316C345.002 784.748 342.316 787.435 342.316 790.748V842.746C342.316 843.169 341.973 843.511 341.551 843.511C341.128 843.511 340.786 843.169 340.786 842.746V790.748C340.786 787.435 338.099 784.748 334.786 784.748H286.4C283.087 784.748 280.4 787.435 280.4 790.748V842.746C280.4 843.169 280.058 843.511 279.635 843.511C279.213 843.511 278.87 843.169 278.87 842.746V790.748C278.87 787.435 276.184 784.748 272.87 784.748H224.486C221.173 784.748 218.486 787.435 218.486 790.748V842.746C218.486 843.169 218.144 843.511 217.721 843.511C217.299 843.511 216.957 843.169 216.957 842.746V790.748C216.957 787.435 214.27 784.748 210.957 784.748H162.572C159.259 784.748 156.572 787.435 156.572 790.748V842.746C156.572 843.169 156.23 843.511 155.807 843.511C155.385 843.511 155.043 843.169 155.043 842.746V790.748C155.043 787.435 152.356 784.748 149.043 784.748L100.657 784.748C97.3434 784.748 94.6571 787.435 94.6571 790.748V842.746C94.6571 843.169 94.3146 843.511 93.8922 843.511C93.4697 843.511 93.1273 843.169 93.1273 842.746V790.748C93.1273 787.435 90.441 784.748 87.1273 784.748H38.7432C35.4296 784.748 32.7432 787.435 32.7432 790.748V842.746C32.7432 843.169 32.4008 843.511 31.9783 843.511C31.5559 843.511 31.2134 843.169 31.2134 842.746V790.748C31.2134 787.435 28.5271 784.748 25.2134 784.748H-23.1722C-26.486 784.748 -29.1722 787.435 -29.1722 790.748V842.746C-29.1722 843.169 -29.5146 843.511 -29.9371 843.511C-30.3596 843.511 -30.702 843.169 -30.702 842.746V790.748C-30.702 787.435 -33.3883 784.748 -36.702 784.748H-85.0907C-88.4044 784.748 -91.0907 787.435 -91.0907 790.748V842.746C-91.0907 843.169 -91.4331 843.511 -91.8556 843.511C-92.278 843.511 -92.6205 843.169 -92.6205 842.746V790.748C-92.6205 787.435 -95.3068 784.748 -98.6205 784.748H-152.256C-152.667 784.748 -153 784.415 -153 784.004C-153 783.593 -152.667 783.26 -152.256 783.26H-98.6189C-95.3052 783.26 -92.6189 780.573 -92.6189 777.26V730.498C-92.6189 727.184 -95.3052 724.498 -98.6189 724.498H-152.256C-152.667 724.498 -153 724.165 -153 723.754C-153 723.343 -152.667 723.009 -152.256 723.009H-98.6189C-95.3052 723.009 -92.6189 720.323 -92.6189 717.009V670.248C-92.6189 666.934 -95.3052 664.248 -98.6189 664.248H-152.256C-152.667 664.248 -153 663.915 -153 663.504C-153 663.093 -152.667 662.759 -152.256 662.759H-98.6189C-95.3052 662.759 -92.6189 660.073 -92.6189 656.759V609.996C-92.6189 606.683 -95.3052 603.996 -98.6189 603.996H-152.256C-152.667 603.996 -153 603.663 -153 603.252C-153 602.841 -152.667 602.508 -152.256 602.508H-98.6189C-95.3052 602.508 -92.6189 599.821 -92.6189 596.508V549.746C-92.6189 546.432 -95.3052 543.746 -98.6189 543.746H-152.256C-152.667 543.746 -153 543.413 -153 543.002C-153 542.591 -152.667 542.258 -152.256 542.258H-98.6189C-95.3052 542.258 -92.6189 539.571 -92.6189 536.258V489.495C-92.6189 486.181 -95.3052 483.495 -98.6189 483.495L-152.256 483.495C-152.667 483.495 -153 483.161 -153 482.75C-153 482.339 -152.667 482.006 -152.256 482.006L-98.6189 482.006C-95.3052 482.006 -92.6189 479.32 -92.6189 476.006V429.244C-92.6189 425.931 -95.3052 423.244 -98.6189 423.244L-152.256 423.244C-152.667 423.244 -153 422.911 -153 422.5C-153 422.089 -152.667 421.756 -152.256 421.756L-98.6189 421.756C-95.3052 421.756 -92.6189 419.069 -92.6189 415.756V368.993C-92.6189 365.679 -95.3052 362.993 -98.6189 362.993L-152.256 362.993C-152.667 362.993 -153 362.659 -153 362.248C-153 361.837 -152.667 361.504 -152.256 361.504L-98.6189 361.504C-95.3052 361.504 -92.6189 358.818 -92.6189 355.504V308.742C-92.6189 305.429 -95.3052 302.742 -98.6189 302.742H-152.256C-152.667 302.742 -153 302.409 -153 301.998C-153 301.587 -152.667 301.254 -152.256 301.254H-98.6189C-95.3052 301.254 -92.6189 298.568 -92.6189 295.254V248.491C-92.6189 245.177 -95.3052 242.491 -98.6189 242.491H-152.256C-152.667 242.491 -153 242.158 -153 241.747C-153 241.335 -152.667 241.002 -152.256 241.002H-98.6189C-95.3052 241.002 -92.6189 238.316 -92.6189 235.002V188.241C-92.6189 184.927 -95.3052 182.241 -98.6189 182.241H-152.256C-152.667 182.241 -153 181.907 -153 181.496C-153 181.085 -152.667 180.752 -152.256 180.752H-98.6189C-95.3052 180.752 -92.6189 178.066 -92.6189 174.752V127.991C-92.6189 124.677 -95.3052 121.991 -98.6189 121.991H-152.256C-152.667 121.991 -153 121.657 -153 121.246C-153 120.835 -152.667 120.502 -152.256 120.502H-98.6189C-95.3052 120.502 -92.6189 117.816 -92.6189 114.502V67.7388C-92.6189 64.4251 -95.3052 61.7388 -98.6189 61.7388H-152.256C-152.667 61.7388 -153 61.4056 -153 60.9945C-153 60.5834 -152.667 60.2502 -152.256 60.2502H-98.6189C-95.3052 60.2502 -92.6189 57.5638 -92.6189 54.2502V0.764893C-92.6189 0.342407 -92.2765 0 -91.854 0C-91.4316 0 -91.0891 0.342407 -91.0891 0.764893V54.2502C-91.0891 57.5639 -88.4028 60.2502 -85.0891 60.2502H-36.7004C-33.3867 60.2502 -30.7004 57.5638 -30.7004 54.2502V0.764893C-30.7004 0.342407 -30.3579 0 -29.9355 0C-29.5131 0 -29.1707 0.342407 -29.1707 0.764893V54.2502C-29.1707 57.5639 -26.4844 60.2502 -23.1707 60.2502H25.215C28.5287 60.2502 31.215 57.5638 31.215 54.2502V0.764893C31.215 0.342468 31.5574 0 31.9799 0C32.4023 0 32.7449 0.342468 32.7449 0.764893V54.2502C32.7449 57.5639 35.4312 60.2502 38.7449 60.2502H87.1288C90.4425 60.2502 93.1288 57.5638 93.1288 54.2502V0.764893C93.1288 0.342468 93.4713 0 93.8937 0C94.3162 0 94.6587 0.342468 94.6587 0.764893V54.2502C94.6587 57.5639 97.345 60.2502 100.659 60.2502H149.044C152.358 60.2502 155.044 57.5638 155.044 54.2502V0.764893C155.044 0.342407 155.387 0 155.809 0C156.231 0 156.574 0.342407 156.574 0.764893V54.2502C156.574 57.5639 159.26 60.2502 162.574 60.2502H210.958C214.272 60.2502 216.958 57.5638 216.958 54.2502V0.764893C216.958 0.342407 217.301 0 217.723 0C218.145 0 218.488 0.342407 218.488 0.764893V54.2502C218.488 57.5639 221.174 60.2502 224.488 60.2502H272.872C276.186 60.2502 278.872 57.5638 278.872 54.2502V0.764893C278.872 0.342407 279.214 0 279.637 0C280.059 0 280.402 0.342407 280.402 0.764893V54.2502C280.402 57.5639 283.088 60.2502 286.402 60.2502H334.787C338.101 60.2502 340.787 57.5638 340.787 54.2502V0.764893C340.787 0.342407 341.13 0 341.552 0C341.975 0 342.317 0.342407 342.317 0.764893V54.2502C342.317 57.5639 345.004 60.2502 348.317 60.2502H396.7C400.013 60.2502 402.7 57.5638 402.7 54.2502V0.764893C402.7 0.342407 403.042 0 403.465 0C403.887 0 404.229 0.342407 404.229 0.764893V54.2502C404.229 57.5639 406.916 60.2502 410.229 60.2502H458.615C461.929 60.2502 464.615 57.5638 464.615 54.2502V0.764893C464.615 0.342468 464.958 0 465.38 0C465.802 0 466.145 0.342468 466.145 0.764893V54.2502C466.145 57.5639 468.831 60.2502 472.145 60.2502H520.529C523.843 60.2502 526.529 57.5638 526.529 54.2502V0.764893C526.529 0.342407 526.871 0 527.294 0C527.716 0 528.059 0.342407 528.059 0.764893V54.2502C528.059 57.5639 530.745 60.2502 534.059 60.2502H582.444C585.758 60.2502 588.444 57.5638 588.444 54.2502V0.764893C588.444 0.342407 588.787 0 589.209 0C589.632 0 589.974 0.342407 589.974 0.764893V54.2502C589.974 57.5639 592.66 60.2502 595.974 60.2502H644.358C647.672 60.2502 650.358 57.5638 650.358 54.2502V0.764893C650.358 0.342407 650.701 0 651.123 0C651.546 0 651.888 0.342407 651.888 0.764893V54.2502C651.888 57.5639 654.574 60.2502 657.888 60.2502H706.274C709.587 60.2502 712.274 57.5638 712.274 54.2502V0.764893C712.274 0.342407 712.616 0 713.039 0C713.461 0 713.803 0.342407 713.803 0.764893V54.2502C713.803 57.5639 716.49 60.2502 719.803 60.2502H768.187C771.501 60.2502 774.187 57.5638 774.187 54.2502V0.764893C774.187 0.342407 774.53 0 774.952 0C775.375 0 775.717 0.342407 775.717 0.764893V54.2502C775.717 57.5639 778.404 60.2502 781.717 60.2502H830.103C833.417 60.2502 836.103 57.5638 836.103 54.2502V0.764893C836.103 0.342407 836.445 0 836.868 0C837.29 0 837.633 0.342468 837.633 0.764893V54.2502C837.633 57.5639 840.319 60.2502 843.633 60.2502H892.017C895.33 60.2502 898.017 57.5638 898.017 54.2502V0.764893C898.017 0.342407 898.359 0 898.782 0C899.204 0 899.547 0.342407 899.547 0.764893V54.2502C899.547 57.5639 902.233 60.2502 905.547 60.2502H953.932C957.246 60.2502 959.932 57.5638 959.932 54.2502V0.764893C959.932 0.342407 960.275 0 960.697 0C961.119 0 961.462 0.342468 961.462 0.764893V54.2502C961.462 57.5639 964.148 60.2502 967.462 60.2502H1015.85C1019.16 60.2502 1021.85 57.5638 1021.85 54.2502V0.764893C1021.85 0.342407 1022.19 0 1022.61 0C1023.03 0 1023.38 0.342468 1023.38 0.764893V54.2502C1023.38 57.5639 1026.06 60.2502 1029.38 60.2502H1077.76C1081.08 60.2502 1083.76 57.5638 1083.76 54.2502V0.764893C1083.76 0.342407 1084.1 0 1084.53 0C1084.95 0 1085.29 0.342407 1085.29 0.764893V54.2502C1085.29 57.5639 1087.98 60.2502 1091.29 60.2502H1139.68C1142.99 60.2502 1145.68 57.5638 1145.68 54.2502V0.764893C1145.68 0.342407 1146.02 0 1146.44 0C1146.86 0 1147.21 0.342407 1147.21 0.764893V54.2502C1147.21 57.5639 1149.89 60.2502 1153.21 60.2502H1201.59C1204.9 60.2502 1207.59 57.5638 1207.59 54.2502V0.764893C1207.59 0.342407 1207.93 0 1208.36 0C1208.78 0 1209.12 0.342407 1209.12 0.764893V54.2502C1209.12 57.5639 1211.81 60.2502 1215.12 60.2502H1263.5C1266.82 60.2502 1269.5 57.5638 1269.5 54.2502V0.764893C1269.5 0.342407 1269.85 0 1270.27 0C1270.69 0 1271.03 0.342407 1271.03 0.764893V54.2502C1271.03 57.5639 1273.72 60.2502 1277.03 60.2502H1325.42C1328.73 60.2502 1331.42 57.5638 1331.42 54.2502V0.764893C1331.42 0.342407 1331.76 0 1332.18 0C1332.61 0 1332.95 0.342407 1332.95 0.764893V54.2502C1332.95 57.5639 1335.64 60.2502 1338.95 60.2502H1387.33C1390.65 60.2502 1393.33 57.5638 1393.33 54.2502V0.764893C1393.33 0.342407 1393.68 0 1394.1 0C1394.52 0 1394.86 0.342407 1394.86 0.764893V54.2502C1394.86 57.5639 1397.55 60.2502 1400.86 60.2502H1449.25C1452.56 60.2502 1455.25 57.5638 1455.25 54.2502V2.2536C1455.25 1.83112 1455.59 1.48871 1456.01 1.48871C1456.43 1.48871 1456.78 1.83112 1456.78 2.2536V54.2502C1456.78 57.5638 1459.46 60.2502 1462.78 60.2502H1489.26C1489.67 60.2502 1490 60.5834 1490 60.9945C1490 61.4056 1489.67 61.7388 1489.26 61.7388H1462.78C1459.46 61.7388 1456.78 64.4251 1456.78 67.7388V114.502C1456.78 117.815 1459.46 120.502 1462.78 120.502H1489.26C1489.67 120.502 1490 120.835 1490 121.246C1490 121.657 1489.67 121.991 1489.26 121.991H1462.78C1459.46 121.991 1456.78 124.677 1456.78 127.991V174.752C1456.78 178.066 1459.46 180.752 1462.78 180.752H1489.26C1489.67 180.752 1490 181.085 1490 181.496C1490 181.907 1489.67 182.241 1489.26 182.241H1462.78C1459.46 182.241 1456.78 184.927 1456.78 188.241V235.002C1456.78 238.316 1459.46 241.002 1462.78 241.002H1489.26C1489.67 241.002 1490 241.335 1490 241.747C1490 242.158 1489.67 242.491 1489.26 242.491H1462.78C1459.46 242.491 1456.78 245.177 1456.78 248.491V295.254C1456.78 298.568 1459.46 301.254 1462.78 301.254H1489.26C1489.67 301.254 1490 301.587 1490 301.998C1490 302.409 1489.67 302.742 1489.26 302.742H1462.78C1459.46 302.742 1456.78 305.429 1456.78 308.742V355.504C1456.78 358.818 1459.46 361.504 1462.78 361.504H1489.26C1489.67 361.504 1490 361.837 1490 362.248C1490 362.659 1489.67 362.993 1489.26 362.993H1462.78C1459.46 362.993 1456.78 365.679 1456.78 368.993V415.756C1456.78 419.069 1459.46 421.756 1462.78 421.756H1489.26C1489.67 421.756 1490 422.089 1490 422.5C1490 422.911 1489.67 423.244 1489.26 423.244H1462.78C1459.46 423.244 1456.78 425.931 1456.78 429.244V476.006C1456.78 479.32 1459.46 482.006 1462.78 482.006H1489.26C1489.67 482.006 1490 482.339 1490 482.75C1490 483.161 1489.67 483.495 1489.26 483.495H1462.78C1459.46 483.495 1456.78 486.181 1456.78 489.495V536.258C1456.78 539.571 1459.46 542.258 1462.78 542.258H1489.26C1489.67 542.258 1490 542.591 1490 543.002C1490 543.413 1489.67 543.746 1489.26 543.746H1462.78C1459.46 543.746 1456.78 546.432 1456.78 549.746V596.508C1456.78 599.821 1459.46 602.508 1462.78 602.508H1489.26C1489.67 602.508 1490 602.841 1490 603.252C1490 603.663 1489.67 603.996 1489.26 603.996H1462.78C1459.46 603.996 1456.78 606.683 1456.78 609.996V656.759C1456.78 660.073 1459.46 662.759 1462.78 662.759H1489.26C1489.67 662.759 1490 663.093 1490 663.504C1490 663.915 1489.67 664.248 1489.26 664.248H1462.78C1459.46 664.248 1456.78 666.934 1456.78 670.248V717.009C1456.78 720.323 1459.46 723.009 1462.78 723.009H1489.26C1489.67 723.009 1490 723.343 1490 723.754C1490 724.165 1489.67 724.498 1489.26 724.498H1462.78C1459.46 724.498 1456.78 727.184 1456.78 730.498V777.26C1456.78 780.573 1459.46 783.26 1462.78 783.26H1489.26C1489.67 783.26 1490 783.593 1490 784.004C1490 784.415 1489.67 784.748 1489.26 784.748H1462.78ZM1455.25 777.26C1455.25 780.573 1452.56 783.26 1449.25 783.26H1400.86C1397.55 783.26 1394.86 780.573 1394.86 777.26V730.498C1394.86 727.184 1397.55 724.498 1400.86 724.498H1449.25C1452.56 724.498 1455.25 727.184 1455.25 730.498V777.26ZM1455.25 717.009C1455.25 720.323 1452.56 723.009 1449.25 723.009H1400.86C1397.55 723.009 1394.86 720.323 1394.86 717.009V670.248C1394.86 666.934 1397.55 664.248 1400.86 664.248H1449.25C1452.56 664.248 1455.25 666.934 1455.25 670.248V717.009ZM1455.25 656.759C1455.25 660.073 1452.56 662.759 1449.25 662.759H1400.86C1397.55 662.759 1394.86 660.073 1394.86 656.759V609.996C1394.86 606.683 1397.55 603.996 1400.86 603.996H1449.25C1452.56 603.996 1455.25 606.683 1455.25 609.996V656.759ZM1455.25 596.508C1455.25 599.821 1452.56 602.508 1449.25 602.508H1400.86C1397.55 602.508 1394.86 599.821 1394.86 596.508V549.746C1394.86 546.432 1397.55 543.746 1400.86 543.746H1449.25C1452.56 543.746 1455.25 546.432 1455.25 549.746V596.508ZM1455.25 536.258C1455.25 539.571 1452.56 542.258 1449.25 542.258H1400.86C1397.55 542.258 1394.86 539.571 1394.86 536.258V489.495C1394.86 486.181 1397.55 483.495 1400.86 483.495H1449.25C1452.56 483.495 1455.25 486.181 1455.25 489.495V536.258ZM1455.25 476.006C1455.25 479.32 1452.56 482.006 1449.25 482.006H1400.86C1397.55 482.006 1394.86 479.32 1394.86 476.006V429.244C1394.86 425.931 1397.55 423.244 1400.86 423.244H1449.25C1452.56 423.244 1455.25 425.931 1455.25 429.244V476.006ZM1455.25 415.756C1455.25 419.069 1452.56 421.756 1449.25 421.756H1400.86C1397.55 421.756 1394.86 419.069 1394.86 415.756V368.993C1394.86 365.679 1397.55 362.993 1400.86 362.993H1449.25C1452.56 362.993 1455.25 365.679 1455.25 368.993V415.756ZM1455.25 355.504C1455.25 358.818 1452.56 361.504 1449.25 361.504H1400.86C1397.55 361.504 1394.86 358.818 1394.86 355.504V308.742C1394.86 305.429 1397.55 302.742 1400.86 302.742H1449.25C1452.56 302.742 1455.25 305.429 1455.25 308.742V355.504ZM1455.25 295.254C1455.25 298.568 1452.56 301.254 1449.25 301.254H1400.86C1397.55 301.254 1394.86 298.568 1394.86 295.254V248.491C1394.86 245.177 1397.55 242.491 1400.86 242.491H1449.25C1452.56 242.491 1455.25 245.177 1455.25 248.491V295.254ZM1455.25 235.002C1455.25 238.316 1452.56 241.002 1449.25 241.002H1400.86C1397.55 241.002 1394.86 238.316 1394.86 235.002V188.241C1394.86 184.927 1397.55 182.241 1400.86 182.241H1449.25C1452.56 182.241 1455.25 184.927 1455.25 188.241V235.002ZM1455.25 174.752C1455.25 178.066 1452.56 180.752 1449.25 180.752H1400.86C1397.55 180.752 1394.86 178.066 1394.86 174.752V127.991C1394.86 124.677 1397.55 121.991 1400.86 121.991H1449.25C1452.56 121.991 1455.25 124.677 1455.25 127.991V174.752ZM1455.25 114.502C1455.25 117.815 1452.56 120.502 1449.25 120.502H1400.86C1397.55 120.502 1394.86 117.816 1394.86 114.502V67.7388C1394.86 64.4251 1397.55 61.7388 1400.86 61.7388H1449.25C1452.56 61.7388 1455.25 64.4251 1455.25 67.7388V114.502ZM1332.95 777.26C1332.95 780.573 1335.64 783.26 1338.95 783.26H1387.33C1390.65 783.26 1393.33 780.573 1393.33 777.26V730.498C1393.33 727.184 1390.65 724.498 1387.33 724.498H1338.95C1335.64 724.498 1332.95 727.184 1332.95 730.498V777.26ZM1332.95 717.009C1332.95 720.323 1335.64 723.009 1338.95 723.009H1387.33C1390.65 723.009 1393.33 720.323 1393.33 717.009V670.248C1393.33 666.934 1390.65 664.248 1387.33 664.248H1338.95C1335.64 664.248 1332.95 666.934 1332.95 670.248V717.009ZM1332.95 656.759C1332.95 660.073 1335.64 662.759 1338.95 662.759H1387.33C1390.65 662.759 1393.33 660.073 1393.33 656.759V609.996C1393.33 606.683 1390.65 603.996 1387.33 603.996H1338.95C1335.64 603.996 1332.95 606.683 1332.95 609.996V656.759ZM1332.95 596.508C1332.95 599.821 1335.64 602.508 1338.95 602.508H1387.33C1390.65 602.508 1393.33 599.821 1393.33 596.508V549.746C1393.33 546.432 1390.65 543.746 1387.33 543.746H1338.95C1335.64 543.746 1332.95 546.432 1332.95 549.746V596.508ZM1332.95 536.258C1332.95 539.571 1335.64 542.258 1338.95 542.258H1387.33C1390.65 542.258 1393.33 539.571 1393.33 536.258V489.495C1393.33 486.181 1390.65 483.495 1387.33 483.495H1338.95C1335.64 483.495 1332.95 486.181 1332.95 489.495V536.258ZM1332.95 476.006C1332.95 479.32 1335.64 482.006 1338.95 482.006H1387.33C1390.65 482.006 1393.33 479.32 1393.33 476.006V429.244C1393.33 425.931 1390.65 423.244 1387.33 423.244H1338.95C1335.64 423.244 1332.95 425.931 1332.95 429.244V476.006ZM1332.95 415.756C1332.95 419.069 1335.64 421.756 1338.95 421.756H1387.33C1390.65 421.756 1393.33 419.069 1393.33 415.756V368.993C1393.33 365.679 1390.65 362.993 1387.33 362.993H1338.95C1335.64 362.993 1332.95 365.679 1332.95 368.993V415.756ZM1332.95 355.504C1332.95 358.818 1335.64 361.504 1338.95 361.504H1387.33C1390.65 361.504 1393.33 358.818 1393.33 355.504V308.742C1393.33 305.429 1390.65 302.742 1387.33 302.742H1338.95C1335.64 302.742 1332.95 305.429 1332.95 308.742V355.504ZM1332.95 295.254C1332.95 298.568 1335.64 301.254 1338.95 301.254H1387.33C1390.65 301.254 1393.33 298.568 1393.33 295.254V248.491C1393.33 245.177 1390.65 242.491 1387.33 242.491H1338.95C1335.64 242.491 1332.95 245.177 1332.95 248.491V295.254ZM1332.95 235.002C1332.95 238.316 1335.64 241.002 1338.95 241.002H1387.33C1390.65 241.002 1393.33 238.316 1393.33 235.002V188.241C1393.33 184.927 1390.65 182.241 1387.33 182.241H1338.95C1335.64 182.241 1332.95 184.927 1332.95 188.241V235.002ZM1332.95 174.752C1332.95 178.066 1335.64 180.752 1338.95 180.752H1387.33C1390.65 180.752 1393.33 178.066 1393.33 174.752V127.991C1393.33 124.677 1390.65 121.991 1387.33 121.991H1338.95C1335.64 121.991 1332.95 124.677 1332.95 127.991V174.752ZM1332.95 114.502C1332.95 117.815 1335.64 120.502 1338.95 120.502H1387.33C1390.65 120.502 1393.33 117.816 1393.33 114.502V67.7388C1393.33 64.4251 1390.65 61.7388 1387.33 61.7388H1338.95C1335.64 61.7388 1332.95 64.4251 1332.95 67.7388V114.502ZM1325.42 61.7388C1328.73 61.7388 1331.42 64.4251 1331.42 67.7388V114.502C1331.42 117.815 1328.73 120.502 1325.42 120.502H1277.03C1273.72 120.502 1271.03 117.816 1271.03 114.502V67.7388C1271.03 64.4251 1273.72 61.7388 1277.03 61.7388H1325.42ZM1325.42 121.991C1328.73 121.991 1331.42 124.677 1331.42 127.991V174.752C1331.42 178.066 1328.73 180.752 1325.42 180.752H1277.03C1273.72 180.752 1271.03 178.066 1271.03 174.752V127.991C1271.03 124.677 1273.72 121.991 1277.03 121.991H1325.42ZM1325.42 182.241C1328.73 182.241 1331.42 184.927 1331.42 188.241V235.002C1331.42 238.316 1328.73 241.002 1325.42 241.002H1277.03C1273.72 241.002 1271.03 238.316 1271.03 235.002V188.241C1271.03 184.927 1273.72 182.241 1277.03 182.241H1325.42ZM1325.42 242.491C1328.73 242.491 1331.42 245.177 1331.42 248.491V295.254C1331.42 298.568 1328.73 301.254 1325.42 301.254H1277.03C1273.72 301.254 1271.03 298.568 1271.03 295.254V248.491C1271.03 245.177 1273.72 242.491 1277.03 242.491H1325.42ZM1325.42 302.742C1328.73 302.742 1331.42 305.429 1331.42 308.742V355.504C1331.42 358.818 1328.73 361.504 1325.42 361.504H1277.03C1273.72 361.504 1271.03 358.818 1271.03 355.504V308.742C1271.03 305.429 1273.72 302.742 1277.03 302.742H1325.42ZM1325.42 362.993C1328.73 362.993 1331.42 365.679 1331.42 368.993V415.756C1331.42 419.069 1328.73 421.756 1325.42 421.756H1277.03C1273.72 421.756 1271.03 419.069 1271.03 415.756V368.993C1271.03 365.679 1273.72 362.993 1277.03 362.993H1325.42ZM1325.42 423.244C1328.73 423.244 1331.42 425.931 1331.42 429.244V476.006C1331.42 479.32 1328.73 482.006 1325.42 482.006H1277.03C1273.72 482.006 1271.03 479.32 1271.03 476.006V429.244C1271.03 425.931 1273.72 423.244 1277.03 423.244H1325.42ZM1325.42 483.495C1328.73 483.495 1331.42 486.181 1331.42 489.495V536.258C1331.42 539.571 1328.73 542.258 1325.42 542.258H1277.03C1273.72 542.258 1271.03 539.571 1271.03 536.258V489.495C1271.03 486.181 1273.72 483.495 1277.03 483.495H1325.42ZM1325.42 543.746C1328.73 543.746 1331.42 546.432 1331.42 549.746V596.508C1331.42 599.821 1328.73 602.508 1325.42 602.508H1277.03C1273.72 602.508 1271.03 599.821 1271.03 596.508V549.746C1271.03 546.432 1273.72 543.746 1277.03 543.746H1325.42ZM1325.42 603.996C1328.73 603.996 1331.42 606.683 1331.42 609.996V656.759C1331.42 660.073 1328.73 662.759 1325.42 662.759H1277.03C1273.72 662.759 1271.03 660.073 1271.03 656.759V609.996C1271.03 606.683 1273.72 603.996 1277.03 603.996H1325.42ZM1325.42 664.248C1328.73 664.248 1331.42 666.934 1331.42 670.248V717.009C1331.42 720.323 1328.73 723.009 1325.42 723.009H1277.03C1273.72 723.009 1271.03 720.323 1271.03 717.009V670.248C1271.03 666.934 1273.72 664.248 1277.03 664.248H1325.42ZM1325.42 724.498C1328.73 724.498 1331.42 727.184 1331.42 730.498V777.26C1331.42 780.573 1328.73 783.26 1325.42 783.26H1277.03C1273.72 783.26 1271.03 780.573 1271.03 777.26V730.498C1271.03 727.184 1273.72 724.498 1277.03 724.498H1325.42ZM1209.12 777.26C1209.12 780.573 1211.81 783.26 1215.12 783.26H1263.5C1266.82 783.26 1269.5 780.573 1269.5 777.26V730.498C1269.5 727.184 1266.82 724.498 1263.5 724.498H1215.12C1211.81 724.498 1209.12 727.184 1209.12 730.498V777.26ZM1209.12 717.009C1209.12 720.323 1211.81 723.009 1215.12 723.009H1263.5C1266.82 723.009 1269.5 720.323 1269.5 717.009V670.248C1269.5 666.934 1266.82 664.248 1263.5 664.248H1215.12C1211.81 664.248 1209.12 666.934 1209.12 670.248V717.009ZM1209.12 656.759C1209.12 660.073 1211.81 662.759 1215.12 662.759H1263.5C1266.82 662.759 1269.5 660.073 1269.5 656.759V609.996C1269.5 606.683 1266.82 603.996 1263.5 603.996H1215.12C1211.81 603.996 1209.12 606.683 1209.12 609.996V656.759ZM1209.12 596.508C1209.12 599.821 1211.81 602.508 1215.12 602.508H1263.5C1266.82 602.508 1269.5 599.821 1269.5 596.508V549.746C1269.5 546.432 1266.82 543.746 1263.5 543.746H1215.12C1211.81 543.746 1209.12 546.432 1209.12 549.746V596.508ZM1209.12 536.258C1209.12 539.571 1211.81 542.258 1215.12 542.258H1263.5C1266.82 542.258 1269.5 539.571 1269.5 536.258V489.495C1269.5 486.181 1266.82 483.495 1263.5 483.495L1215.12 483.495C1211.81 483.495 1209.12 486.181 1209.12 489.495V536.258ZM1209.12 476.006C1209.12 479.32 1211.81 482.006 1215.12 482.006L1263.5 482.006C1266.82 482.006 1269.5 479.32 1269.5 476.006V429.244C1269.5 425.931 1266.82 423.244 1263.5 423.244L1215.12 423.244C1211.81 423.244 1209.12 425.931 1209.12 429.244V476.006ZM1209.12 415.756C1209.12 419.069 1211.81 421.756 1215.12 421.756L1263.5 421.756C1266.82 421.756 1269.5 419.069 1269.5 415.756V368.993C1269.5 365.679 1266.82 362.993 1263.5 362.993L1215.12 362.993C1211.81 362.993 1209.12 365.679 1209.12 368.993V415.756ZM1209.12 355.504C1209.12 358.818 1211.81 361.504 1215.12 361.504L1263.5 361.504C1266.82 361.504 1269.5 358.818 1269.5 355.504V308.742C1269.5 305.429 1266.82 302.742 1263.5 302.742H1215.12C1211.81 302.742 1209.12 305.429 1209.12 308.742V355.504ZM1209.12 295.254C1209.12 298.568 1211.81 301.254 1215.12 301.254H1263.5C1266.82 301.254 1269.5 298.568 1269.5 295.254V248.491C1269.5 245.177 1266.82 242.491 1263.5 242.491H1215.12C1211.81 242.491 1209.12 245.177 1209.12 248.491V295.254ZM1209.12 235.002C1209.12 238.316 1211.81 241.002 1215.12 241.002H1263.5C1266.82 241.002 1269.5 238.316 1269.5 235.002V188.241C1269.5 184.927 1266.82 182.241 1263.5 182.241H1215.12C1211.81 182.241 1209.12 184.927 1209.12 188.241V235.002ZM1209.12 174.752C1209.12 178.066 1211.81 180.752 1215.12 180.752H1263.5C1266.82 180.752 1269.5 178.066 1269.5 174.752V127.991C1269.5 124.677 1266.82 121.991 1263.5 121.991H1215.12C1211.81 121.991 1209.12 124.677 1209.12 127.991V174.752ZM1209.12 114.502C1209.12 117.815 1211.81 120.502 1215.12 120.502H1263.5C1266.82 120.502 1269.5 117.816 1269.5 114.502V67.7388C1269.5 64.4251 1266.82 61.7388 1263.5 61.7388H1215.12C1211.81 61.7388 1209.12 64.4251 1209.12 67.7388V114.502ZM1201.59 61.7388C1204.9 61.7388 1207.59 64.4251 1207.59 67.7388V114.502C1207.59 117.815 1204.9 120.502 1201.59 120.502H1153.21C1149.89 120.502 1147.21 117.816 1147.21 114.502V67.7388C1147.21 64.4251 1149.89 61.7388 1153.21 61.7388H1201.59ZM1201.59 121.991C1204.9 121.991 1207.59 124.677 1207.59 127.991V174.752C1207.59 178.066 1204.9 180.752 1201.59 180.752H1153.21C1149.89 180.752 1147.21 178.066 1147.21 174.752V127.991C1147.21 124.677 1149.89 121.991 1153.21 121.991H1201.59ZM1201.59 182.241C1204.9 182.241 1207.59 184.927 1207.59 188.241V235.002C1207.59 238.316 1204.9 241.002 1201.59 241.002H1153.21C1149.89 241.002 1147.21 238.316 1147.21 235.002V188.241C1147.21 184.927 1149.89 182.241 1153.21 182.241H1201.59ZM1201.59 242.491C1204.9 242.491 1207.59 245.177 1207.59 248.491V295.254C1207.59 298.568 1204.9 301.254 1201.59 301.254H1153.21C1149.89 301.254 1147.21 298.568 1147.21 295.254V248.491C1147.21 245.177 1149.89 242.491 1153.21 242.491H1201.59ZM1201.59 302.742C1204.9 302.742 1207.59 305.429 1207.59 308.742V355.504C1207.59 358.818 1204.9 361.504 1201.59 361.504H1153.21C1149.89 361.504 1147.21 358.818 1147.21 355.504V308.742C1147.21 305.429 1149.89 302.742 1153.21 302.742H1201.59ZM1201.59 362.993C1204.9 362.993 1207.59 365.679 1207.59 368.993V415.756C1207.59 419.069 1204.9 421.756 1201.59 421.756H1153.21C1149.89 421.756 1147.21 419.069 1147.21 415.756V368.993C1147.21 365.679 1149.89 362.993 1153.21 362.993H1201.59ZM1201.59 423.244C1204.9 423.244 1207.59 425.931 1207.59 429.244V476.006C1207.59 479.32 1204.9 482.006 1201.59 482.006H1153.21C1149.89 482.006 1147.21 479.32 1147.21 476.006V429.244C1147.21 425.931 1149.89 423.244 1153.21 423.244H1201.59ZM1201.59 483.495C1204.9 483.495 1207.59 486.181 1207.59 489.495V536.258C1207.59 539.571 1204.9 542.258 1201.59 542.258H1153.21C1149.89 542.258 1147.21 539.571 1147.21 536.258V489.495C1147.21 486.181 1149.89 483.495 1153.21 483.495H1201.59ZM1201.59 543.746C1204.9 543.746 1207.59 546.432 1207.59 549.746V596.508C1207.59 599.821 1204.9 602.508 1201.59 602.508H1153.21C1149.89 602.508 1147.21 599.821 1147.21 596.508V549.746C1147.21 546.432 1149.89 543.746 1153.21 543.746H1201.59ZM1201.59 603.996C1204.9 603.996 1207.59 606.683 1207.59 609.996V656.759C1207.59 660.073 1204.9 662.759 1201.59 662.759H1153.21C1149.89 662.759 1147.21 660.073 1147.21 656.759V609.996C1147.21 606.683 1149.89 603.996 1153.21 603.996H1201.59ZM1201.59 664.248C1204.9 664.248 1207.59 666.934 1207.59 670.248V717.009C1207.59 720.323 1204.9 723.009 1201.59 723.009H1153.21C1149.89 723.009 1147.21 720.323 1147.21 717.009V670.248C1147.21 666.934 1149.89 664.248 1153.21 664.248H1201.59ZM1201.59 724.498C1204.9 724.498 1207.59 727.184 1207.59 730.498V777.26C1207.59 780.573 1204.9 783.26 1201.59 783.26H1153.21C1149.89 783.26 1147.21 780.573 1147.21 777.26V730.498C1147.21 727.184 1149.89 724.498 1153.21 724.498H1201.59ZM1085.29 777.26C1085.29 780.573 1087.98 783.26 1091.29 783.26H1139.68C1142.99 783.26 1145.68 780.573 1145.68 777.26V730.498C1145.68 727.184 1142.99 724.498 1139.68 724.498H1091.29C1087.98 724.498 1085.29 727.184 1085.29 730.498V777.26ZM1085.29 717.009C1085.29 720.323 1087.98 723.009 1091.29 723.009H1139.68C1142.99 723.009 1145.68 720.323 1145.68 717.009V670.248C1145.68 666.934 1142.99 664.248 1139.68 664.248H1091.29C1087.98 664.248 1085.29 666.934 1085.29 670.248V717.009ZM1085.29 656.759C1085.29 660.073 1087.98 662.759 1091.29 662.759H1139.68C1142.99 662.759 1145.68 660.073 1145.68 656.759V609.996C1145.68 606.683 1142.99 603.996 1139.68 603.996H1091.29C1087.98 603.996 1085.29 606.683 1085.29 609.996V656.759ZM1085.29 596.508C1085.29 599.821 1087.98 602.508 1091.29 602.508H1139.68C1142.99 602.508 1145.68 599.821 1145.68 596.508V549.746C1145.68 546.432 1142.99 543.746 1139.68 543.746H1091.29C1087.98 543.746 1085.29 546.432 1085.29 549.746V596.508ZM1085.29 536.258C1085.29 539.571 1087.98 542.258 1091.29 542.258H1139.68C1142.99 542.258 1145.68 539.571 1145.68 536.258V489.495C1145.68 486.181 1142.99 483.495 1139.68 483.495H1091.29C1087.98 483.495 1085.29 486.181 1085.29 489.495V536.258ZM1085.29 476.006C1085.29 479.32 1087.98 482.006 1091.29 482.006H1139.68C1142.99 482.006 1145.68 479.32 1145.68 476.006V429.244C1145.68 425.931 1142.99 423.244 1139.68 423.244H1091.29C1087.98 423.244 1085.29 425.931 1085.29 429.244V476.006ZM1085.29 415.756C1085.29 419.069 1087.98 421.756 1091.29 421.756H1139.68C1142.99 421.756 1145.68 419.069 1145.68 415.756V368.993C1145.68 365.679 1142.99 362.993 1139.68 362.993H1091.29C1087.98 362.993 1085.29 365.679 1085.29 368.993V415.756ZM1085.29 355.504C1085.29 358.818 1087.98 361.504 1091.29 361.504H1139.68C1142.99 361.504 1145.68 358.818 1145.68 355.504V308.742C1145.68 305.429 1142.99 302.742 1139.68 302.742H1091.29C1087.98 302.742 1085.29 305.429 1085.29 308.742V355.504ZM1085.29 295.254C1085.29 298.568 1087.98 301.254 1091.29 301.254H1139.68C1142.99 301.254 1145.68 298.568 1145.68 295.254V248.491C1145.68 245.177 1142.99 242.491 1139.68 242.491H1091.29C1087.98 242.491 1085.29 245.177 1085.29 248.491V295.254ZM1085.29 235.002C1085.29 238.316 1087.98 241.002 1091.29 241.002H1139.68C1142.99 241.002 1145.68 238.316 1145.68 235.002V188.241C1145.68 184.927 1142.99 182.241 1139.68 182.241H1091.29C1087.98 182.241 1085.29 184.927 1085.29 188.241V235.002ZM1085.29 174.752C1085.29 178.066 1087.98 180.752 1091.29 180.752H1139.68C1142.99 180.752 1145.68 178.066 1145.68 174.752V127.991C1145.68 124.677 1142.99 121.991 1139.68 121.991H1091.29C1087.98 121.991 1085.29 124.677 1085.29 127.991V174.752ZM1085.29 114.502C1085.29 117.815 1087.98 120.502 1091.29 120.502H1139.68C1142.99 120.502 1145.68 117.816 1145.68 114.502V67.7388C1145.68 64.4251 1142.99 61.7388 1139.68 61.7388H1091.29C1087.98 61.7388 1085.29 64.4251 1085.29 67.7388V114.502ZM1077.76 61.7388C1081.08 61.7388 1083.76 64.4251 1083.76 67.7388V114.502C1083.76 117.815 1081.08 120.502 1077.76 120.502H1029.38C1026.06 120.502 1023.38 117.816 1023.38 114.502V67.7388C1023.38 64.4251 1026.06 61.7388 1029.38 61.7388H1077.76ZM1077.76 121.991C1081.08 121.991 1083.76 124.677 1083.76 127.991V174.752C1083.76 178.066 1081.08 180.752 1077.76 180.752H1029.38C1026.06 180.752 1023.38 178.066 1023.38 174.752L1023.38 127.991C1023.38 124.677 1026.06 121.991 1029.38 121.991H1077.76ZM1077.76 182.241C1081.08 182.241 1083.76 184.927 1083.76 188.241V235.002C1083.76 238.316 1081.08 241.002 1077.76 241.002H1029.38C1026.06 241.002 1023.38 238.316 1023.38 235.002V188.241C1023.38 184.927 1026.06 182.241 1029.38 182.241H1077.76ZM1077.76 242.491C1081.08 242.491 1083.76 245.177 1083.76 248.491V295.254C1083.76 298.568 1081.08 301.254 1077.76 301.254H1029.38C1026.06 301.254 1023.38 298.568 1023.38 295.254V248.491C1023.38 245.177 1026.06 242.491 1029.38 242.491H1077.76ZM1077.76 302.742C1081.08 302.742 1083.76 305.429 1083.76 308.742V355.504C1083.76 358.818 1081.08 361.504 1077.76 361.504H1029.38C1026.06 361.504 1023.38 358.818 1023.38 355.504V308.742C1023.38 305.429 1026.06 302.742 1029.38 302.742H1077.76ZM1077.76 362.993C1081.08 362.993 1083.76 365.679 1083.76 368.993V415.756C1083.76 419.069 1081.08 421.756 1077.76 421.756H1029.38C1026.06 421.756 1023.38 419.069 1023.38 415.756V368.993C1023.38 365.679 1026.06 362.993 1029.38 362.993H1077.76ZM1077.76 423.244C1081.08 423.244 1083.76 425.931 1083.76 429.244V476.006C1083.76 479.32 1081.08 482.006 1077.76 482.006H1029.38C1026.06 482.006 1023.38 479.32 1023.38 476.006V429.244C1023.38 425.931 1026.06 423.244 1029.38 423.244H1077.76ZM1077.76 483.495C1081.08 483.495 1083.76 486.181 1083.76 489.495V536.258C1083.76 539.571 1081.08 542.258 1077.76 542.258H1029.38C1026.06 542.258 1023.38 539.571 1023.38 536.258V489.495C1023.38 486.181 1026.06 483.495 1029.38 483.495H1077.76ZM1077.76 543.746C1081.08 543.746 1083.76 546.432 1083.76 549.746V596.508C1083.76 599.821 1081.08 602.508 1077.76 602.508H1029.38C1026.06 602.508 1023.38 599.821 1023.38 596.508V549.746C1023.38 546.432 1026.06 543.746 1029.38 543.746H1077.76ZM1077.76 603.996C1081.08 603.996 1083.76 606.683 1083.76 609.996V656.759C1083.76 660.073 1081.08 662.759 1077.76 662.759H1029.38C1026.06 662.759 1023.38 660.073 1023.38 656.759V609.996C1023.38 606.683 1026.06 603.996 1029.38 603.996H1077.76ZM1077.76 664.248C1081.08 664.248 1083.76 666.934 1083.76 670.248V717.009C1083.76 720.323 1081.08 723.009 1077.76 723.009H1029.38C1026.06 723.009 1023.38 720.323 1023.38 717.009V670.248C1023.38 666.934 1026.06 664.248 1029.38 664.248H1077.76ZM1077.76 724.498C1081.08 724.498 1083.76 727.184 1083.76 730.498V777.26C1083.76 780.573 1081.08 783.26 1077.76 783.26H1029.38C1026.06 783.26 1023.38 780.573 1023.38 777.26V730.498C1023.38 727.184 1026.06 724.498 1029.38 724.498H1077.76ZM961.462 777.26C961.462 780.573 964.148 783.26 967.462 783.26L1015.85 783.26C1019.16 783.26 1021.85 780.573 1021.85 777.26V730.498C1021.85 727.184 1019.16 724.498 1015.85 724.498L967.462 724.498C964.148 724.498 961.462 727.184 961.462 730.498V777.26ZM961.462 717.009C961.462 720.323 964.148 723.009 967.462 723.009L1015.85 723.009C1019.16 723.009 1021.85 720.323 1021.85 717.009V670.248C1021.85 666.934 1019.16 664.248 1015.85 664.248H967.462C964.148 664.248 961.462 666.934 961.462 670.248V717.009ZM961.462 656.759C961.462 660.073 964.148 662.759 967.462 662.759H1015.85C1019.16 662.759 1021.85 660.073 1021.85 656.759V609.996C1021.85 606.683 1019.16 603.996 1015.85 603.996H967.462C964.148 603.996 961.462 606.683 961.462 609.996V656.759ZM961.462 596.508C961.462 599.821 964.148 602.508 967.462 602.508H1015.85C1019.16 602.508 1021.85 599.821 1021.85 596.508V549.746C1021.85 546.432 1019.16 543.746 1015.85 543.746H967.462C964.148 543.746 961.462 546.432 961.462 549.746V596.508ZM961.462 536.258C961.462 539.571 964.148 542.258 967.462 542.258H1015.85C1019.16 542.258 1021.85 539.571 1021.85 536.258V489.495C1021.85 486.181 1019.16 483.495 1015.85 483.495H967.462C964.148 483.495 961.462 486.181 961.462 489.495V536.258ZM961.462 476.006C961.462 479.32 964.148 482.006 967.462 482.006H1015.85C1019.16 482.006 1021.85 479.32 1021.85 476.006V429.244C1021.85 425.931 1019.16 423.244 1015.85 423.244H967.462C964.148 423.244 961.462 425.931 961.462 429.244V476.006ZM961.462 415.756C961.462 419.069 964.148 421.756 967.462 421.756H1015.85C1019.16 421.756 1021.85 419.069 1021.85 415.756V368.993C1021.85 365.679 1019.16 362.993 1015.85 362.993H967.462C964.148 362.993 961.462 365.679 961.462 368.993L961.462 415.756ZM961.462 355.504C961.462 358.818 964.148 361.504 967.462 361.504H1015.85C1019.16 361.504 1021.85 358.818 1021.85 355.504V308.742C1021.85 305.429 1019.16 302.742 1015.85 302.742H967.462C964.148 302.742 961.462 305.429 961.462 308.742V355.504ZM961.462 295.254C961.462 298.568 964.148 301.254 967.462 301.254H1015.85C1019.16 301.254 1021.85 298.568 1021.85 295.254V248.491C1021.85 245.177 1019.16 242.491 1015.85 242.491H967.462C964.148 242.491 961.462 245.177 961.462 248.491V295.254ZM961.462 235.002C961.462 238.316 964.148 241.002 967.462 241.002H1015.85C1019.16 241.002 1021.85 238.316 1021.85 235.002V188.241C1021.85 184.927 1019.16 182.241 1015.85 182.241H967.462C964.148 182.241 961.462 184.927 961.462 188.241V235.002ZM961.462 174.752C961.462 178.066 964.148 180.752 967.462 180.752H1015.85C1019.16 180.752 1021.85 178.066 1021.85 174.752L1021.85 127.991C1021.85 124.677 1019.16 121.991 1015.85 121.991H967.462C964.148 121.991 961.462 124.677 961.462 127.991V174.752ZM961.462 114.502C961.462 117.815 964.148 120.502 967.462 120.502H1015.85C1019.16 120.502 1021.85 117.816 1021.85 114.502V67.7388C1021.85 64.4251 1019.16 61.7388 1015.85 61.7388H967.462C964.148 61.7388 961.462 64.4251 961.462 67.7388V114.502ZM953.932 61.7388C957.246 61.7388 959.932 64.4251 959.932 67.7388V114.502C959.932 117.815 957.246 120.502 953.932 120.502H905.547C902.233 120.502 899.547 117.816 899.547 114.502V67.7388C899.547 64.4251 902.233 61.7388 905.547 61.7388H953.932ZM953.932 121.991C957.246 121.991 959.932 124.677 959.932 127.991V174.752C959.932 178.066 957.246 180.752 953.932 180.752H905.547C902.233 180.752 899.547 178.066 899.547 174.752V127.991C899.547 124.677 902.233 121.991 905.547 121.991H953.932ZM953.932 182.241C957.246 182.241 959.932 184.927 959.932 188.241V235.002C959.932 238.316 957.246 241.002 953.932 241.002H905.547C902.233 241.002 899.547 238.316 899.547 235.002V188.241C899.547 184.927 902.233 182.241 905.547 182.241H953.932ZM953.932 242.491C957.246 242.491 959.932 245.177 959.932 248.491V295.254C959.932 298.568 957.246 301.254 953.932 301.254H905.547C902.233 301.254 899.547 298.568 899.547 295.254V248.491C899.547 245.177 902.233 242.491 905.547 242.491H953.932ZM953.932 302.742C957.246 302.742 959.932 305.429 959.932 308.742V355.504C959.932 358.818 957.246 361.504 953.932 361.504H905.547C902.233 361.504 899.547 358.818 899.547 355.504V308.742C899.547 305.429 902.233 302.742 905.547 302.742H953.932ZM953.932 362.993C957.246 362.993 959.932 365.679 959.932 368.993L959.932 415.756C959.932 419.069 957.246 421.756 953.932 421.756H905.547C902.233 421.756 899.547 419.069 899.547 415.756L899.547 368.993C899.547 365.679 902.233 362.993 905.547 362.993H953.932ZM953.932 423.244C957.246 423.244 959.932 425.931 959.932 429.244V476.006C959.932 479.32 957.246 482.006 953.932 482.006H905.547C902.233 482.006 899.547 479.32 899.547 476.006V429.244C899.547 425.931 902.233 423.244 905.547 423.244H953.932ZM953.932 483.495C957.246 483.495 959.932 486.181 959.932 489.495V536.258C959.932 539.571 957.246 542.258 953.932 542.258H905.547C902.233 542.258 899.547 539.571 899.547 536.258V489.495C899.547 486.181 902.233 483.495 905.547 483.495H953.932ZM953.932 543.746C957.246 543.746 959.932 546.432 959.932 549.746V596.508C959.932 599.821 957.246 602.508 953.932 602.508L905.547 602.508C902.233 602.508 899.547 599.821 899.547 596.508V549.746C899.547 546.432 902.233 543.746 905.547 543.746H953.932ZM953.932 603.996C957.246 603.996 959.932 606.683 959.932 609.996V656.759C959.932 660.073 957.246 662.759 953.932 662.759L905.547 662.759C902.233 662.759 899.547 660.073 899.547 656.759V609.996C899.547 606.683 902.233 603.996 905.547 603.996L953.932 603.996ZM953.932 664.248C957.246 664.248 959.932 666.934 959.932 670.248V717.009C959.932 720.323 957.246 723.009 953.932 723.009H905.547C902.233 723.009 899.547 720.323 899.547 717.009V670.248C899.547 666.934 902.233 664.248 905.547 664.248L953.932 664.248ZM953.932 724.498C957.246 724.498 959.932 727.184 959.932 730.498V777.26C959.932 780.573 957.246 783.26 953.932 783.26H905.547C902.233 783.26 899.547 780.573 899.547 777.26V730.498C899.547 727.184 902.233 724.498 905.547 724.498H953.932ZM837.633 777.26C837.633 780.573 840.319 783.26 843.633 783.26H892.017C895.33 783.26 898.017 780.573 898.017 777.26V730.498C898.017 727.184 895.33 724.498 892.017 724.498H843.633C840.319 724.498 837.633 727.184 837.633 730.498V777.26ZM837.633 717.009C837.633 720.323 840.319 723.009 843.633 723.009H892.017C895.33 723.009 898.017 720.323 898.017 717.009V670.248C898.017 666.934 895.33 664.248 892.017 664.248H843.633C840.319 664.248 837.633 666.934 837.633 670.248V717.009ZM837.633 656.759C837.633 660.073 840.319 662.759 843.633 662.759H892.017C895.33 662.759 898.017 660.073 898.017 656.759V609.996C898.017 606.683 895.33 603.996 892.017 603.996H843.633C840.319 603.996 837.633 606.683 837.633 609.996V656.759ZM837.633 596.508C837.633 599.821 840.319 602.508 843.633 602.508H892.017C895.33 602.508 898.017 599.821 898.017 596.508V549.746C898.017 546.432 895.33 543.746 892.017 543.746H843.633C840.319 543.746 837.633 546.432 837.633 549.746V596.508ZM837.633 536.258C837.633 539.571 840.319 542.258 843.633 542.258H892.017C895.33 542.258 898.017 539.571 898.017 536.258V489.495C898.017 486.181 895.33 483.495 892.017 483.495H843.633C840.319 483.495 837.633 486.181 837.633 489.495V536.258ZM837.633 476.006C837.633 479.32 840.319 482.006 843.633 482.006H892.017C895.33 482.006 898.017 479.32 898.017 476.006V429.244C898.017 425.931 895.33 423.244 892.017 423.244H843.633C840.319 423.244 837.633 425.931 837.633 429.244V476.006ZM837.633 415.756C837.633 419.069 840.319 421.756 843.633 421.756H892.017C895.33 421.756 898.017 419.069 898.017 415.756L898.017 368.993C898.017 365.679 895.33 362.993 892.017 362.993H843.633C840.319 362.993 837.633 365.679 837.633 368.993L837.633 415.756ZM837.633 355.504C837.633 358.818 840.319 361.504 843.633 361.504H892.017C895.33 361.504 898.017 358.818 898.017 355.504V308.742C898.017 305.429 895.33 302.742 892.017 302.742H843.633C840.319 302.742 837.633 305.429 837.633 308.742V355.504ZM837.633 295.254C837.633 298.568 840.319 301.254 843.633 301.254H892.017C895.33 301.254 898.017 298.568 898.017 295.254V248.491C898.017 245.177 895.33 242.491 892.017 242.491H843.633C840.319 242.491 837.633 245.177 837.633 248.491V295.254ZM837.633 235.002C837.633 238.316 840.319 241.002 843.633 241.002H892.017C895.33 241.002 898.017 238.316 898.017 235.002V188.241C898.017 184.927 895.33 182.241 892.017 182.241H843.633C840.319 182.241 837.633 184.927 837.633 188.241V235.002ZM837.633 174.752C837.633 178.066 840.319 180.752 843.633 180.752H892.017C895.33 180.752 898.017 178.066 898.017 174.752V127.991C898.017 124.677 895.33 121.991 892.017 121.991H843.633C840.319 121.991 837.633 124.677 837.633 127.991V174.752ZM837.633 114.502C837.633 117.815 840.319 120.502 843.633 120.502H892.017C895.33 120.502 898.017 117.816 898.017 114.502V67.7388C898.017 64.4251 895.33 61.7388 892.017 61.7388H843.633C840.319 61.7388 837.633 64.4251 837.633 67.7388V114.502ZM830.103 61.7388C833.417 61.7388 836.103 64.4251 836.103 67.7388V114.502C836.103 117.815 833.417 120.502 830.103 120.502H781.717C778.404 120.502 775.717 117.816 775.717 114.502V67.7388C775.717 64.4251 778.404 61.7388 781.717 61.7388H830.103ZM830.103 121.991C833.417 121.991 836.103 124.677 836.103 127.991V174.752C836.103 178.066 833.417 180.752 830.103 180.752H781.717C778.404 180.752 775.717 178.066 775.717 174.752V127.991C775.717 124.677 778.404 121.991 781.717 121.991H830.103ZM830.103 182.241C833.417 182.241 836.103 184.927 836.103 188.241V235.002C836.103 238.316 833.417 241.002 830.103 241.002H781.717C778.404 241.002 775.717 238.316 775.717 235.002V188.241C775.717 184.927 778.404 182.241 781.717 182.241H830.103ZM830.103 242.491C833.417 242.491 836.103 245.177 836.103 248.491V295.254C836.103 298.568 833.417 301.254 830.103 301.254H781.717C778.404 301.254 775.717 298.568 775.717 295.254V248.491C775.717 245.177 778.404 242.491 781.717 242.491H830.103ZM830.103 302.742C833.417 302.742 836.103 305.429 836.103 308.742V355.504C836.103 358.818 833.417 361.504 830.103 361.504L781.717 361.504C778.404 361.504 775.717 358.818 775.717 355.504V308.742C775.717 305.429 778.404 302.742 781.717 302.742H830.103ZM830.103 362.993C833.417 362.993 836.103 365.679 836.103 368.993L836.103 415.756C836.103 419.069 833.417 421.756 830.103 421.756L781.717 421.756C778.404 421.756 775.717 419.069 775.717 415.756L775.717 368.993C775.717 365.679 778.404 362.993 781.717 362.993L830.103 362.993ZM830.103 423.244C833.417 423.244 836.103 425.931 836.103 429.244V476.006C836.103 479.32 833.417 482.006 830.103 482.006L781.717 482.006C778.404 482.006 775.717 479.32 775.717 476.006V429.244C775.717 425.931 778.404 423.244 781.717 423.244L830.103 423.244ZM830.103 483.495C833.417 483.495 836.103 486.181 836.103 489.495V536.258C836.103 539.571 833.417 542.258 830.103 542.258L781.717 542.258C778.404 542.258 775.717 539.571 775.717 536.258V489.495C775.717 486.181 778.404 483.495 781.717 483.495L830.103 483.495ZM830.103 543.746C833.417 543.746 836.103 546.432 836.103 549.746V596.508C836.103 599.821 833.417 602.508 830.103 602.508H781.717C778.404 602.508 775.717 599.821 775.717 596.508V549.746C775.717 546.432 778.404 543.746 781.717 543.746L830.103 543.746ZM830.103 603.996C833.417 603.996 836.103 606.683 836.103 609.996V656.759C836.103 660.073 833.417 662.759 830.103 662.759H781.717C778.404 662.759 775.717 660.073 775.717 656.759V609.996C775.717 606.683 778.404 603.996 781.717 603.996H830.103ZM830.103 664.248C833.417 664.248 836.103 666.934 836.103 670.248V717.009C836.103 720.323 833.417 723.009 830.103 723.009H781.717C778.404 723.009 775.717 720.323 775.717 717.009V670.248C775.717 666.934 778.404 664.248 781.717 664.248H830.103ZM830.103 724.498C833.417 724.498 836.103 727.184 836.103 730.498V777.26C836.103 780.573 833.417 783.26 830.103 783.26H781.717C778.404 783.26 775.717 780.573 775.717 777.26V730.498C775.717 727.184 778.404 724.498 781.717 724.498H830.103ZM713.803 777.26C713.803 780.573 716.49 783.26 719.803 783.26H768.187C771.501 783.26 774.187 780.573 774.187 777.26V730.498C774.187 727.184 771.501 724.498 768.187 724.498H719.803C716.49 724.498 713.803 727.184 713.803 730.498V777.26ZM713.803 717.009C713.803 720.323 716.49 723.009 719.803 723.009H768.187C771.501 723.009 774.187 720.323 774.187 717.009V670.248C774.187 666.934 771.501 664.248 768.187 664.248H719.803C716.49 664.248 713.803 666.934 713.803 670.248V717.009ZM713.803 656.759C713.803 660.073 716.49 662.759 719.803 662.759H768.187C771.501 662.759 774.187 660.073 774.187 656.759V609.996C774.187 606.683 771.501 603.996 768.187 603.996H719.803C716.49 603.996 713.803 606.683 713.803 609.996V656.759ZM713.803 596.508C713.803 599.821 716.49 602.508 719.803 602.508H768.187C771.501 602.508 774.187 599.821 774.187 596.508V549.746C774.187 546.432 771.501 543.746 768.187 543.746H719.803C716.49 543.746 713.803 546.432 713.803 549.746V596.508ZM713.803 536.258C713.803 539.571 716.49 542.258 719.803 542.258H768.187C771.501 542.258 774.187 539.571 774.187 536.258V489.495C774.187 486.181 771.501 483.495 768.187 483.495H719.803C716.49 483.495 713.803 486.181 713.803 489.495V536.258ZM713.803 476.006C713.803 479.32 716.49 482.006 719.803 482.006H768.187C771.501 482.006 774.187 479.32 774.187 476.006V429.244C774.187 425.931 771.501 423.244 768.187 423.244H719.803C716.49 423.244 713.803 425.931 713.803 429.244V476.006ZM713.803 415.756C713.803 419.069 716.49 421.756 719.803 421.756H768.187C771.501 421.756 774.187 419.069 774.187 415.756L774.187 368.993C774.187 365.679 771.501 362.993 768.187 362.993H719.803C716.49 362.993 713.803 365.679 713.803 368.993L713.803 415.756ZM713.803 355.504C713.803 358.818 716.49 361.504 719.803 361.504H768.187C771.501 361.504 774.187 358.818 774.187 355.504V308.742C774.187 305.429 771.501 302.742 768.187 302.742H719.803C716.49 302.742 713.803 305.429 713.803 308.742V355.504ZM713.803 295.254C713.803 298.568 716.49 301.254 719.803 301.254H768.187C771.501 301.254 774.187 298.568 774.187 295.254V248.491C774.187 245.177 771.501 242.491 768.187 242.491H719.803C716.49 242.491 713.803 245.177 713.803 248.491V295.254ZM713.803 235.002C713.803 238.316 716.49 241.002 719.803 241.002H768.187C771.501 241.002 774.187 238.316 774.187 235.002V188.241C774.187 184.927 771.501 182.241 768.187 182.241H719.803C716.49 182.241 713.803 184.927 713.803 188.241V235.002ZM713.803 174.752C713.803 178.066 716.49 180.752 719.803 180.752H768.187C771.501 180.752 774.187 178.066 774.187 174.752V127.991C774.187 124.677 771.501 121.991 768.187 121.991H719.803C716.49 121.991 713.803 124.677 713.803 127.991V174.752ZM713.803 114.502C713.803 117.815 716.49 120.502 719.803 120.502H768.187C771.501 120.502 774.187 117.816 774.187 114.502V67.7388C774.187 64.4251 771.501 61.7388 768.187 61.7388H719.803C716.49 61.7388 713.803 64.4251 713.803 67.7388V114.502ZM706.274 61.7388C709.587 61.7388 712.274 64.4251 712.274 67.7388V114.502C712.274 117.815 709.587 120.502 706.274 120.502H657.888C654.574 120.502 651.888 117.816 651.888 114.502V67.7388C651.888 64.4251 654.574 61.7388 657.888 61.7388H706.274ZM706.274 121.991C709.587 121.991 712.274 124.677 712.274 127.991V174.752C712.274 178.066 709.587 180.752 706.274 180.752H657.888C654.574 180.752 651.888 178.066 651.888 174.752V127.991C651.888 124.677 654.574 121.991 657.888 121.991H706.274ZM706.274 182.241C709.587 182.241 712.274 184.927 712.274 188.241V235.002C712.274 238.316 709.587 241.002 706.274 241.002H657.888C654.574 241.002 651.888 238.316 651.888 235.002V188.241C651.888 184.927 654.574 182.241 657.888 182.241H706.274ZM706.274 242.491C709.587 242.491 712.274 245.177 712.274 248.491V295.254C712.274 298.568 709.587 301.254 706.274 301.254H657.888C654.574 301.254 651.888 298.568 651.888 295.254V248.491C651.888 245.177 654.574 242.491 657.888 242.491H706.274ZM706.274 302.742C709.587 302.742 712.274 305.429 712.274 308.742V355.504C712.274 358.818 709.587 361.504 706.274 361.504H657.888C654.574 361.504 651.888 358.818 651.888 355.504V308.742C651.888 305.429 654.574 302.742 657.888 302.742H706.274ZM706.274 362.993C709.587 362.993 712.274 365.679 712.274 368.993L712.274 415.756C712.274 419.069 709.587 421.756 706.274 421.756H657.888C654.574 421.756 651.888 419.069 651.888 415.756L651.888 368.993C651.888 365.679 654.574 362.993 657.888 362.993H706.274ZM706.274 423.244C709.587 423.244 712.274 425.931 712.274 429.244V476.006C712.274 479.32 709.587 482.006 706.274 482.006H657.888C654.574 482.006 651.888 479.32 651.888 476.006V429.244C651.888 425.931 654.574 423.244 657.888 423.244H706.274ZM706.274 483.495C709.587 483.495 712.274 486.181 712.274 489.495V536.258C712.274 539.571 709.587 542.258 706.274 542.258H657.888C654.574 542.258 651.888 539.571 651.888 536.258V489.495C651.888 486.181 654.574 483.495 657.888 483.495H706.274ZM706.274 543.746C709.587 543.746 712.274 546.432 712.274 549.746V596.508C712.274 599.821 709.587 602.508 706.274 602.508H657.888C654.574 602.508 651.888 599.821 651.888 596.508V549.746C651.888 546.432 654.574 543.746 657.888 543.746H706.274ZM706.274 603.996C709.587 603.996 712.274 606.683 712.274 609.996V656.759C712.274 660.073 709.587 662.759 706.274 662.759H657.888C654.574 662.759 651.888 660.073 651.888 656.759V609.996C651.888 606.683 654.574 603.996 657.888 603.996H706.274ZM706.274 664.248C709.587 664.248 712.274 666.934 712.274 670.248V717.009C712.274 720.323 709.587 723.009 706.274 723.009H657.888C654.574 723.009 651.888 720.323 651.888 717.009V670.248C651.888 666.934 654.574 664.248 657.888 664.248H706.274ZM706.274 724.498C709.587 724.498 712.274 727.184 712.274 730.498V777.26C712.274 780.573 709.587 783.26 706.274 783.26H657.888C654.574 783.26 651.888 780.573 651.888 777.26V730.498C651.888 727.184 654.574 724.498 657.888 724.498H706.274ZM589.974 777.26C589.974 780.573 592.66 783.26 595.974 783.26H644.358C647.672 783.26 650.358 780.573 650.358 777.26V730.498C650.358 727.184 647.672 724.498 644.358 724.498H595.974C592.66 724.498 589.974 727.184 589.974 730.498V777.26ZM589.974 717.009C589.974 720.323 592.66 723.009 595.974 723.009H644.358C647.672 723.009 650.358 720.323 650.358 717.009V670.248C650.358 666.934 647.672 664.248 644.358 664.248H595.974C592.66 664.248 589.974 666.934 589.974 670.248V717.009ZM589.974 656.759C589.974 660.073 592.66 662.759 595.974 662.759H644.358C647.672 662.759 650.358 660.073 650.358 656.759V609.996C650.358 606.683 647.672 603.996 644.358 603.996H595.974C592.66 603.996 589.974 606.683 589.974 609.996V656.759ZM589.974 596.508C589.974 599.821 592.66 602.508 595.974 602.508H644.358C647.672 602.508 650.358 599.821 650.358 596.508V549.746C650.358 546.432 647.672 543.746 644.358 543.746H595.974C592.66 543.746 589.974 546.432 589.974 549.746V596.508ZM589.974 536.258C589.974 539.571 592.66 542.258 595.974 542.258H644.358C647.672 542.258 650.358 539.571 650.358 536.258V489.495C650.358 486.181 647.672 483.495 644.358 483.495H595.974C592.66 483.495 589.974 486.181 589.974 489.495V536.258ZM589.974 476.006C589.974 479.32 592.66 482.006 595.974 482.006H644.358C647.672 482.006 650.358 479.32 650.358 476.006V429.244C650.358 425.931 647.672 423.244 644.358 423.244H595.974C592.66 423.244 589.974 425.931 589.974 429.244V476.006ZM589.974 415.756C589.974 419.069 592.66 421.756 595.974 421.756H644.358C647.672 421.756 650.358 419.069 650.358 415.756L650.358 368.993C650.358 365.679 647.672 362.993 644.358 362.993H595.974C592.66 362.993 589.974 365.679 589.974 368.993L589.974 415.756ZM589.974 355.504C589.974 358.818 592.66 361.504 595.974 361.504H644.358C647.672 361.504 650.358 358.818 650.358 355.504V308.742C650.358 305.429 647.672 302.742 644.358 302.742H595.974C592.66 302.742 589.974 305.429 589.974 308.742V355.504ZM589.974 295.254C589.974 298.568 592.66 301.254 595.974 301.254H644.358C647.672 301.254 650.358 298.568 650.358 295.254V248.491C650.358 245.177 647.672 242.491 644.358 242.491H595.974C592.66 242.491 589.974 245.177 589.974 248.491V295.254ZM589.974 235.002C589.974 238.316 592.66 241.002 595.974 241.002H644.358C647.672 241.002 650.358 238.316 650.358 235.002V188.241C650.358 184.927 647.672 182.241 644.358 182.241H595.974C592.66 182.241 589.974 184.927 589.974 188.241V235.002ZM589.974 174.752C589.974 178.066 592.66 180.752 595.974 180.752H644.358C647.672 180.752 650.358 178.066 650.358 174.752V127.991C650.358 124.677 647.672 121.991 644.358 121.991H595.974C592.66 121.991 589.974 124.677 589.974 127.991V174.752ZM589.974 114.502C589.974 117.815 592.66 120.502 595.974 120.502H644.358C647.672 120.502 650.358 117.816 650.358 114.502V67.7388C650.358 64.4251 647.672 61.7388 644.358 61.7388H595.974C592.66 61.7388 589.974 64.4251 589.974 67.7388V114.502ZM582.444 61.7388C585.758 61.7388 588.444 64.4251 588.444 67.7388V114.502C588.444 117.815 585.758 120.502 582.444 120.502H534.059C530.745 120.502 528.059 117.816 528.059 114.502V67.7388C528.059 64.4251 530.745 61.7388 534.059 61.7388H582.444ZM582.444 121.991C585.758 121.991 588.444 124.677 588.444 127.991V174.752C588.444 178.066 585.758 180.752 582.444 180.752H534.059C530.745 180.752 528.059 178.066 528.059 174.752V127.991C528.059 124.677 530.745 121.991 534.059 121.991H582.444ZM582.444 182.241C585.758 182.241 588.444 184.927 588.444 188.241V235.002C588.444 238.316 585.758 241.002 582.444 241.002H534.059C530.745 241.002 528.059 238.316 528.059 235.002V188.241C528.059 184.927 530.745 182.241 534.059 182.241H582.444ZM582.444 242.491C585.758 242.491 588.444 245.177 588.444 248.491V295.254C588.444 298.568 585.758 301.254 582.444 301.254H534.059C530.745 301.254 528.059 298.568 528.059 295.254V248.491C528.059 245.177 530.745 242.491 534.059 242.491H582.444ZM582.444 302.742C585.758 302.742 588.444 305.429 588.444 308.742V355.504C588.444 358.818 585.758 361.504 582.444 361.504H534.059C530.745 361.504 528.059 358.818 528.059 355.504V308.742C528.059 305.429 530.745 302.742 534.059 302.742H582.444ZM582.444 362.993C585.758 362.993 588.444 365.679 588.444 368.993L588.444 415.756C588.444 419.069 585.758 421.756 582.444 421.756H534.059C530.745 421.756 528.059 419.069 528.059 415.756L528.059 368.993C528.059 365.679 530.745 362.993 534.059 362.993H582.444ZM582.444 423.244C585.758 423.244 588.444 425.931 588.444 429.244V476.006C588.444 479.32 585.758 482.006 582.444 482.006H534.059C530.745 482.006 528.059 479.32 528.059 476.006V429.244C528.059 425.931 530.745 423.244 534.059 423.244H582.444ZM582.444 483.495C585.758 483.495 588.444 486.181 588.444 489.495V536.258C588.444 539.571 585.758 542.258 582.444 542.258H534.059C530.745 542.258 528.059 539.571 528.059 536.258V489.495C528.059 486.181 530.745 483.495 534.059 483.495H582.444ZM582.444 543.746C585.758 543.746 588.444 546.432 588.444 549.746V596.508C588.444 599.821 585.758 602.508 582.444 602.508H534.059C530.745 602.508 528.059 599.821 528.059 596.508V549.746C528.059 546.432 530.745 543.746 534.059 543.746H582.444ZM582.444 603.996C585.758 603.996 588.444 606.683 588.444 609.996V656.759C588.444 660.073 585.758 662.759 582.444 662.759H534.059C530.745 662.759 528.059 660.073 528.059 656.759V609.996C528.059 606.683 530.745 603.996 534.059 603.996H582.444ZM582.444 664.248C585.758 664.248 588.444 666.934 588.444 670.248V717.009C588.444 720.323 585.758 723.009 582.444 723.009H534.059C530.745 723.009 528.059 720.323 528.059 717.009V670.248C528.059 666.934 530.745 664.248 534.059 664.248H582.444ZM582.444 724.498C585.758 724.498 588.444 727.184 588.444 730.498V777.26C588.444 780.573 585.758 783.26 582.444 783.26H534.059C530.745 783.26 528.059 780.573 528.059 777.26V730.498C528.059 727.184 530.745 724.498 534.059 724.498H582.444ZM466.145 777.26C466.145 780.573 468.831 783.26 472.145 783.26H520.529C523.843 783.26 526.529 780.573 526.529 777.26V730.498C526.529 727.184 523.843 724.498 520.529 724.498H472.145C468.831 724.498 466.145 727.184 466.145 730.498V777.26ZM466.145 717.009C466.145 720.323 468.831 723.009 472.145 723.009H520.529C523.843 723.009 526.529 720.323 526.529 717.009V670.248C526.529 666.934 523.843 664.248 520.529 664.248H472.145C468.831 664.248 466.145 666.934 466.145 670.248V717.009ZM466.145 656.759C466.145 660.073 468.831 662.759 472.145 662.759H520.529C523.843 662.759 526.529 660.073 526.529 656.759V609.996C526.529 606.683 523.843 603.996 520.529 603.996H472.145C468.831 603.996 466.145 606.683 466.145 609.996V656.759ZM466.145 596.508C466.145 599.821 468.831 602.508 472.145 602.508H520.529C523.843 602.508 526.529 599.821 526.529 596.508V549.746C526.529 546.432 523.843 543.746 520.529 543.746H472.145C468.831 543.746 466.145 546.432 466.145 549.746V596.508ZM466.145 536.258C466.145 539.571 468.831 542.258 472.145 542.258H520.529C523.843 542.258 526.529 539.571 526.529 536.258V489.495C526.529 486.181 523.843 483.495 520.529 483.495H472.145C468.831 483.495 466.145 486.181 466.145 489.495V536.258ZM466.145 476.006C466.145 479.32 468.831 482.006 472.145 482.006H520.529C523.843 482.006 526.529 479.32 526.529 476.006V429.244C526.529 425.931 523.843 423.244 520.529 423.244H472.145C468.831 423.244 466.145 425.931 466.145 429.244V476.006ZM466.145 415.756C466.145 419.069 468.831 421.756 472.145 421.756H520.529C523.843 421.756 526.529 419.069 526.529 415.756L526.529 368.993C526.529 365.679 523.843 362.993 520.529 362.993H472.145C468.831 362.993 466.145 365.679 466.145 368.993L466.145 415.756ZM466.145 355.504C466.145 358.818 468.831 361.504 472.145 361.504H520.529C523.843 361.504 526.529 358.818 526.529 355.504V308.742C526.529 305.429 523.843 302.742 520.529 302.742H472.145C468.831 302.742 466.145 305.429 466.145 308.742V355.504ZM466.145 295.254C466.145 298.568 468.831 301.254 472.145 301.254H520.529C523.843 301.254 526.529 298.568 526.529 295.254V248.491C526.529 245.177 523.843 242.491 520.529 242.491H472.145C468.831 242.491 466.145 245.177 466.145 248.491V295.254ZM466.145 235.002C466.145 238.316 468.831 241.002 472.145 241.002H520.529C523.843 241.002 526.529 238.316 526.529 235.002V188.241C526.529 184.927 523.843 182.241 520.529 182.241H472.145C468.831 182.241 466.145 184.927 466.145 188.241V235.002ZM466.145 174.752C466.145 178.066 468.831 180.752 472.145 180.752H520.529C523.843 180.752 526.529 178.066 526.529 174.752V127.991C526.529 124.677 523.843 121.991 520.529 121.991H472.145C468.831 121.991 466.145 124.677 466.145 127.991V174.752ZM466.145 114.502C466.145 117.815 468.831 120.502 472.145 120.502H520.529C523.843 120.502 526.529 117.816 526.529 114.502V67.7388C526.529 64.4251 523.843 61.7388 520.529 61.7388H472.145C468.831 61.7388 466.145 64.4251 466.145 67.7388V114.502ZM458.615 61.7388C461.929 61.7388 464.615 64.4251 464.615 67.7388V114.502C464.615 117.815 461.929 120.502 458.615 120.502H410.229C406.916 120.502 404.229 117.816 404.229 114.502V67.7388C404.229 64.4251 406.916 61.7388 410.229 61.7388H458.615ZM458.615 121.991C461.929 121.991 464.615 124.677 464.615 127.991V174.752C464.615 178.066 461.929 180.752 458.615 180.752H410.229C406.916 180.752 404.229 178.066 404.229 174.752V127.991C404.229 124.677 406.916 121.991 410.229 121.991H458.615ZM458.615 182.241C461.929 182.241 464.615 184.927 464.615 188.241V235.002C464.615 238.316 461.929 241.002 458.615 241.002H410.229C406.916 241.002 404.229 238.316 404.229 235.002V188.241C404.229 184.927 406.916 182.241 410.229 182.241H458.615ZM458.615 242.491C461.929 242.491 464.615 245.177 464.615 248.491V295.254C464.615 298.568 461.929 301.254 458.615 301.254H410.229C406.916 301.254 404.229 298.568 404.229 295.254V248.491C404.229 245.177 406.916 242.491 410.229 242.491H458.615ZM458.615 302.742C461.929 302.742 464.615 305.429 464.615 308.742V355.504C464.615 358.818 461.929 361.504 458.615 361.504H410.229C406.916 361.504 404.229 358.818 404.229 355.504V308.742C404.229 305.429 406.916 302.742 410.229 302.742H458.615ZM458.615 362.993C461.929 362.993 464.615 365.679 464.615 368.993V415.756C464.615 419.069 461.929 421.756 458.615 421.756H410.229C406.916 421.756 404.229 419.069 404.229 415.756V368.993C404.229 365.679 406.916 362.993 410.229 362.993H458.615ZM458.615 423.244C461.929 423.244 464.615 425.931 464.615 429.244V476.006C464.615 479.32 461.929 482.006 458.615 482.006H410.229C406.916 482.006 404.229 479.32 404.229 476.006V429.244C404.229 425.931 406.916 423.244 410.229 423.244H458.615ZM458.615 483.495C461.929 483.495 464.615 486.181 464.615 489.495V536.258C464.615 539.571 461.929 542.258 458.615 542.258H410.229C406.916 542.258 404.229 539.571 404.229 536.258V489.495C404.229 486.181 406.916 483.495 410.229 483.495H458.615ZM458.615 543.746C461.929 543.746 464.615 546.432 464.615 549.746V596.508C464.615 599.821 461.929 602.508 458.615 602.508H410.229C406.916 602.508 404.229 599.821 404.229 596.508V549.746C404.229 546.432 406.916 543.746 410.229 543.746H458.615ZM458.615 603.996C461.929 603.996 464.615 606.683 464.615 609.996V656.759C464.615 660.073 461.929 662.759 458.615 662.759H410.229C406.916 662.759 404.229 660.073 404.229 656.759V609.996C404.229 606.683 406.916 603.996 410.229 603.996H458.615ZM458.615 664.248C461.929 664.248 464.615 666.934 464.615 670.248V717.009C464.615 720.323 461.929 723.009 458.615 723.009H410.229C406.916 723.009 404.229 720.323 404.229 717.009V670.248C404.229 666.934 406.916 664.248 410.229 664.248H458.615ZM458.615 724.498C461.929 724.498 464.615 727.184 464.615 730.498V777.26C464.615 780.573 461.929 783.26 458.615 783.26H410.229C406.916 783.26 404.229 780.573 404.229 777.26V730.498C404.229 727.184 406.916 724.498 410.229 724.498H458.615ZM342.317 777.26C342.317 780.573 345.004 783.26 348.317 783.26H396.7C400.013 783.26 402.7 780.573 402.7 777.26V730.498C402.7 727.184 400.013 724.498 396.7 724.498H348.317C345.004 724.498 342.317 727.184 342.317 730.498V777.26ZM342.317 717.009C342.317 720.323 345.004 723.009 348.317 723.009H396.7C400.013 723.009 402.7 720.323 402.7 717.009V670.248C402.7 666.934 400.013 664.248 396.7 664.248H348.317C345.004 664.248 342.317 666.934 342.317 670.248V717.009ZM342.317 656.759C342.317 660.073 345.004 662.759 348.317 662.759H396.7C400.013 662.759 402.7 660.073 402.7 656.759V609.996C402.7 606.683 400.013 603.996 396.7 603.996H348.317C345.004 603.996 342.317 606.683 342.317 609.996V656.759ZM342.317 596.508C342.317 599.821 345.004 602.508 348.317 602.508H396.7C400.013 602.508 402.7 599.821 402.7 596.508V549.746C402.7 546.432 400.013 543.746 396.7 543.746H348.317C345.004 543.746 342.317 546.432 342.317 549.746V596.508ZM342.317 536.258C342.317 539.571 345.004 542.258 348.317 542.258H396.7C400.013 542.258 402.7 539.571 402.7 536.258V489.495C402.7 486.181 400.013 483.495 396.7 483.495H348.317C345.004 483.495 342.317 486.181 342.317 489.495V536.258ZM342.317 476.006C342.317 479.32 345.004 482.006 348.317 482.006H396.7C400.013 482.006 402.7 479.32 402.7 476.006V429.244C402.7 425.931 400.013 423.244 396.7 423.244H348.317C345.004 423.244 342.317 425.931 342.317 429.244V476.006ZM342.317 415.756C342.317 419.069 345.004 421.756 348.317 421.756H396.7C400.013 421.756 402.7 419.069 402.7 415.756V368.993C402.7 365.679 400.013 362.993 396.7 362.993H348.317C345.004 362.993 342.317 365.679 342.317 368.993V415.756ZM342.317 355.504C342.317 358.818 345.004 361.504 348.317 361.504H396.7C400.013 361.504 402.7 358.818 402.7 355.504V308.742C402.7 305.429 400.013 302.742 396.7 302.742H348.317C345.004 302.742 342.317 305.429 342.317 308.742V355.504ZM342.317 295.254C342.317 298.568 345.004 301.254 348.317 301.254H396.7C400.013 301.254 402.7 298.568 402.7 295.254V248.491C402.7 245.177 400.013 242.491 396.7 242.491H348.317C345.004 242.491 342.317 245.177 342.317 248.491V295.254ZM342.317 235.002C342.317 238.316 345.004 241.002 348.317 241.002H396.7C400.013 241.002 402.7 238.316 402.7 235.002V188.241C402.7 184.927 400.013 182.241 396.7 182.241H348.317C345.004 182.241 342.317 184.927 342.317 188.241V235.002ZM342.317 174.752C342.317 178.066 345.004 180.752 348.317 180.752H396.7C400.013 180.752 402.7 178.066 402.7 174.752V127.991C402.7 124.677 400.013 121.991 396.7 121.991H348.317C345.004 121.991 342.317 124.677 342.317 127.991V174.752ZM342.317 114.502C342.317 117.815 345.004 120.502 348.317 120.502H396.7C400.013 120.502 402.7 117.816 402.7 114.502V67.7388C402.7 64.4251 400.013 61.7388 396.7 61.7388H348.317C345.004 61.7388 342.317 64.4251 342.317 67.7388V114.502ZM334.787 61.7388C338.101 61.7388 340.787 64.4251 340.787 67.7388V114.502C340.787 117.815 338.101 120.502 334.787 120.502H286.402C283.088 120.502 280.402 117.816 280.402 114.502V67.7388C280.402 64.4251 283.088 61.7388 286.402 61.7388H334.787ZM334.787 121.991C338.101 121.991 340.787 124.677 340.787 127.991V174.752C340.787 178.066 338.101 180.752 334.787 180.752H286.402C283.088 180.752 280.402 178.066 280.402 174.752V127.991C280.402 124.677 283.088 121.991 286.402 121.991H334.787ZM334.787 182.241C338.101 182.241 340.787 184.927 340.787 188.241V235.002C340.787 238.316 338.101 241.002 334.787 241.002H286.402C283.088 241.002 280.402 238.316 280.402 235.002V188.241C280.402 184.927 283.088 182.241 286.402 182.241H334.787ZM334.787 242.491C338.101 242.491 340.787 245.177 340.787 248.491V295.254C340.787 298.568 338.101 301.254 334.787 301.254H286.402C283.088 301.254 280.402 298.568 280.402 295.254V248.491C280.402 245.177 283.088 242.491 286.402 242.491H334.787ZM334.787 302.742C338.101 302.742 340.787 305.429 340.787 308.742V355.504C340.787 358.818 338.101 361.504 334.787 361.504L286.402 361.504C283.088 361.504 280.402 358.818 280.402 355.504V308.742C280.402 305.429 283.088 302.742 286.402 302.742H334.787ZM334.787 362.993C338.101 362.993 340.787 365.679 340.787 368.993V415.756C340.787 419.069 338.101 421.756 334.787 421.756L286.402 421.756C283.088 421.756 280.402 419.069 280.402 415.756V368.993C280.402 365.679 283.088 362.993 286.402 362.993L334.787 362.993ZM334.787 423.244C338.101 423.244 340.787 425.931 340.787 429.244V476.006C340.787 479.32 338.101 482.006 334.787 482.006L286.402 482.006C283.088 482.006 280.402 479.32 280.402 476.006V429.244C280.402 425.931 283.088 423.244 286.402 423.244L334.787 423.244ZM334.787 483.495C338.101 483.495 340.787 486.181 340.787 489.495V536.258C340.787 539.571 338.101 542.258 334.787 542.258L286.402 542.258C283.088 542.258 280.402 539.571 280.402 536.258V489.495C280.402 486.181 283.088 483.495 286.402 483.495L334.787 483.495ZM334.787 543.746C338.101 543.746 340.787 546.432 340.787 549.746V596.508C340.787 599.821 338.101 602.508 334.787 602.508H286.402C283.088 602.508 280.402 599.821 280.402 596.508V549.746C280.402 546.432 283.088 543.746 286.402 543.746L334.787 543.746ZM334.787 603.996C338.101 603.996 340.787 606.683 340.787 609.996V656.759C340.787 660.073 338.101 662.759 334.787 662.759H286.402C283.088 662.759 280.402 660.073 280.402 656.759V609.996C280.402 606.683 283.088 603.996 286.402 603.996H334.787ZM334.787 664.248C338.101 664.248 340.787 666.934 340.787 670.248V717.009C340.787 720.323 338.101 723.009 334.787 723.009H286.402C283.088 723.009 280.402 720.323 280.402 717.009V670.248C280.402 666.934 283.088 664.248 286.402 664.248H334.787ZM334.787 724.498C338.101 724.498 340.787 727.184 340.787 730.498V777.26C340.787 780.573 338.101 783.26 334.787 783.26H286.402C283.088 783.26 280.402 780.573 280.402 777.26V730.498C280.402 727.184 283.088 724.498 286.402 724.498H334.787ZM218.488 777.26C218.488 780.573 221.174 783.26 224.488 783.26H272.872C276.186 783.26 278.872 780.573 278.872 777.26V730.498C278.872 727.184 276.186 724.498 272.872 724.498H224.488C221.174 724.498 218.488 727.184 218.488 730.498V777.26ZM218.488 717.009C218.488 720.323 221.174 723.009 224.488 723.009H272.872C276.186 723.009 278.872 720.323 278.872 717.009V670.248C278.872 666.934 276.186 664.248 272.872 664.248H224.488C221.174 664.248 218.488 666.934 218.488 670.248V717.009ZM218.488 656.759C218.488 660.073 221.174 662.759 224.488 662.759H272.872C276.186 662.759 278.872 660.073 278.872 656.759V609.996C278.872 606.683 276.186 603.996 272.872 603.996H224.488C221.174 603.996 218.488 606.683 218.488 609.996V656.759ZM218.488 596.508C218.488 599.821 221.174 602.508 224.488 602.508H272.872C276.186 602.508 278.872 599.821 278.872 596.508V549.746C278.872 546.432 276.186 543.746 272.872 543.746H224.488C221.174 543.746 218.488 546.432 218.488 549.746V596.508ZM218.488 536.258C218.488 539.571 221.174 542.258 224.488 542.258H272.872C276.186 542.258 278.872 539.571 278.872 536.258V489.495C278.872 486.181 276.186 483.495 272.872 483.495H224.488C221.174 483.495 218.488 486.181 218.488 489.495V536.258ZM218.488 476.006C218.488 479.32 221.174 482.006 224.488 482.006H272.872C276.186 482.006 278.872 479.32 278.872 476.006V429.244C278.872 425.931 276.186 423.244 272.872 423.244H224.488C221.174 423.244 218.488 425.931 218.488 429.244V476.006ZM218.488 415.756C218.488 419.069 221.174 421.756 224.488 421.756H272.872C276.186 421.756 278.872 419.069 278.872 415.756V368.993C278.872 365.679 276.186 362.993 272.872 362.993H224.488C221.174 362.993 218.488 365.679 218.488 368.993V415.756ZM218.488 355.504C218.488 358.818 221.174 361.504 224.488 361.504H272.872C276.186 361.504 278.872 358.818 278.872 355.504V308.742C278.872 305.429 276.186 302.742 272.872 302.742H224.488C221.174 302.742 218.488 305.429 218.488 308.742V355.504ZM218.488 295.254C218.488 298.568 221.174 301.254 224.488 301.254H272.872C276.186 301.254 278.872 298.568 278.872 295.254V248.491C278.872 245.177 276.186 242.491 272.872 242.491H224.488C221.174 242.491 218.488 245.177 218.488 248.491V295.254ZM218.488 235.002C218.488 238.316 221.174 241.002 224.488 241.002H272.872C276.186 241.002 278.872 238.316 278.872 235.002V188.241C278.872 184.927 276.186 182.241 272.872 182.241H224.488C221.174 182.241 218.488 184.927 218.488 188.241V235.002ZM218.488 174.752C218.488 178.066 221.174 180.752 224.488 180.752H272.872C276.186 180.752 278.872 178.066 278.872 174.752V127.991C278.872 124.677 276.186 121.991 272.872 121.991H224.488C221.174 121.991 218.488 124.677 218.488 127.991V174.752ZM218.488 114.502C218.488 117.815 221.174 120.502 224.488 120.502H272.872C276.186 120.502 278.872 117.816 278.872 114.502V67.7388C278.872 64.4251 276.186 61.7388 272.872 61.7388H224.488C221.174 61.7388 218.488 64.4251 218.488 67.7388V114.502ZM210.958 61.7388C214.272 61.7388 216.958 64.4251 216.958 67.7388V114.502C216.958 117.815 214.272 120.502 210.958 120.502H162.574C159.26 120.502 156.574 117.816 156.574 114.502V67.7388C156.574 64.4251 159.26 61.7388 162.574 61.7388H210.958ZM210.958 121.991C214.272 121.991 216.958 124.677 216.958 127.991V174.752C216.958 178.066 214.272 180.752 210.958 180.752H162.574C159.26 180.752 156.574 178.066 156.574 174.752V127.991C156.574 124.677 159.26 121.991 162.574 121.991H210.958ZM210.958 182.241C214.272 182.241 216.958 184.927 216.958 188.241V235.002C216.958 238.316 214.272 241.002 210.958 241.002H162.574C159.26 241.002 156.574 238.316 156.574 235.002V188.241C156.574 184.927 159.26 182.241 162.574 182.241H210.958ZM210.958 242.491C214.272 242.491 216.958 245.177 216.958 248.491V295.254C216.958 298.568 214.272 301.254 210.958 301.254H162.574C159.26 301.254 156.574 298.568 156.574 295.254V248.491C156.574 245.177 159.26 242.491 162.574 242.491H210.958ZM210.958 302.742C214.272 302.742 216.958 305.429 216.958 308.742V355.504C216.958 358.818 214.272 361.504 210.958 361.504H162.574C159.26 361.504 156.574 358.818 156.574 355.504V308.742C156.574 305.429 159.26 302.742 162.574 302.742H210.958ZM210.958 362.993C214.272 362.993 216.958 365.679 216.958 368.993V415.756C216.958 419.069 214.272 421.756 210.958 421.756H162.574C159.26 421.756 156.574 419.069 156.574 415.756V368.993C156.574 365.679 159.26 362.993 162.574 362.993H210.958ZM210.958 423.244C214.272 423.244 216.958 425.931 216.958 429.244V476.006C216.958 479.32 214.272 482.006 210.958 482.006H162.574C159.26 482.006 156.574 479.32 156.574 476.006V429.244C156.574 425.931 159.26 423.244 162.574 423.244H210.958ZM210.958 483.495C214.272 483.495 216.958 486.181 216.958 489.495V536.258C216.958 539.571 214.272 542.258 210.958 542.258H162.574C159.26 542.258 156.574 539.571 156.574 536.258V489.495C156.574 486.181 159.26 483.495 162.574 483.495H210.958ZM210.958 543.746C214.272 543.746 216.958 546.432 216.958 549.746V596.508C216.958 599.821 214.272 602.508 210.958 602.508H162.574C159.26 602.508 156.574 599.821 156.574 596.508V549.746C156.574 546.432 159.26 543.746 162.574 543.746H210.958ZM210.958 603.996C214.272 603.996 216.958 606.683 216.958 609.996V656.759C216.958 660.073 214.272 662.759 210.958 662.759H162.574C159.26 662.759 156.574 660.073 156.574 656.759V609.996C156.574 606.683 159.26 603.996 162.574 603.996H210.958ZM210.958 664.248C214.272 664.248 216.958 666.934 216.958 670.248V717.009C216.958 720.323 214.272 723.009 210.958 723.009H162.574C159.26 723.009 156.574 720.323 156.574 717.009V670.248C156.574 666.934 159.26 664.248 162.574 664.248H210.958ZM210.958 724.498C214.272 724.498 216.958 727.184 216.958 730.498V777.26C216.958 780.573 214.272 783.26 210.958 783.26H162.574C159.26 783.26 156.574 780.573 156.574 777.26V730.498C156.574 727.184 159.26 724.498 162.574 724.498H210.958ZM94.6587 777.26C94.6587 780.573 97.345 783.26 100.659 783.26L149.044 783.26C152.358 783.26 155.044 780.573 155.044 777.26V730.498C155.044 727.184 152.358 724.498 149.044 724.498H100.659C97.345 724.498 94.6587 727.184 94.6587 730.498V777.26ZM94.6587 717.009C94.6587 720.323 97.345 723.009 100.659 723.009H149.044C152.358 723.009 155.044 720.323 155.044 717.009V670.248C155.044 666.934 152.358 664.248 149.044 664.248H100.659C97.345 664.248 94.6587 666.934 94.6587 670.248V717.009ZM94.6587 656.759C94.6587 660.073 97.345 662.759 100.659 662.759H149.044C152.358 662.759 155.044 660.073 155.044 656.759V609.996C155.044 606.683 152.358 603.996 149.044 603.996H100.659C97.345 603.996 94.6587 606.683 94.6587 609.996V656.759ZM94.6587 596.508C94.6587 599.821 97.345 602.508 100.659 602.508H149.044C152.358 602.508 155.044 599.821 155.044 596.508V549.746C155.044 546.432 152.358 543.746 149.044 543.746H100.659C97.345 543.746 94.6587 546.432 94.6587 549.746V596.508ZM94.6587 536.258C94.6587 539.571 97.345 542.258 100.659 542.258H149.044C152.358 542.258 155.044 539.571 155.044 536.258V489.495C155.044 486.181 152.358 483.495 149.044 483.495H100.659C97.345 483.495 94.6587 486.181 94.6587 489.495V536.258ZM94.6587 476.006C94.6587 479.32 97.345 482.006 100.659 482.006H149.044C152.358 482.006 155.044 479.32 155.044 476.006V429.244C155.044 425.931 152.358 423.244 149.044 423.244H100.659C97.345 423.244 94.6587 425.931 94.6587 429.244V476.006ZM94.6587 415.756C94.6587 419.069 97.345 421.756 100.659 421.756H149.044C152.358 421.756 155.044 419.069 155.044 415.756V368.993C155.044 365.679 152.358 362.993 149.044 362.993H100.659C97.345 362.993 94.6587 365.679 94.6587 368.993V415.756ZM94.6587 355.504C94.6587 358.818 97.345 361.504 100.659 361.504H149.044C152.358 361.504 155.044 358.818 155.044 355.504V308.742C155.044 305.429 152.358 302.742 149.044 302.742H100.659C97.345 302.742 94.6587 305.429 94.6587 308.742V355.504ZM94.6587 295.254C94.6587 298.568 97.345 301.254 100.659 301.254H149.044C152.358 301.254 155.044 298.568 155.044 295.254V248.491C155.044 245.177 152.358 242.491 149.044 242.491H100.659C97.345 242.491 94.6587 245.177 94.6587 248.491V295.254ZM94.6587 235.002C94.6587 238.316 97.345 241.002 100.659 241.002H149.044C152.358 241.002 155.044 238.316 155.044 235.002V188.241C155.044 184.927 152.358 182.241 149.044 182.241H100.659C97.345 182.241 94.6587 184.927 94.6587 188.241V235.002ZM94.6587 174.752C94.6587 178.066 97.345 180.752 100.659 180.752H149.044C152.358 180.752 155.044 178.066 155.044 174.752V127.991C155.044 124.677 152.358 121.991 149.044 121.991H100.659C97.345 121.991 94.6587 124.677 94.6587 127.991V174.752ZM94.6587 114.502C94.6587 117.815 97.345 120.502 100.659 120.502H149.044C152.358 120.502 155.044 117.816 155.044 114.502V67.7388C155.044 64.4251 152.358 61.7388 149.044 61.7388H100.659C97.345 61.7388 94.6587 64.4251 94.6587 67.7388V114.502ZM87.1288 61.7388C90.4425 61.7388 93.1288 64.4251 93.1288 67.7388V114.502C93.1288 117.815 90.4425 120.502 87.1288 120.502H38.7449C35.4312 120.502 32.7449 117.816 32.7449 114.502V67.7388C32.7449 64.4251 35.4312 61.7388 38.7449 61.7388H87.1288ZM87.1288 121.991C90.4425 121.991 93.1288 124.677 93.1288 127.991V174.752C93.1288 178.066 90.4425 180.752 87.1288 180.752H38.7449C35.4312 180.752 32.7449 178.066 32.7449 174.752V127.991C32.7449 124.677 35.4312 121.991 38.7449 121.991H87.1288ZM87.1288 182.241C90.4425 182.241 93.1288 184.927 93.1288 188.241V235.002C93.1288 238.316 90.4425 241.002 87.1288 241.002H38.7449C35.4312 241.002 32.7449 238.316 32.7449 235.002V188.241C32.7449 184.927 35.4312 182.241 38.7449 182.241H87.1288ZM87.1288 242.491C90.4425 242.491 93.1288 245.177 93.1288 248.491V295.254C93.1288 298.568 90.4425 301.254 87.1288 301.254H38.7449C35.4312 301.254 32.7449 298.568 32.7449 295.254V248.491C32.7449 245.177 35.4312 242.491 38.7449 242.491H87.1288ZM87.1288 302.742C90.4425 302.742 93.1288 305.429 93.1288 308.742V355.504C93.1288 358.818 90.4425 361.504 87.1288 361.504H38.7449C35.4312 361.504 32.7449 358.818 32.7449 355.504V308.742C32.7449 305.429 35.4312 302.742 38.7449 302.742H87.1288ZM87.1288 362.993C90.4425 362.993 93.1288 365.679 93.1288 368.993V415.756C93.1288 419.069 90.4425 421.756 87.1288 421.756H38.7449C35.4312 421.756 32.7449 419.069 32.7449 415.756V368.993C32.7449 365.679 35.4312 362.993 38.7449 362.993H87.1288ZM87.1288 423.244C90.4425 423.244 93.1288 425.931 93.1288 429.244V476.006C93.1288 479.32 90.4425 482.006 87.1288 482.006H38.7449C35.4312 482.006 32.7449 479.32 32.7449 476.006V429.244C32.7449 425.931 35.4312 423.244 38.7449 423.244H87.1288ZM87.1288 483.495C90.4425 483.495 93.1288 486.181 93.1288 489.495V536.258C93.1288 539.571 90.4425 542.258 87.1288 542.258H38.7449C35.4312 542.258 32.7449 539.571 32.7449 536.258V489.495C32.7449 486.181 35.4312 483.495 38.7449 483.495H87.1288ZM87.1288 543.746C90.4425 543.746 93.1288 546.432 93.1288 549.746V596.508C93.1288 599.821 90.4425 602.508 87.1288 602.508H38.7449C35.4312 602.508 32.7449 599.821 32.7449 596.508V549.746C32.7449 546.432 35.4312 543.746 38.7449 543.746H87.1288ZM87.1288 603.996C90.4425 603.996 93.1288 606.683 93.1288 609.996V656.759C93.1288 660.073 90.4425 662.759 87.1288 662.759H38.7449C35.4312 662.759 32.7449 660.073 32.7449 656.759V609.996C32.7449 606.683 35.4312 603.996 38.7449 603.996H87.1288ZM87.1288 664.248C90.4425 664.248 93.1288 666.934 93.1288 670.248V717.009C93.1288 720.323 90.4425 723.009 87.1288 723.009H38.7449C35.4312 723.009 32.7449 720.323 32.7449 717.009V670.248C32.7449 666.934 35.4312 664.248 38.7449 664.248H87.1288ZM87.1288 724.498C90.4425 724.498 93.1288 727.184 93.1288 730.498V777.26C93.1288 780.573 90.4425 783.26 87.1288 783.26H38.7449C35.4312 783.26 32.7449 780.573 32.7449 777.26V730.498C32.7449 727.184 35.4312 724.498 38.7449 724.498H87.1288ZM-29.1707 777.26C-29.1707 780.573 -26.4844 783.26 -23.1707 783.26H25.215C28.5287 783.26 31.215 780.573 31.215 777.26V730.498C31.215 727.184 28.5287 724.498 25.215 724.498H-23.1707C-26.4844 724.498 -29.1707 727.184 -29.1707 730.498V777.26ZM-29.1707 717.009C-29.1707 720.323 -26.4844 723.009 -23.1707 723.009H25.215C28.5287 723.009 31.215 720.323 31.215 717.009V670.248C31.215 666.934 28.5287 664.248 25.215 664.248H-23.1707C-26.4844 664.248 -29.1707 666.934 -29.1707 670.248V717.009ZM-29.1707 656.759C-29.1707 660.073 -26.4844 662.759 -23.1707 662.759H25.215C28.5287 662.759 31.215 660.073 31.215 656.759V609.996C31.215 606.683 28.5287 603.996 25.215 603.996H-23.1707C-26.4844 603.996 -29.1707 606.683 -29.1707 609.996V656.759ZM-29.1707 596.508C-29.1707 599.821 -26.4844 602.508 -23.1707 602.508H25.215C28.5287 602.508 31.215 599.821 31.215 596.508V549.746C31.215 546.432 28.5287 543.746 25.215 543.746H-23.1707C-26.4844 543.746 -29.1707 546.432 -29.1707 549.746V596.508ZM-29.1707 536.258C-29.1707 539.571 -26.4844 542.258 -23.1707 542.258H25.215C28.5287 542.258 31.215 539.571 31.215 536.258V489.495C31.215 486.181 28.5287 483.495 25.215 483.495H-23.1707C-26.4844 483.495 -29.1707 486.181 -29.1707 489.495V536.258ZM-29.1707 476.006C-29.1707 479.32 -26.4844 482.006 -23.1707 482.006H25.215C28.5287 482.006 31.215 479.32 31.215 476.006V429.244C31.215 425.931 28.5287 423.244 25.215 423.244H-23.1707C-26.4844 423.244 -29.1707 425.931 -29.1707 429.244V476.006ZM-29.1707 415.756C-29.1707 419.069 -26.4844 421.756 -23.1707 421.756H25.215C28.5287 421.756 31.215 419.069 31.215 415.756V368.993C31.215 365.679 28.5287 362.993 25.215 362.993H-23.1707C-26.4844 362.993 -29.1707 365.679 -29.1707 368.993V415.756ZM-29.1707 355.504C-29.1707 358.818 -26.4844 361.504 -23.1707 361.504H25.215C28.5287 361.504 31.215 358.818 31.215 355.504V308.742C31.215 305.429 28.5287 302.742 25.215 302.742H-23.1707C-26.4844 302.742 -29.1707 305.429 -29.1707 308.742V355.504ZM-29.1707 295.254C-29.1707 298.568 -26.4844 301.254 -23.1707 301.254H25.215C28.5287 301.254 31.215 298.568 31.215 295.254V248.491C31.215 245.177 28.5287 242.491 25.215 242.491H-23.1707C-26.4844 242.491 -29.1707 245.177 -29.1707 248.491V295.254ZM-29.1707 235.002C-29.1707 238.316 -26.4844 241.002 -23.1707 241.002H25.215C28.5287 241.002 31.215 238.316 31.215 235.002V188.241C31.215 184.927 28.5287 182.241 25.215 182.241H-23.1707C-26.4844 182.241 -29.1707 184.927 -29.1707 188.241V235.002ZM-29.1707 174.752C-29.1707 178.066 -26.4844 180.752 -23.1707 180.752H25.215C28.5287 180.752 31.215 178.066 31.215 174.752V127.991C31.215 124.677 28.5287 121.991 25.215 121.991H-23.1707C-26.4844 121.991 -29.1707 124.677 -29.1707 127.991V174.752ZM-29.1707 114.502C-29.1707 117.815 -26.4844 120.502 -23.1707 120.502H25.215C28.5287 120.502 31.215 117.816 31.215 114.502V67.7388C31.215 64.4251 28.5287 61.7388 25.215 61.7388H-23.1707C-26.4844 61.7388 -29.1707 64.4251 -29.1707 67.7388V114.502ZM-36.7004 61.7388C-33.3867 61.7388 -30.7004 64.4251 -30.7004 67.7388V114.502C-30.7004 117.815 -33.3867 120.502 -36.7004 120.502H-85.0891C-88.4028 120.502 -91.0891 117.816 -91.0891 114.502V67.7388C-91.0891 64.4251 -88.4028 61.7388 -85.0891 61.7388H-36.7004ZM-36.7004 121.991C-33.3867 121.991 -30.7004 124.677 -30.7004 127.991V174.752C-30.7004 178.066 -33.3867 180.752 -36.7004 180.752H-85.0891C-88.4028 180.752 -91.0891 178.066 -91.0891 174.752V127.991C-91.0891 124.677 -88.4028 121.991 -85.0891 121.991H-36.7004ZM-36.7004 182.241C-33.3867 182.241 -30.7004 184.927 -30.7004 188.241V235.002C-30.7004 238.316 -33.3867 241.002 -36.7004 241.002H-85.0891C-88.4028 241.002 -91.0891 238.316 -91.0891 235.002V188.241C-91.0891 184.927 -88.4028 182.241 -85.0891 182.241H-36.7004ZM-36.7004 242.491C-33.3867 242.491 -30.7004 245.177 -30.7004 248.491V295.254C-30.7004 298.568 -33.3867 301.254 -36.7004 301.254H-85.0891C-88.4028 301.254 -91.0891 298.568 -91.0891 295.254V248.491C-91.0891 245.177 -88.4028 242.491 -85.0891 242.491H-36.7004ZM-36.7004 302.742C-33.3867 302.742 -30.7004 305.429 -30.7004 308.742V355.504C-30.7004 358.818 -33.3867 361.504 -36.7004 361.504H-85.0891C-88.4028 361.504 -91.0891 358.818 -91.0891 355.504V308.742C-91.0891 305.429 -88.4028 302.742 -85.0891 302.742H-36.7004ZM-36.7004 362.993C-33.3867 362.993 -30.7004 365.679 -30.7004 368.993V415.756C-30.7004 419.069 -33.3867 421.756 -36.7004 421.756H-85.0891C-88.4028 421.756 -91.0891 419.069 -91.0891 415.756V368.993C-91.0891 365.679 -88.4028 362.993 -85.0891 362.993H-36.7004ZM-36.7004 423.244C-33.3867 423.244 -30.7004 425.931 -30.7004 429.244V476.006C-30.7004 479.32 -33.3867 482.006 -36.7004 482.006H-85.0891C-88.4028 482.006 -91.0891 479.32 -91.0891 476.006V429.244C-91.0891 425.931 -88.4028 423.244 -85.0891 423.244H-36.7004ZM-36.7004 483.495C-33.3867 483.495 -30.7004 486.181 -30.7004 489.495V536.258C-30.7004 539.571 -33.3867 542.258 -36.7004 542.258H-85.0891C-88.4028 542.258 -91.0891 539.571 -91.0891 536.258V489.495C-91.0891 486.181 -88.4028 483.495 -85.0891 483.495H-36.7004ZM-36.7004 543.746C-33.3867 543.746 -30.7004 546.432 -30.7004 549.746V596.508C-30.7004 599.821 -33.3867 602.508 -36.7004 602.508H-85.0891C-88.4028 602.508 -91.0891 599.821 -91.0891 596.508V549.746C-91.0891 546.432 -88.4028 543.746 -85.0891 543.746H-36.7004ZM-36.7004 603.996C-33.3867 603.996 -30.7004 606.683 -30.7004 609.996V656.759C-30.7004 660.073 -33.3867 662.759 -36.7004 662.759H-85.0891C-88.4028 662.759 -91.0891 660.073 -91.0891 656.759V609.996C-91.0891 606.683 -88.4028 603.996 -85.0891 603.996H-36.7004ZM-36.7004 664.248C-33.3867 664.248 -30.7004 666.934 -30.7004 670.248V717.009C-30.7004 720.323 -33.3867 723.009 -36.7004 723.009H-85.0891C-88.4028 723.009 -91.0891 720.323 -91.0891 717.009V670.248C-91.0891 666.934 -88.4028 664.248 -85.0891 664.248H-36.7004ZM-36.7004 724.498C-33.3867 724.498 -30.7004 727.184 -30.7004 730.498V777.26C-30.7004 780.573 -33.3867 783.26 -36.7004 783.26H-85.0891C-88.4028 783.26 -91.0891 780.573 -91.0891 777.26V730.498C-91.0891 727.184 -88.4028 724.498 -85.0891 724.498H-36.7004Z" fill="url(#paint0_radial_407_19184)" fill-opacity="0.03"/>
<defs>
<radialGradient id="paint0_radial_407_19184" cx="0" cy="0" r="1" gradientUnits="userSpaceOnUse" gradientTransform="translate(-69.2584 69.1363) rotate(30.2283) scale(1199.32 4011.05)">
<stop stop-color="#212121"/>
<stop offset="1" stop-color="#212121" stop-opacity="0.1"/>
</radialGradient>
</defs>
</svg>
