<?xml version="1.0" encoding="UTF-8"?>
<svg xmlns="http://www.w3.org/2000/svg" width="720" height="400" viewBox="0 0 720 400" fill="none">
  <rect x="418" y="33" width="251" height="255.922" rx="8" fill="#EDEEF0"></rect>
  <path d="M543.429 132.951C545.117 132.951 546.486 134.32 546.486 136.008V158.427H568.905C570.593 158.427 571.962 159.796 571.962 161.484C571.962 163.173 570.593 164.541 568.905 164.541H546.486V186.96C546.486 188.649 545.117 190.017 543.429 190.017C541.741 190.017 540.372 188.649 540.372 186.96V164.541H517.953C516.265 164.541 514.896 163.173 514.896 161.484C514.896 159.796 516.265 158.427 517.953 158.427H540.372V136.008C540.372 134.32 541.741 132.951 543.429 132.951Z" fill="#DADDE1"></path>
  <g filter="url(#filter0_d_8295_67844)">
    <g clip-path="url(#clip0_8295_67844)">
      <rect x="48" y="33" width="321.726" height="253.082" rx="8" fill="white"></rect>
      <path d="M60.1634 53.0002C60.1634 49.1675 63.2704 46.0605 67.103 46.0605C70.9357 46.0605 74.0427 49.1675 74.0427 53.0002C74.0427 56.8329 70.9357 59.9399 67.103 59.9399C63.2704 59.9399 60.1634 56.8329 60.1634 53.0002ZM67.103 47.0761C63.8313 47.0761 61.179 49.7284 61.179 53.0002C61.179 56.272 63.8313 58.9243 67.103 58.9243C70.3748 58.9243 73.0271 56.272 73.0271 53.0002C73.0271 49.7284 70.3748 47.0761 67.103 47.0761ZM66.6014 57.164C66.6014 57.4514 66.8345 57.6845 67.1219 57.6845C67.4094 57.6845 67.6424 57.4514 67.6424 57.164V56.4148C68.633 56.2064 69.4279 55.4803 69.4279 54.4735C69.4279 54.1853 69.3696 53.9183 69.2301 53.6688C69.0946 53.4265 68.9008 53.2338 68.6823 53.0635C68.2775 52.748 67.9096 52.6318 67.5036 52.5034C67.4436 52.4845 67.3827 52.4652 67.3208 52.445C67.2055 52.4075 67.0875 52.3777 66.9888 52.3528L66.9359 52.3394C66.8203 52.3099 66.7249 52.2833 66.6334 52.2478C66.5283 52.2071 66.3994 52.1401 66.2869 52.0761C66.2329 52.0454 66.1868 52.0177 66.1545 51.9979L66.1262 51.9804C65.9906 51.8718 65.922 51.7842 65.8835 51.7097C65.8449 51.6349 65.8193 51.5396 65.8193 51.389C65.8193 50.9811 66.2621 50.4623 67.1109 50.4293C67.1178 50.4292 67.1247 50.4289 67.1315 50.4286C67.1493 50.428 67.1673 50.4277 67.1855 50.4276C67.6675 50.4512 67.9616 50.5759 68.14 50.6932C68.3208 50.812 68.4138 50.9435 68.4657 51.0268C68.6178 51.2707 68.9388 51.3452 69.1827 51.1932C69.4267 51.0411 69.5012 50.7201 69.3491 50.4762C69.2507 50.3182 69.0617 50.0533 68.7117 49.8233C68.4366 49.6425 68.0809 49.4955 67.6236 49.4261L67.6237 48.8364C67.6237 48.549 67.3907 48.316 67.1032 48.3159C66.8158 48.3159 66.5827 48.5489 66.5827 48.8364L66.5827 49.4521C65.5977 49.6643 64.7783 50.3786 64.7783 51.389C64.7783 51.6672 64.8279 51.9338 64.9584 52.1869C65.0874 52.4369 65.2774 52.6388 65.5051 52.8162L65.5235 52.8305L65.5431 52.8432L65.5438 52.8436L65.545 52.8444L65.549 52.847L65.5626 52.8556C65.574 52.8628 65.5901 52.8729 65.6102 52.8852C65.6501 52.9096 65.7062 52.9433 65.772 52.9808C65.8991 53.0531 66.0804 53.1499 66.2572 53.2184C66.41 53.2776 66.5558 53.3167 66.6782 53.3479L66.7428 53.3643C66.8412 53.3893 66.9195 53.4091 66.9982 53.4348C67.0697 53.458 67.1353 53.4791 67.196 53.4985C67.6053 53.6298 67.7924 53.6898 68.0424 53.8846C68.1998 54.0073 68.2785 54.0999 68.3216 54.1769C68.3606 54.2467 68.3869 54.3329 68.3869 54.4735C68.3869 54.8983 67.9609 55.409 67.1067 55.4341C67.0925 55.4345 67.0488 55.4348 67.0209 55.4349C66.5388 55.4114 66.2447 55.2866 66.0663 55.1694C65.8854 55.0505 65.7924 54.9191 65.7405 54.8358C65.5885 54.5918 65.2674 54.5173 65.0235 54.6694C64.7796 54.8214 64.7051 55.1424 64.8571 55.3864C64.9555 55.5443 65.1445 55.8092 65.4946 56.0393C65.7734 56.2225 66.1351 56.371 66.6014 56.4393V57.164ZM65.8251 52.4057L65.5431 52.8432C65.5431 52.8432 65.543 52.8431 65.8251 52.4057Z" fill="#21232C"></path>
      <path d="M80.9592 57V48.8306H82.4457V55.7509H85.8184V57H80.9592ZM89.5687 57.1499C87.8699 57.1499 86.5458 55.9757 86.5458 53.9271C86.5458 51.9285 87.9448 50.7043 89.3813 50.7043C91.0427 50.7043 91.9421 51.9035 91.9421 53.6273C91.9421 53.9271 91.9171 54.152 91.8671 54.3768H87.9948C88.1447 55.4011 88.7942 56.0007 89.7686 56.0007C90.2932 56.0007 90.7679 55.8508 91.1926 55.576L91.6922 56.5003C91.1176 56.9251 90.3681 57.1499 89.5687 57.1499ZM87.9948 53.2776H90.643C90.643 52.3782 90.2182 51.8536 89.4188 51.8536C88.7193 51.8536 88.1197 52.3532 87.9948 53.2776ZM94.6414 57.1499C93.5671 57.1499 92.8176 56.4254 92.8176 55.3511C92.8176 54.0021 93.8919 53.3275 96.4151 53.0527C96.3902 52.4282 96.1403 51.9035 95.3159 51.9035C94.7163 51.9035 94.1417 52.1533 93.5921 52.4781L93.0675 51.5038C93.742 51.0791 94.6164 50.7043 95.5907 50.7043C97.1147 50.7043 97.8891 51.6537 97.8891 53.365V57H96.69L96.565 56.3255H96.5151C95.9655 56.8001 95.3659 57.1499 94.6414 57.1499ZM95.0911 55.9757C95.5907 55.9757 95.9655 55.7758 96.4151 55.3511V54.052C94.7413 54.2519 94.2416 54.6266 94.2416 55.2512C94.2416 55.7758 94.5914 55.9757 95.0911 55.9757ZM101.744 57.1499C100.208 57.1499 99.221 55.9632 99.221 53.9396C99.221 51.9285 100.47 50.7043 101.819 50.7043C102.506 50.7043 102.943 50.9667 103.418 51.3789L103.356 50.3921V48.1811H104.83V57H103.63L103.518 56.338H103.468C103.018 56.7876 102.394 57.1499 101.744 57.1499ZM102.107 55.9257C102.569 55.9257 102.968 55.7259 103.356 55.2512V52.4282C102.943 52.0534 102.544 51.9285 102.132 51.9285C101.37 51.9285 100.732 52.653 100.732 53.9146C100.732 55.2387 101.232 55.9257 102.107 55.9257ZM109.147 59.4108V50.8542H110.359L110.471 51.5038H110.509C111.033 51.0666 111.683 50.7043 112.357 50.7043C113.881 50.7043 114.768 51.941 114.768 53.8397C114.768 55.9382 113.519 57.1499 112.157 57.1499C111.608 57.1499 111.071 56.9001 110.583 56.4754L110.633 57.4997V59.4108H109.147ZM111.833 55.9257C112.632 55.9257 113.257 55.2262 113.257 53.8522C113.257 52.6405 112.857 51.9285 111.945 51.9285C111.508 51.9285 111.096 52.1409 110.633 52.603V55.4386C111.058 55.8008 111.483 55.9257 111.833 55.9257ZM118.833 57.1499C117.134 57.1499 115.81 55.9757 115.81 53.9271C115.81 51.9285 117.209 50.7043 118.646 50.7043C120.307 50.7043 121.207 51.9035 121.207 53.6273C121.207 53.9271 121.182 54.152 121.132 54.3768H117.259C117.409 55.4011 118.059 56.0007 119.033 56.0007C119.558 56.0007 120.032 55.8508 120.457 55.576L120.957 56.5003C120.382 56.9251 119.633 57.1499 118.833 57.1499ZM117.259 53.2776H119.907C119.907 52.3782 119.483 51.8536 118.683 51.8536C117.984 51.8536 117.384 52.3532 117.259 53.2776ZM122.553 57V50.8542H123.765L123.877 51.9535H123.915C124.365 51.154 125.014 50.7043 125.664 50.7043C125.976 50.7043 126.176 50.7543 126.363 50.8293L126.063 52.0909C125.876 52.0409 125.726 52.0159 125.476 52.0159C124.989 52.0159 124.402 52.3407 124.04 53.2776V57H122.553ZM127.512 57V52.0284H126.688V50.9292L127.512 50.8542V50.2547C127.512 48.9805 128.099 48.0312 129.561 48.0312C130.01 48.0312 130.435 48.1436 130.697 48.2435L130.398 49.3053C130.173 49.2429 129.96 49.2054 129.76 49.2054C129.248 49.2054 128.986 49.5302 128.986 50.2297V50.8542H130.173V52.0284H128.986V57H127.512ZM133.652 57.1499C132.116 57.1499 130.717 55.9757 130.717 53.9396C130.717 51.891 132.116 50.7043 133.652 50.7043C135.176 50.7043 136.575 51.891 136.575 53.9396C136.575 55.9757 135.176 57.1499 133.652 57.1499ZM133.652 55.9507C134.539 55.9507 135.064 55.1513 135.064 53.9396C135.064 52.7155 134.539 51.916 133.652 51.916C132.766 51.916 132.241 52.7155 132.241 53.9396C132.241 55.1513 132.766 55.9507 133.652 55.9507ZM137.972 57V50.8542H139.184L139.296 51.9535H139.334C139.784 51.154 140.433 50.7043 141.083 50.7043C141.395 50.7043 141.595 50.7543 141.782 50.8293L141.482 52.0909C141.295 52.0409 141.145 52.0159 140.895 52.0159C140.408 52.0159 139.821 52.3407 139.459 53.2776V57H137.972ZM142.669 57V50.8542H143.88L143.993 51.6912H144.03C144.555 51.154 145.142 50.7043 145.917 50.7043C146.816 50.7043 147.328 51.1166 147.615 51.8036C148.202 51.179 148.802 50.7043 149.589 50.7043C150.888 50.7043 151.488 51.6037 151.488 53.1527V57H150.001V53.34C150.001 52.3407 149.714 51.9785 149.077 51.9785C148.702 51.9785 148.277 52.2158 147.815 52.7279V57H146.341V53.34C146.341 52.3407 146.041 51.9785 145.417 51.9785C145.042 51.9785 144.617 52.2158 144.155 52.7279V57H142.669ZM154.72 57.1499C153.645 57.1499 152.896 56.4254 152.896 55.3511C152.896 54.0021 153.97 53.3275 156.493 53.0527C156.468 52.4282 156.219 51.9035 155.394 51.9035C154.794 51.9035 154.22 52.1533 153.67 52.4781L153.146 51.5038C153.82 51.0791 154.695 50.7043 155.669 50.7043C157.193 50.7043 157.967 51.6537 157.967 53.365V57H156.768L156.643 56.3255H156.593C156.044 56.8001 155.444 57.1499 154.72 57.1499ZM155.169 55.9757C155.669 55.9757 156.044 55.7758 156.493 55.3511V54.052C154.819 54.2519 154.32 54.6266 154.32 55.2512C154.32 55.7758 154.67 55.9757 155.169 55.9757ZM159.661 57V50.8542H160.873L160.986 51.6787H161.023C161.573 51.154 162.197 50.7043 163.034 50.7043C164.358 50.7043 164.933 51.6037 164.933 53.1527V57H163.459V53.34C163.459 52.3407 163.172 51.9785 162.522 51.9785C161.985 51.9785 161.635 52.2283 161.148 52.7279V57H159.661ZM169.237 57.1499C167.563 57.1499 166.264 55.9757 166.264 53.9396C166.264 51.891 167.713 50.7043 169.362 50.7043C170.136 50.7043 170.711 50.9916 171.16 51.3914L170.448 52.3157C170.136 52.0409 169.824 51.916 169.437 51.916C168.462 51.916 167.788 52.7155 167.788 53.9396C167.788 55.1513 168.45 55.9507 169.387 55.9507C169.874 55.9507 170.298 55.7509 170.648 55.4636L171.248 56.4004C170.661 56.9126 169.936 57.1499 169.237 57.1499ZM174.739 57.1499C173.041 57.1499 171.716 55.9757 171.716 53.9271C171.716 51.9285 173.116 50.7043 174.552 50.7043C176.213 50.7043 177.113 51.9035 177.113 53.6273C177.113 53.9271 177.088 54.152 177.038 54.3768H173.165C173.315 55.4011 173.965 56.0007 174.939 56.0007C175.464 56.0007 175.939 55.8508 176.363 55.576L176.863 56.5003C176.288 56.9251 175.539 57.1499 174.739 57.1499ZM173.165 53.2776H175.814C175.814 52.3782 175.389 51.8536 174.59 51.8536C173.89 51.8536 173.29 52.3532 173.165 53.2776ZM180.96 57V50.8542H182.172L182.284 51.9535H182.322C182.771 51.154 183.421 50.7043 184.071 50.7043C184.383 50.7043 184.583 50.7543 184.77 50.8293L184.47 52.0909C184.283 52.0409 184.133 52.0159 183.883 52.0159C183.396 52.0159 182.809 52.3407 182.447 53.2776V57H180.96ZM188.158 57.1499C186.459 57.1499 185.135 55.9757 185.135 53.9271C185.135 51.9285 186.534 50.7043 187.971 50.7043C189.632 50.7043 190.531 51.9035 190.531 53.6273C190.531 53.9271 190.506 54.152 190.456 54.3768H186.584C186.734 55.4011 187.383 56.0007 188.358 56.0007C188.882 56.0007 189.357 55.8508 189.782 55.576L190.281 56.5003C189.707 56.9251 188.957 57.1499 188.158 57.1499ZM186.584 53.2776H189.232C189.232 52.3782 188.807 51.8536 188.008 51.8536C187.308 51.8536 186.709 52.3532 186.584 53.2776ZM191.878 59.4108V50.8542H193.09L193.202 51.5038H193.24C193.764 51.0666 194.414 50.7043 195.088 50.7043C196.612 50.7043 197.499 51.941 197.499 53.8397C197.499 55.9382 196.25 57.1499 194.888 57.1499C194.339 57.1499 193.802 56.9001 193.314 56.4754L193.364 57.4997V59.4108H191.878ZM194.564 55.9257C195.363 55.9257 195.988 55.2262 195.988 53.8522C195.988 52.6405 195.588 51.9285 194.676 51.9285C194.239 51.9285 193.827 52.1409 193.364 52.603V55.4386C193.789 55.8008 194.214 55.9257 194.564 55.9257ZM201.477 57.1499C199.94 57.1499 198.541 55.9757 198.541 53.9396C198.541 51.891 199.94 50.7043 201.477 50.7043C203.001 50.7043 204.4 51.891 204.4 53.9396C204.4 55.9757 203.001 57.1499 201.477 57.1499ZM201.477 55.9507C202.364 55.9507 202.888 55.1513 202.888 53.9396C202.888 52.7155 202.364 51.916 201.477 51.916C200.59 51.916 200.065 52.7155 200.065 53.9396C200.065 55.1513 200.59 55.9507 201.477 55.9507ZM205.797 57V50.8542H207.008L207.121 51.9535H207.158C207.608 51.154 208.257 50.7043 208.907 50.7043C209.219 50.7043 209.419 50.7543 209.606 50.8293L209.307 52.0909C209.119 52.0409 208.969 52.0159 208.72 52.0159C208.232 52.0159 207.645 52.3407 207.283 53.2776V57H205.797ZM212.679 57.1499C211.243 57.1499 210.718 56.2505 210.718 54.9139V52.0284H209.844V50.9292L210.793 50.8542L210.968 48.9431H212.192V50.8542H213.753V52.0284H212.192V54.9139C212.192 55.6259 212.479 55.9757 213.054 55.9757C213.266 55.9757 213.478 55.9382 213.691 55.8508L213.953 56.8876C213.628 57.0375 213.179 57.1499 212.679 57.1499Z" fill="#26292C"></path>
      <path d="M61.7294 78.4197C60.4775 78.4197 59.4775 77.5037 59.4775 75.8472C59.4775 74.2136 60.5004 73.2441 61.7676 73.2441C62.3935 73.2441 62.8974 73.5342 63.2103 73.8777L62.7294 74.435C62.4699 74.1831 62.1722 74.038 61.7829 74.038C60.989 74.038 60.4088 74.7098 60.4088 75.8243C60.4088 76.9464 60.9355 77.6335 61.7676 77.6335C62.2027 77.6335 62.5462 77.4579 62.821 77.1525L63.3096 77.6945C62.8897 78.1755 62.3706 78.4197 61.7294 78.4197ZM66.0402 78.4197C64.8722 78.4197 64.1318 77.7709 64.1318 76.1296V73.3357H65.0402V76.1983C65.0402 77.2747 65.4371 77.6335 66.0402 77.6335C66.6432 77.6335 67.0554 77.2747 67.0554 76.1983V73.3357H67.9333V76.1296C67.9333 77.7709 67.2081 78.4197 66.0402 78.4197ZM70.6941 78.4197C70.0071 78.4197 69.3659 78.1678 68.8926 77.6869L69.3811 77.0915C69.7399 77.435 70.2361 77.6335 70.717 77.6335C71.2666 77.6335 71.572 77.3816 71.572 76.9999C71.572 76.6029 71.2514 76.4732 70.801 76.2823L70.1216 75.9846C69.6254 75.7785 69.114 75.3892 69.114 74.664C69.114 73.8625 69.8163 73.2441 70.7934 73.2441C71.3964 73.2441 71.9537 73.4884 72.343 73.8625L71.8544 74.4579C71.5415 74.1907 71.175 74.038 70.7934 74.038C70.3277 74.038 70.03 74.2518 70.03 74.6106C70.03 74.9922 70.404 75.1296 70.8163 75.3052L71.488 75.58C72.0834 75.8319 72.4957 76.206 72.4957 76.9312C72.4957 77.7403 71.8239 78.4197 70.6941 78.4197ZM74.393 78.3281V74.0991H72.9579V73.3357H76.7365V74.0991H75.3014V78.3281H74.393ZM79.4517 78.4197C78.1464 78.4197 77.2456 77.4274 77.2456 75.809C77.2456 74.1983 78.1464 73.2441 79.4517 73.2441C80.7571 73.2441 81.6578 74.1983 81.6578 75.809C81.6578 77.4274 80.7571 78.4197 79.4517 78.4197ZM79.4517 77.6335C80.2227 77.6335 80.7265 76.9235 80.7265 75.809C80.7265 74.7022 80.2227 74.038 79.4517 74.038C78.6731 74.038 78.1769 74.7022 78.1769 75.809C78.1769 76.9235 78.6731 77.6335 79.4517 77.6335ZM82.7875 78.3281V73.3357H83.8562L84.7112 75.7785C84.818 76.0991 84.9096 76.3892 85.0012 76.7556H85.0318C85.1234 76.3892 85.1997 76.0991 85.3066 75.7785L86.1616 73.3357H87.2303V78.3281H86.3906V76.0533C86.3906 75.58 86.4669 74.893 86.528 74.435H86.4974L86.1005 75.6411L85.2913 77.8701H84.6959L83.902 75.6411L83.5051 74.435H83.4745C83.5356 74.893 83.6119 75.58 83.6119 76.0533V78.3281H82.7875ZM90.2963 78.3281V73.3357H91.8765C92.9834 73.3357 93.8154 73.7251 93.8154 74.8854C93.8154 75.9999 92.9834 76.5037 91.907 76.5037H91.2047V78.3281H90.2963ZM91.2047 75.7785H91.8383C92.5711 75.7785 92.9147 75.4884 92.9147 74.8854C92.9147 74.2747 92.533 74.0609 91.8078 74.0609H91.2047V75.7785ZM94.8856 78.3281V73.3357H97.9009V74.0991H95.794V75.351H97.5802V76.1144H95.794V77.5648H97.9772V78.3281H94.8856ZM99.1394 78.3281V73.3357H100.826C101.872 73.3357 102.674 73.7022 102.674 74.8243C102.674 75.58 102.284 76.0457 101.689 76.2518L102.872 78.3281H101.857L100.788 76.3892H100.048V78.3281H99.1394ZM100.048 75.664H100.735C101.414 75.664 101.781 75.3815 101.781 74.8243C101.781 74.2594 101.414 74.0609 100.735 74.0609H100.048V75.664ZM103.811 78.3281V73.3357H104.719V78.3281H103.811ZM108.065 78.4197C106.76 78.4197 105.859 77.4274 105.859 75.809C105.859 74.1983 106.76 73.2441 108.065 73.2441C109.371 73.2441 110.271 74.1983 110.271 75.809C110.271 77.4274 109.371 78.4197 108.065 78.4197ZM108.065 77.6335C108.836 77.6335 109.34 76.9235 109.34 75.809C109.34 74.7022 108.836 74.038 108.065 74.038C107.287 74.038 106.791 74.7022 106.791 75.809C106.791 76.9235 107.287 77.6335 108.065 77.6335ZM111.409 78.3281V73.3357H112.745C114.271 73.3357 115.187 74.1525 115.187 75.809C115.187 77.4732 114.271 78.3281 112.79 78.3281H111.409ZM112.317 77.5953H112.684C113.676 77.5953 114.248 77.038 114.248 75.809C114.248 74.5877 113.676 74.0762 112.684 74.0762H112.317V77.5953Z" fill="#747678"></path>
      <g clip-path="url(#clip1_8295_67844)">
        <rect x="48" y="90.6543" width="322" height="0.693965" fill="#E5E5E5"></rect>
      </g>
      <path d="M83.2859 124.924H85.0902V123.255C85.0902 122.958 85.1173 122.461 85.1353 122.155H85.0992C84.9549 122.425 84.7925 122.678 84.6301 122.967L83.2859 124.924ZM85.0902 127.107V125.52H82.501V125.023L84.9639 121.352H85.7939V124.924H86.5788V125.52H85.7939V127.107H85.0902ZM89.0784 127.216C87.9236 127.216 87.229 126.142 87.229 124.212C87.229 122.281 87.9236 121.243 89.0784 121.243C90.2241 121.243 90.9188 122.281 90.9188 124.212C90.9188 126.142 90.2241 127.216 89.0784 127.216ZM89.0784 126.611C89.746 126.611 90.1971 125.899 90.1971 124.212C90.1971 122.524 89.746 121.848 89.0784 121.848C88.4108 121.848 87.9597 122.524 87.9597 124.212C87.9597 125.899 88.4108 126.611 89.0784 126.611Z" fill="#747678"></path>
      <g clip-path="url(#clip2_8295_67844)">
        <rect x="94.0922" y="124.76" width="259.059" height="0.693965" fill="#E5E5E5"></rect>
      </g>
      <path d="M84.4768 153.095C83.5566 153.095 82.9702 152.707 82.5822 152.283L82.9611 151.795C83.304 152.156 83.755 152.472 84.4316 152.472C85.1263 152.472 85.6225 152.066 85.6225 151.426C85.6225 150.74 85.1534 150.28 83.7821 150.28V149.712C85 149.712 85.415 149.242 85.415 148.638C85.415 148.088 85.0361 147.736 84.4226 147.736C83.9445 147.736 83.5385 147.979 83.1957 148.313L82.7987 147.844C83.2408 147.429 83.7731 147.122 84.4497 147.122C85.4511 147.122 86.1728 147.655 86.1728 148.584C86.1728 149.278 85.7578 149.721 85.1353 149.955V149.991C85.83 150.154 86.3803 150.659 86.3803 151.453C86.3803 152.472 85.5323 153.095 84.4768 153.095ZM89.0784 153.095C87.9236 153.095 87.229 152.021 87.229 150.09C87.229 148.16 87.9236 147.122 89.0784 147.122C90.2241 147.122 90.9188 148.16 90.9188 150.09C90.9188 152.021 90.2241 153.095 89.0784 153.095ZM89.0784 152.49C89.746 152.49 90.1971 151.777 90.1971 150.09C90.1971 148.403 89.746 147.727 89.0784 147.727C88.4108 147.727 87.9597 148.403 87.9597 150.09C87.9597 151.777 88.4108 152.49 89.0784 152.49Z" fill="#747678"></path>
      <g clip-path="url(#clip3_8295_67844)">
        <rect x="94.0922" y="150.639" width="259.059" height="0.693965" fill="#E5E5E5"></rect>
      </g>
      <path d="M82.7085 178.865V178.405C84.4226 176.727 85.415 175.663 85.415 174.733C85.415 174.075 85.0541 173.615 84.3234 173.615C83.8452 173.615 83.4303 173.921 83.1055 174.3L82.6815 173.894C83.1596 173.353 83.6738 173.001 84.4136 173.001C85.4781 173.001 86.1457 173.678 86.1457 174.688C86.1457 175.807 85.1353 176.844 83.737 178.27C84.0527 178.243 84.4046 178.225 84.7023 178.225H86.4254V178.865H82.7085ZM89.0784 178.973C87.9236 178.973 87.229 177.9 87.229 175.969C87.229 174.039 87.9236 173.001 89.0784 173.001C90.2241 173.001 90.9188 174.039 90.9188 175.969C90.9188 177.9 90.2241 178.973 89.0784 178.973ZM89.0784 178.369C89.746 178.369 90.1971 177.656 90.1971 175.969C90.1971 174.282 89.746 173.606 89.0784 173.606C88.4108 173.606 87.9597 174.282 87.9597 175.969C87.9597 177.656 88.4108 178.369 89.0784 178.369Z" fill="#747678"></path>
      <g clip-path="url(#clip4_8295_67844)">
        <rect x="94.0922" y="176.518" width="259.059" height="0.693965" fill="#E5E5E5"></rect>
      </g>
      <path d="M83.0604 204.746V204.124H84.3775V199.902H83.322V199.414C83.8543 199.324 84.2332 199.18 84.5489 198.99H85.1263V204.124H86.3081V204.746H83.0604ZM89.0784 204.854C87.9236 204.854 87.229 203.781 87.229 201.85C87.229 199.92 87.9236 198.882 89.0784 198.882C90.2241 198.882 90.9188 199.92 90.9188 201.85C90.9188 203.781 90.2241 204.854 89.0784 204.854ZM89.0784 204.25C89.746 204.25 90.1971 203.537 90.1971 201.85C90.1971 200.163 89.746 199.487 89.0784 199.487C88.4108 199.487 87.9597 200.163 87.9597 201.85C87.9597 203.537 88.4108 204.25 89.0784 204.25Z" fill="#747678"></path>
      <g clip-path="url(#clip5_8295_67844)">
        <rect x="94.0922" y="202.398" width="259.059" height="0.693965" fill="#E5E5E5"></rect>
      </g>
      <path d="M89.0784 230.733C87.9236 230.733 87.229 229.66 87.229 227.729C87.229 225.798 87.9236 224.761 89.0784 224.761C90.2241 224.761 90.9188 225.798 90.9188 227.729C90.9188 229.66 90.2241 230.733 89.0784 230.733ZM89.0784 230.129C89.746 230.129 90.1971 229.416 90.1971 227.729C90.1971 226.042 89.746 225.365 89.0784 225.365C88.4108 225.365 87.9597 226.042 87.9597 227.729C87.9597 229.416 88.4108 230.129 89.0784 230.129Z" fill="#747678"></path>
      <g clip-path="url(#clip6_8295_67844)">
        <rect x="94.0922" y="228.277" width="259.059" height="0.693965" fill="#E5E5E5"></rect>
      </g>
      <path d="M116.057 122.358C115.128 122.358 114.515 122.006 114.109 121.546L114.614 120.87C114.957 121.213 115.399 121.492 115.967 121.492C116.581 121.492 117.014 121.176 117.014 120.644C117.014 120.058 116.635 119.679 115.336 119.679V118.903C116.454 118.903 116.815 118.524 116.815 118.001C116.815 117.532 116.508 117.252 115.985 117.252C115.543 117.252 115.191 117.46 114.839 117.784L114.289 117.126C114.785 116.693 115.336 116.404 116.03 116.404C117.131 116.404 117.889 116.954 117.889 117.92C117.889 118.56 117.519 118.993 116.896 119.237V119.273C117.573 119.453 118.087 119.94 118.087 120.698C118.087 121.745 117.167 122.358 116.057 122.358ZM119.843 118.29C119.843 118.957 120.177 119.3 120.728 119.3C121.061 119.3 121.458 119.101 121.747 118.632C121.639 117.631 121.224 117.216 120.683 117.216C120.213 117.216 119.843 117.595 119.843 118.29ZM120.493 122.358C119.798 122.358 119.293 122.061 118.95 121.709L119.519 121.059C119.735 121.303 120.087 121.492 120.439 121.492C121.152 121.492 121.729 120.96 121.774 119.399C121.44 119.814 120.944 120.067 120.529 120.067C119.546 120.067 118.86 119.489 118.86 118.29C118.86 117.135 119.681 116.404 120.673 116.404C121.792 116.404 122.757 117.27 122.757 119.21C122.757 121.429 121.675 122.358 120.493 122.358Z" fill="#26292C"></path>
      <path d="M108.117 129.025C108.117 128.258 108.738 127.637 109.505 127.637H127.548C128.314 127.637 128.936 128.258 128.936 129.025V143.598H108.117V129.025Z" fill="#779288"></path>
      <rect x="108.117" y="144.291" width="20.819" height="33.3103" fill="#D0D7D3"></rect>
      <rect x="108.117" y="178.297" width="20.819" height="47.1897" fill="#B5B4F7"></rect>
      <path d="M114.623 234.983C113.91 234.983 113.378 234.668 113.053 234.027L113.559 233.684C113.811 234.126 114.145 234.316 114.578 234.316C115.228 234.316 115.543 233.955 115.543 233.044V228.957H116.301V233.107C116.301 234.153 115.814 234.983 114.623 234.983ZM119.111 234.983C118.182 234.983 117.767 234.388 117.767 233.269V230.491H118.516V233.17C118.516 233.982 118.768 234.334 119.346 234.334C119.788 234.334 120.104 234.108 120.509 233.594V230.491H121.258V234.875H120.645L120.582 234.189H120.555C120.149 234.668 119.716 234.983 119.111 234.983ZM123.522 234.983C122.963 234.983 122.737 234.622 122.737 233.991V228.452H123.486V234.045C123.486 234.28 123.585 234.361 123.703 234.361C123.748 234.361 123.784 234.361 123.856 234.343L123.955 234.902C123.847 234.956 123.712 234.983 123.522 234.983Z" fill="#747678"></path>
      <path d="M159.735 128.604C158.806 128.604 158.193 128.253 157.787 127.792L158.292 127.116C158.635 127.459 159.077 127.738 159.645 127.738C160.259 127.738 160.692 127.423 160.692 126.89C160.692 126.304 160.313 125.925 159.014 125.925V125.149C160.132 125.149 160.493 124.77 160.493 124.247C160.493 123.778 160.186 123.498 159.663 123.498C159.221 123.498 158.869 123.706 158.517 124.03L157.967 123.372C158.463 122.939 159.014 122.65 159.708 122.65C160.809 122.65 161.567 123.2 161.567 124.166C161.567 124.806 161.197 125.239 160.574 125.483V125.519C161.251 125.699 161.765 126.187 161.765 126.944C161.765 127.991 160.845 128.604 159.735 128.604ZM163.639 128.496C163.747 126.475 164.162 125.212 165.308 123.661H162.601V122.758H166.462V123.408C165.091 125.095 164.82 126.259 164.721 128.496H163.639Z" fill="#26292C"></path>
      <path d="M151.795 135.271C151.795 134.504 152.416 133.883 153.183 133.883H171.226C171.992 133.883 172.614 134.504 172.614 135.271V143.598H151.795V135.271Z" fill="#779288"></path>
      <rect x="151.795" y="144.293" width="20.819" height="20.819" fill="#D0D7D3"></rect>
      <rect x="151.795" y="165.805" width="20.819" height="59.681" fill="#B5B4F7"></rect>
      <path d="M156.886 231.573L156.607 232.466H158.375L158.095 231.573C157.879 230.915 157.689 230.265 157.5 229.579H157.464C157.283 230.265 157.094 230.915 156.886 231.573ZM155.073 234.875L157.067 228.957H157.933L159.927 234.875H159.124L158.564 233.08H156.408L155.84 234.875H155.073ZM161.921 234.983C160.992 234.983 160.577 234.388 160.577 233.269V230.491H161.326V233.17C161.326 233.982 161.578 234.334 162.156 234.334C162.598 234.334 162.914 234.108 163.32 233.594V230.491H164.068V234.875H163.455L163.392 234.189H163.365C162.959 234.668 162.526 234.983 161.921 234.983ZM167.027 236.896C165.953 236.896 165.214 236.472 165.214 235.714C165.214 235.344 165.457 234.992 165.854 234.722V234.686C165.638 234.55 165.466 234.316 165.466 233.973C165.466 233.603 165.719 233.314 165.944 233.161V233.125C165.656 232.89 165.376 232.466 165.376 231.943C165.376 230.987 166.134 230.382 167.027 230.382C167.27 230.382 167.487 230.427 167.649 230.491H169.174V231.068H168.281C168.488 231.266 168.633 231.591 168.633 231.961C168.633 232.899 167.92 233.486 167.027 233.486C166.81 233.486 166.576 233.432 166.377 233.332C166.215 233.468 166.098 233.612 166.098 233.856C166.098 234.126 166.278 234.325 166.865 234.325H167.713C168.732 234.325 169.246 234.649 169.246 235.371C169.246 236.192 168.389 236.896 167.027 236.896ZM167.027 232.98C167.532 232.98 167.956 232.584 167.956 231.943C167.956 231.311 167.541 230.924 167.027 230.924C166.513 230.924 166.098 231.302 166.098 231.943C166.098 232.584 166.522 232.98 167.027 232.98ZM167.135 236.373C167.965 236.373 168.515 235.94 168.515 235.488C168.515 235.082 168.209 234.947 167.631 234.947H166.883C166.711 234.947 166.504 234.929 166.314 234.875C165.998 235.101 165.863 235.362 165.863 235.615C165.863 236.084 166.341 236.373 167.135 236.373Z" fill="#747678"></path>
      <path d="M203.413 122.358C202.484 122.358 201.87 122.006 201.464 121.546L201.97 120.87C202.312 121.213 202.755 121.492 203.323 121.492C203.936 121.492 204.369 121.176 204.369 120.644C204.369 120.058 203.991 119.679 202.691 119.679V118.903C203.81 118.903 204.171 118.524 204.171 118.001C204.171 117.532 203.864 117.252 203.341 117.252C202.899 117.252 202.547 117.46 202.195 117.784L201.645 117.126C202.141 116.693 202.691 116.404 203.386 116.404C204.487 116.404 205.244 116.954 205.244 117.92C205.244 118.56 204.875 118.993 204.252 119.237V119.273C204.929 119.453 205.443 119.94 205.443 120.698C205.443 121.745 204.523 122.358 203.413 122.358ZM207.199 118.29C207.199 118.957 207.533 119.3 208.083 119.3C208.417 119.3 208.814 119.101 209.103 118.632C208.995 117.631 208.58 117.216 208.038 117.216C207.569 117.216 207.199 117.595 207.199 118.29ZM207.849 122.358C207.154 122.358 206.649 122.061 206.306 121.709L206.874 121.059C207.091 121.303 207.443 121.492 207.795 121.492C208.507 121.492 209.085 120.96 209.13 119.399C208.796 119.814 208.3 120.067 207.885 120.067C206.902 120.067 206.216 119.489 206.216 118.29C206.216 117.135 207.037 116.404 208.029 116.404C209.148 116.404 210.113 117.27 210.113 119.21C210.113 121.429 209.031 122.358 207.849 122.358Z" fill="#26292C"></path>
      <path d="M195.473 129.025C195.473 128.258 196.094 127.637 196.861 127.637H214.904C215.67 127.637 216.292 128.258 216.292 129.025V143.598H195.473V129.025Z" fill="#779288"></path>
      <rect x="195.473" y="144.291" width="20.819" height="33.3103" fill="#D0D7D3"></rect>
      <rect x="195.473" y="178.297" width="20.819" height="47.1897" fill="#B5B4F7"></rect>
      <path d="M201.187 234.983C200.338 234.983 199.626 234.649 199.112 234.099L199.536 233.603C199.969 234.045 200.573 234.316 201.196 234.316C201.971 234.316 202.431 233.928 202.431 233.359C202.431 232.755 201.998 232.565 201.448 232.322L200.591 231.943C200.041 231.708 199.4 231.293 199.4 230.418C199.4 229.516 200.185 228.849 201.259 228.849C201.98 228.849 202.594 229.146 203.009 229.561L202.594 230.067C202.233 229.724 201.773 229.516 201.259 229.516C200.6 229.516 200.167 229.85 200.167 230.373C200.167 230.942 200.681 231.158 201.141 231.348L201.989 231.717C202.675 232.006 203.207 232.421 203.207 233.296C203.207 234.234 202.431 234.983 201.187 234.983ZM206.06 234.983C204.887 234.983 203.967 234.135 203.967 232.683C203.967 231.257 204.932 230.382 205.933 230.382C207.052 230.382 207.693 231.176 207.693 232.439C207.693 232.602 207.684 232.737 207.657 232.881H204.707C204.77 233.783 205.32 234.379 206.15 234.379C206.574 234.379 206.944 234.262 207.251 234.054L207.512 234.532C207.133 234.803 206.664 234.983 206.06 234.983ZM204.707 232.304H207.025C207.025 231.438 206.619 230.978 205.952 230.978C205.338 230.978 204.797 231.465 204.707 232.304ZM208.767 236.724V230.491H209.381L209.444 230.996H209.471C209.868 230.662 210.364 230.382 210.869 230.382C211.997 230.382 212.61 231.257 212.61 232.62C212.61 234.108 211.708 234.983 210.707 234.983C210.31 234.983 209.895 234.794 209.498 234.478L209.516 235.245V236.724H208.767ZM210.58 234.352C211.302 234.352 211.834 233.702 211.834 232.62C211.834 231.654 211.501 231.014 210.68 231.014C210.31 231.014 209.94 231.212 209.516 231.609V233.901C209.913 234.234 210.292 234.352 210.58 234.352Z" fill="#747678"></path>
      <path d="M247.091 141.095C246.162 141.095 245.548 140.743 245.142 140.283L245.648 139.606C245.99 139.949 246.432 140.229 247.001 140.229C247.614 140.229 248.047 139.913 248.047 139.38C248.047 138.794 247.668 138.415 246.369 138.415V137.639C247.488 137.639 247.849 137.26 247.849 136.737C247.849 136.268 247.542 135.988 247.019 135.988C246.577 135.988 246.225 136.196 245.873 136.521L245.323 135.862C245.819 135.429 246.369 135.14 247.064 135.14C248.165 135.14 248.922 135.691 248.922 136.656C248.922 137.297 248.552 137.73 247.93 137.973V138.009C248.607 138.19 249.121 138.677 249.121 139.435C249.121 140.481 248.201 141.095 247.091 141.095ZM250.228 140.986V140.12H251.509V136.394H250.444V135.727C251.021 135.619 251.409 135.465 251.779 135.249H252.573V140.12H253.692V140.986H250.228Z" fill="#26292C"></path>
      <path d="M239.15 147.763C239.15 146.996 239.772 146.375 240.538 146.375H258.582C259.348 146.375 259.969 146.996 259.969 147.763V152.621H239.15V147.763Z" fill="#779288"></path>
      <rect x="239.15" y="153.314" width="20.819" height="18.7371" fill="#D0D7D3"></rect>
      <rect x="239.15" y="172.746" width="20.819" height="52.7414" fill="#B5B4F7"></rect>
      <path d="M246.018 234.983C244.529 234.983 243.492 233.792 243.492 231.889C243.492 229.994 244.529 228.849 246.018 228.849C247.507 228.849 248.553 230.003 248.553 231.889C248.553 233.792 247.507 234.983 246.018 234.983ZM246.018 234.316C247.074 234.316 247.768 233.368 247.768 231.889C247.768 230.418 247.074 229.516 246.018 229.516C244.962 229.516 244.277 230.418 244.277 231.889C244.277 233.368 244.962 234.316 246.018 234.316ZM251.486 234.983C250.322 234.983 249.429 234.144 249.429 232.692C249.429 231.221 250.412 230.382 251.54 230.382C252.117 230.382 252.514 230.608 252.821 230.896L252.451 231.366C252.207 231.14 251.928 231.005 251.576 231.005C250.782 231.005 250.205 231.681 250.205 232.692C250.205 233.693 250.746 234.361 251.549 234.361C251.955 234.361 252.316 234.18 252.577 233.946L252.902 234.424C252.505 234.785 252.009 234.983 251.486 234.983ZM255.16 234.983C254.222 234.983 253.906 234.388 253.906 233.513V231.095H253.256V230.536L253.942 230.491L254.032 229.083H254.655V230.491H255.846V231.095H254.655V233.531C254.655 234.063 254.835 234.37 255.331 234.37C255.494 234.37 255.656 234.343 255.837 234.262L255.99 234.794C255.755 234.902 255.458 234.983 255.16 234.983Z" fill="#747678"></path>
      <path d="M289.822 117.183H291.292V115.92C291.292 115.586 291.328 115.054 291.346 114.72H291.31C291.166 115.018 291.003 115.307 290.841 115.613L289.822 117.183ZM291.292 119.475V118.013H288.766V117.282L291.031 113.737H292.294V117.183H293.006V118.013H292.294V119.475H291.292ZM295.556 119.583C294.366 119.583 293.599 118.518 293.599 116.579C293.599 114.639 294.366 113.629 295.556 113.629C296.756 113.629 297.514 114.648 297.514 116.579C297.514 118.518 296.756 119.583 295.556 119.583ZM295.556 118.744C296.107 118.744 296.495 118.203 296.495 116.579C296.495 114.964 296.107 114.459 295.556 114.459C295.015 114.459 294.618 114.964 294.618 116.579C294.618 118.203 295.015 118.744 295.556 118.744Z" fill="#26292C"></path>
      <path d="M282.828 126.251C282.828 125.485 283.45 124.863 284.216 124.863H302.259C303.026 124.863 303.647 125.485 303.647 126.251V129.027H282.828V126.251Z" fill="#779288"></path>
      <rect x="282.828" y="129.721" width="20.819" height="39.556" fill="#D0D7D3"></rect>
      <rect x="282.828" y="169.971" width="20.819" height="55.5172" fill="#B5B4F7"></rect>
      <path d="M286.596 234.875V228.957H287.408L289.519 232.647C289.745 233.044 289.952 233.486 290.16 233.919H290.196C290.151 233.305 290.097 232.656 290.097 232.042V228.957H290.809V234.875H289.998L287.887 231.185C287.661 230.788 287.444 230.346 287.246 229.913H287.21C287.255 230.509 287.309 231.149 287.309 231.763V234.875H286.596ZM294.062 234.983C292.988 234.983 292.032 234.144 292.032 232.692C292.032 231.221 292.988 230.382 294.062 230.382C295.135 230.382 296.1 231.221 296.1 232.692C296.1 234.144 295.135 234.983 294.062 234.983ZM294.062 234.361C294.819 234.361 295.325 233.693 295.325 232.692C295.325 231.681 294.819 231.005 294.062 231.005C293.313 231.005 292.808 231.681 292.808 232.692C292.808 233.693 293.313 234.361 294.062 234.361ZM298.158 234.875L296.579 230.491H297.355L298.176 232.971C298.312 233.404 298.447 233.847 298.582 234.271H298.618C298.745 233.847 298.889 233.404 299.024 232.971L299.845 230.491H300.585L299.033 234.875H298.158Z" fill="#747678"></path>
      <path d="M334.447 125.134C333.518 125.134 332.904 124.782 332.498 124.322L333.003 123.645C333.346 123.988 333.788 124.268 334.357 124.268C334.97 124.268 335.403 123.952 335.403 123.42C335.403 122.833 335.024 122.454 333.725 122.454V121.678C334.844 121.678 335.205 121.299 335.205 120.776C335.205 120.307 334.898 120.027 334.375 120.027C333.933 120.027 333.581 120.235 333.229 120.56L332.679 119.901C333.175 119.468 333.725 119.179 334.42 119.179C335.52 119.179 336.278 119.73 336.278 120.695C336.278 121.336 335.908 121.769 335.286 122.012V122.048C335.962 122.229 336.477 122.716 336.477 123.474C336.477 124.52 335.556 125.134 334.447 125.134ZM339.234 125.134C338.116 125.134 337.286 124.484 337.286 123.555C337.286 122.842 337.773 122.373 338.314 122.084V122.048C337.881 121.733 337.529 121.318 337.529 120.713C337.529 119.775 338.269 119.179 339.27 119.179C340.299 119.179 340.966 119.802 340.966 120.731C340.966 121.299 340.569 121.778 340.191 122.039V122.075C340.723 122.382 341.183 122.806 341.183 123.573C341.183 124.457 340.407 125.134 339.234 125.134ZM339.613 121.778C339.911 121.48 340.082 121.155 340.082 120.794C340.082 120.298 339.776 119.937 339.252 119.937C338.819 119.937 338.476 120.217 338.476 120.713C338.476 121.272 338.982 121.525 339.613 121.778ZM339.261 124.376C339.803 124.376 340.191 124.06 340.191 123.537C340.191 122.923 339.595 122.698 338.819 122.382C338.476 122.644 338.224 123.014 338.224 123.447C338.224 124.006 338.675 124.376 339.261 124.376Z" fill="#26292C"></path>
      <path d="M326.506 131.802C326.506 131.035 327.128 130.414 327.894 130.414H345.937C346.704 130.414 347.325 131.035 347.325 131.802V133.884H326.506V131.802Z" fill="#779288"></path>
      <rect x="326.506" y="134.578" width="20.819" height="24.2888" fill="#D0D7D3"></rect>
      <rect x="326.506" y="159.561" width="20.819" height="65.9267" fill="#B5B4F7"></rect>
      <path d="M330.653 234.875V228.957H332.133C333.955 228.957 334.929 230.012 334.929 231.889C334.929 233.774 333.955 234.875 332.169 234.875H330.653ZM331.411 234.253H332.079C333.459 234.253 334.144 233.386 334.144 231.889C334.144 230.4 333.459 229.579 332.079 229.579H331.411V234.253ZM337.908 234.983C336.736 234.983 335.815 234.135 335.815 232.683C335.815 231.257 336.781 230.382 337.782 230.382C338.901 230.382 339.541 231.176 339.541 232.439C339.541 232.602 339.532 232.737 339.505 232.881H336.555C336.618 233.783 337.169 234.379 337.999 234.379C338.423 234.379 338.792 234.262 339.099 234.054L339.361 234.532C338.982 234.803 338.513 234.983 337.908 234.983ZM336.555 232.304H338.874C338.874 231.438 338.468 230.978 337.8 230.978C337.187 230.978 336.645 231.465 336.555 232.304ZM342.348 234.983C341.184 234.983 340.291 234.144 340.291 232.692C340.291 231.221 341.274 230.382 342.402 230.382C342.979 230.382 343.376 230.608 343.683 230.896L343.313 231.366C343.07 231.14 342.79 231.005 342.438 231.005C341.644 231.005 341.067 231.681 341.067 232.692C341.067 233.693 341.608 234.361 342.411 234.361C342.817 234.361 343.178 234.18 343.439 233.946L343.764 234.424C343.367 234.785 342.871 234.983 342.348 234.983Z" fill="#747678"></path>
      <g clip-path="url(#clip7_8295_67844)">
        <rect x="48" y="254.43" width="322" height="0.693965" fill="#E5E5E5"></rect>
      </g>
      <circle cx="61.8793" cy="272.227" r="2.77586" fill="#779288"></circle>
      <path d="M71.0188 274.227V268.308H71.7767V273.586H74.3568V274.227H71.0188ZM76.9335 274.335C75.8599 274.335 74.9036 273.496 74.9036 272.043C74.9036 270.573 75.8599 269.734 76.9335 269.734C78.007 269.734 78.9723 270.573 78.9723 272.043C78.9723 273.496 78.007 274.335 76.9335 274.335ZM76.9335 273.712C77.6913 273.712 78.1965 273.045 78.1965 272.043C78.1965 271.033 77.6913 270.356 76.9335 270.356C76.1847 270.356 75.6795 271.033 75.6795 272.043C75.6795 273.045 76.1847 273.712 76.9335 273.712ZM81.2637 274.335C80.6232 274.335 80.0368 274.1 79.6308 273.703L79.9737 273.27C80.3526 273.586 80.7495 273.748 81.2908 273.748C81.8682 273.748 82.1478 273.451 82.1478 273.072C82.1478 272.621 81.6607 272.431 81.1645 272.251C80.5059 272.016 79.8744 271.701 79.8744 270.979C79.8744 270.275 80.4338 269.734 81.39 269.734C81.9404 269.734 82.4095 269.941 82.7523 270.23L82.4095 270.663C82.1027 270.438 81.787 270.311 81.3991 270.311C80.8397 270.311 80.5961 270.618 80.5961 270.943C80.5961 271.34 80.975 271.502 81.5254 271.692C82.211 271.935 82.8696 272.233 82.8696 273.027C82.8696 273.739 82.3012 274.335 81.2637 274.335ZM85.1016 274.335C84.1634 274.335 83.8476 273.739 83.8476 272.864V270.447H83.1981V269.887L83.8837 269.842L83.9739 268.435H84.5964V269.842H85.7873V270.447H84.5964V272.882C84.5964 273.415 84.7769 273.721 85.273 273.721C85.4354 273.721 85.5978 273.694 85.7782 273.613L85.9316 274.145C85.6971 274.254 85.3993 274.335 85.1016 274.335Z" fill="#747678"></path>
      <circle cx="97.3103" cy="272.227" r="2.77586" fill="#9C99F5"></circle>
      <path d="M107.099 274.227L105.845 268.308H106.63L107.244 271.529C107.361 272.17 107.46 272.801 107.569 273.469H107.605C107.722 272.801 107.857 272.17 108.002 271.529L108.823 268.308H109.571L110.374 271.529C110.519 272.161 110.672 272.801 110.798 273.469H110.834C110.934 272.801 111.042 272.17 111.15 271.529L111.782 268.308H112.512L111.276 274.227H110.338L109.463 270.654C109.355 270.185 109.283 269.779 109.201 269.265H109.165C109.075 269.779 108.985 270.185 108.886 270.654L108.029 274.227H107.099ZM115.175 274.335C114.101 274.335 113.145 273.496 113.145 272.043C113.145 270.573 114.101 269.734 115.175 269.734C116.248 269.734 117.214 270.573 117.214 272.043C117.214 273.496 116.248 274.335 115.175 274.335ZM115.175 273.712C115.933 273.712 116.438 273.045 116.438 272.043C116.438 271.033 115.933 270.356 115.175 270.356C114.426 270.356 113.921 271.033 113.921 272.043C113.921 273.045 114.426 273.712 115.175 273.712ZM118.359 274.227V269.842H118.973L119.036 270.474H119.063C119.478 270.059 119.929 269.734 120.534 269.734C121.463 269.734 121.878 270.329 121.878 271.448V274.227H121.129V271.547C121.129 270.726 120.876 270.383 120.299 270.383C119.857 270.383 119.541 270.609 119.108 271.051V274.227H118.359Z" fill="#747678"></path>
      <circle cx="133.741" cy="272.227" r="2.77586" fill="#D0D7D3"></circle>
      <path d="M145.064 274.335C143.576 274.335 142.538 273.144 142.538 271.24C142.538 269.346 143.576 268.2 145.064 268.2C146.553 268.2 147.599 269.355 147.599 271.24C147.599 273.144 146.553 274.335 145.064 274.335ZM145.064 273.667C146.12 273.667 146.814 272.72 146.814 271.24C146.814 269.77 146.12 268.868 145.064 268.868C144.009 268.868 143.323 269.77 143.323 271.24C143.323 272.72 144.009 273.667 145.064 273.667ZM148.8 276.076V269.842H149.413L149.476 270.347H149.503C149.9 270.013 150.396 269.734 150.902 269.734C152.029 269.734 152.643 270.609 152.643 271.971C152.643 273.46 151.741 274.335 150.739 274.335C150.342 274.335 149.927 274.145 149.53 273.83L149.548 274.596V276.076H148.8ZM150.613 273.703C151.335 273.703 151.867 273.054 151.867 271.971C151.867 271.006 151.533 270.365 150.712 270.365C150.342 270.365 149.972 270.564 149.548 270.961V273.252C149.945 273.586 150.324 273.703 150.613 273.703ZM155.572 274.335C154.399 274.335 153.479 273.487 153.479 272.034C153.479 270.609 154.444 269.734 155.446 269.734C156.564 269.734 157.205 270.528 157.205 271.791C157.205 271.953 157.196 272.088 157.169 272.233H154.219C154.282 273.135 154.832 273.73 155.662 273.73C156.086 273.73 156.456 273.613 156.763 273.406L157.024 273.884C156.646 274.154 156.176 274.335 155.572 274.335ZM154.219 271.655H156.537C156.537 270.789 156.131 270.329 155.464 270.329C154.85 270.329 154.309 270.816 154.219 271.655ZM158.279 274.227V269.842H158.893L158.956 270.474H158.983C159.398 270.059 159.849 269.734 160.453 269.734C161.383 269.734 161.798 270.329 161.798 271.448V274.227H161.049V271.547C161.049 270.726 160.796 270.383 160.219 270.383C159.777 270.383 159.461 270.609 159.028 271.051V274.227H158.279Z" fill="#747678"></path>
    </g>
  </g>
  <g filter="url(#filter1_d_8295_67844)">
    <g clip-path="url(#clip8_8295_67844)">
      <rect x="275" y="107" width="246" height="252" rx="8" fill="white"></rect>
      <g filter="url(#filter2_ddd_8295_67844)">
        <rect x="274.689" y="106.988" width="246.311" height="251.831" rx="2.75979" fill="white"></rect>
      </g>
      <path d="M286.83 126.314C286.83 122.503 289.919 119.414 293.729 119.414C297.54 119.414 300.629 122.503 300.629 126.314C300.629 130.124 297.54 133.213 293.729 133.213C289.919 133.213 286.83 130.124 286.83 126.314ZM293.729 120.424C290.476 120.424 287.839 123.061 287.839 126.314C287.839 129.566 290.476 132.203 293.729 132.203C296.982 132.203 299.619 129.566 299.619 126.314C299.619 123.061 296.982 120.424 293.729 120.424ZM293.23 130.453C293.23 130.739 293.462 130.971 293.748 130.971C294.034 130.971 294.265 130.739 294.265 130.453V129.708C295.25 129.501 296.041 128.779 296.041 127.778C296.041 127.492 295.983 127.226 295.844 126.978C295.709 126.737 295.516 126.546 295.299 126.377C294.897 126.063 294.531 125.947 294.127 125.82C294.068 125.801 294.007 125.782 293.946 125.762C293.831 125.724 293.714 125.695 293.616 125.67L293.563 125.657C293.448 125.627 293.353 125.601 293.262 125.565C293.158 125.525 293.03 125.458 292.918 125.395C292.864 125.364 292.818 125.337 292.786 125.317L292.758 125.3C292.623 125.192 292.555 125.105 292.517 125.031C292.478 124.956 292.453 124.861 292.453 124.712C292.453 124.306 292.893 123.79 293.737 123.757C293.744 123.757 293.751 123.757 293.757 123.757C293.775 123.756 293.793 123.756 293.811 123.756C294.29 123.779 294.583 123.903 294.76 124.02C294.94 124.138 295.032 124.269 295.084 124.352C295.235 124.594 295.554 124.668 295.797 124.517C296.039 124.366 296.113 124.047 295.962 123.804C295.864 123.647 295.676 123.384 295.328 123.155C295.055 122.975 294.701 122.829 294.247 122.76L294.247 122.174C294.247 121.888 294.015 121.656 293.729 121.656C293.444 121.656 293.212 121.888 293.212 122.174L293.212 122.786C292.232 122.997 291.418 123.707 291.418 124.712C291.418 124.988 291.467 125.253 291.597 125.505C291.725 125.754 291.914 125.954 292.14 126.131L292.159 126.145L292.178 126.157L292.179 126.158L292.18 126.159L292.184 126.161L292.198 126.17C292.209 126.177 292.225 126.187 292.245 126.199C292.285 126.223 292.34 126.257 292.406 126.294C292.532 126.366 292.712 126.462 292.888 126.53C293.04 126.589 293.185 126.628 293.307 126.659L293.371 126.676C293.469 126.7 293.547 126.72 293.625 126.746C293.696 126.769 293.761 126.79 293.822 126.809C294.228 126.939 294.415 126.999 294.663 127.193C294.82 127.315 294.898 127.407 294.941 127.483C294.979 127.553 295.006 127.639 295.006 127.778C295.006 128.201 294.582 128.708 293.733 128.733C293.719 128.734 293.675 128.734 293.647 128.734C293.168 128.711 292.876 128.587 292.698 128.47C292.519 128.352 292.426 128.221 292.374 128.138C292.223 127.896 291.904 127.822 291.662 127.973C291.419 128.124 291.345 128.443 291.496 128.686C291.594 128.843 291.782 129.106 292.13 129.335C292.407 129.517 292.767 129.665 293.23 129.733V130.453ZM292.459 125.722L292.178 126.157C292.178 126.157 292.178 126.157 292.459 125.722Z" fill="#21232C"></path>
      <path d="M306.078 130.312V122.19H308.251C310.735 122.19 312.225 123.519 312.225 126.214C312.225 128.922 310.735 130.312 308.326 130.312H306.078ZM307.556 129.12H308.152C309.766 129.12 310.698 128.214 310.698 126.214C310.698 124.227 309.766 123.395 308.152 123.395H307.556V129.12ZM316.323 130.462C314.634 130.462 313.318 129.294 313.318 127.257C313.318 125.27 314.709 124.053 316.137 124.053C317.789 124.053 318.683 125.246 318.683 126.959C318.683 127.257 318.658 127.481 318.608 127.705H314.758C314.907 128.723 315.553 129.319 316.522 129.319C317.043 129.319 317.515 129.17 317.938 128.897L318.434 129.816C317.863 130.238 317.118 130.462 316.323 130.462ZM314.758 126.612H317.391C317.391 125.717 316.969 125.196 316.174 125.196C315.479 125.196 314.882 125.693 314.758 126.612ZM321.366 130.462C320.298 130.462 319.553 129.741 319.553 128.673C319.553 127.332 320.621 126.661 323.13 126.388C323.105 125.767 322.857 125.246 322.037 125.246C321.441 125.246 320.87 125.494 320.323 125.817L319.802 124.848C320.472 124.426 321.342 124.053 322.31 124.053C323.825 124.053 324.595 124.997 324.595 126.699V130.312H323.403L323.279 129.642H323.229C322.683 130.114 322.087 130.462 321.366 130.462ZM321.813 129.294C322.31 129.294 322.683 129.095 323.13 128.673V127.382C321.466 127.58 320.969 127.953 320.969 128.574C320.969 129.095 321.317 129.294 321.813 129.294ZM327.695 130.462C326.665 130.462 326.28 129.791 326.28 128.71V121.545H327.758V128.785C327.758 129.145 327.919 129.269 328.068 129.269C328.143 129.269 328.192 129.269 328.292 129.244L328.465 130.325C328.292 130.412 328.043 130.462 327.695 130.462ZM332.15 132.709V124.202H333.354L333.466 124.848H333.503C334.025 124.413 334.671 124.053 335.341 124.053C336.856 124.053 337.738 125.283 337.738 127.17C337.738 129.257 336.496 130.462 335.143 130.462C334.596 130.462 334.062 130.213 333.578 129.791L333.627 130.809V132.709H332.15ZM334.82 129.244C335.615 129.244 336.235 128.549 336.235 127.183C336.235 125.978 335.838 125.27 334.931 125.27C334.497 125.27 334.087 125.481 333.627 125.941V128.76C334.05 129.12 334.472 129.244 334.82 129.244ZM341.78 130.462C340.091 130.462 338.774 129.294 338.774 127.257C338.774 125.27 340.165 124.053 341.593 124.053C343.245 124.053 344.139 125.246 344.139 126.959C344.139 127.257 344.114 127.481 344.065 127.705H340.215C340.364 128.723 341.01 129.319 341.978 129.319C342.5 129.319 342.972 129.17 343.394 128.897L343.891 129.816C343.32 130.238 342.575 130.462 341.78 130.462ZM340.215 126.612H342.848C342.848 125.717 342.425 125.196 341.631 125.196C340.935 125.196 340.339 125.693 340.215 126.612ZM345.478 130.312V124.202H346.683L346.795 125.295H346.832C347.279 124.5 347.925 124.053 348.571 124.053C348.881 124.053 349.08 124.103 349.266 124.177L348.968 125.432C348.782 125.382 348.633 125.357 348.384 125.357C347.9 125.357 347.316 125.68 346.956 126.612V130.312H345.478ZM350.408 130.312V125.37H349.589V124.277L350.408 124.202V123.606C350.408 122.339 350.992 121.396 352.445 121.396C352.892 121.396 353.314 121.507 353.575 121.607L353.277 122.662C353.054 122.6 352.842 122.563 352.644 122.563C352.135 122.563 351.874 122.886 351.874 123.581V124.202H353.054V125.37H351.874V130.312H350.408ZM356.513 130.462C354.986 130.462 353.595 129.294 353.595 127.27C353.595 125.233 354.986 124.053 356.513 124.053C358.028 124.053 359.419 125.233 359.419 127.27C359.419 129.294 358.028 130.462 356.513 130.462ZM356.513 129.269C357.395 129.269 357.916 128.474 357.916 127.27C357.916 126.053 357.395 125.258 356.513 125.258C355.631 125.258 355.11 126.053 355.11 127.27C355.11 128.474 355.631 129.269 356.513 129.269ZM360.808 130.312V124.202H362.013L362.124 125.295H362.162C362.609 124.5 363.255 124.053 363.9 124.053C364.211 124.053 364.41 124.103 364.596 124.177L364.298 125.432C364.111 125.382 363.962 125.357 363.714 125.357C363.23 125.357 362.646 125.68 362.286 126.612V130.312H360.808ZM365.477 130.312V124.202H366.682L366.794 125.034H366.831C367.353 124.5 367.936 124.053 368.706 124.053C369.6 124.053 370.11 124.463 370.395 125.146C370.979 124.525 371.575 124.053 372.357 124.053C373.649 124.053 374.245 124.947 374.245 126.487V130.312H372.767V126.674C372.767 125.68 372.482 125.32 371.848 125.32C371.476 125.32 371.053 125.556 370.594 126.065V130.312H369.128V126.674C369.128 125.68 368.83 125.32 368.209 125.32C367.837 125.32 367.415 125.556 366.955 126.065V130.312H365.477ZM377.458 130.462C376.39 130.462 375.645 129.741 375.645 128.673C375.645 127.332 376.713 126.661 379.222 126.388C379.197 125.767 378.949 125.246 378.129 125.246C377.533 125.246 376.961 125.494 376.415 125.817L375.893 124.848C376.564 124.426 377.433 124.053 378.402 124.053C379.917 124.053 380.687 124.997 380.687 126.699V130.312H379.495L379.371 129.642H379.321C378.775 130.114 378.179 130.462 377.458 130.462ZM377.905 129.294C378.402 129.294 378.775 129.095 379.222 128.673V127.382C377.558 127.58 377.061 127.953 377.061 128.574C377.061 129.095 377.409 129.294 377.905 129.294ZM382.372 130.312V124.202H383.576L383.688 125.022H383.725C384.272 124.5 384.893 124.053 385.725 124.053C387.041 124.053 387.612 124.947 387.612 126.487V130.312H386.147V126.674C386.147 125.68 385.861 125.32 385.215 125.32C384.681 125.32 384.334 125.568 383.849 126.065V130.312H382.372ZM391.891 130.462C390.227 130.462 388.936 129.294 388.936 127.27C388.936 125.233 390.376 124.053 392.015 124.053C392.785 124.053 393.357 124.339 393.804 124.736L393.096 125.655C392.785 125.382 392.475 125.258 392.09 125.258C391.121 125.258 390.451 126.053 390.451 127.27C390.451 128.474 391.109 129.269 392.04 129.269C392.525 129.269 392.947 129.071 393.295 128.785L393.891 129.716C393.307 130.226 392.587 130.462 391.891 130.462ZM397.362 130.462C395.673 130.462 394.357 129.294 394.357 127.257C394.357 125.27 395.748 124.053 397.176 124.053C398.828 124.053 399.722 125.246 399.722 126.959C399.722 127.257 399.697 127.481 399.647 127.705H395.797C395.946 128.723 396.592 129.319 397.561 129.319C398.082 129.319 398.554 129.17 398.977 128.897L399.473 129.816C398.902 130.238 398.157 130.462 397.362 130.462ZM395.797 126.612H398.43C398.43 125.717 398.008 125.196 397.213 125.196C396.518 125.196 395.922 125.693 395.797 126.612ZM403.547 130.312V124.202H404.752L404.863 125.295H404.901C405.348 124.5 405.994 124.053 406.639 124.053C406.95 124.053 407.148 124.103 407.335 124.177L407.037 125.432C406.85 125.382 406.701 125.357 406.453 125.357C405.969 125.357 405.385 125.68 405.025 126.612V130.312H403.547ZM410.703 130.462C409.014 130.462 407.698 129.294 407.698 127.257C407.698 125.27 409.088 124.053 410.517 124.053C412.168 124.053 413.063 125.246 413.063 126.959C413.063 127.257 413.038 127.481 412.988 127.705H409.138C409.287 128.723 409.933 129.319 410.902 129.319C411.423 129.319 411.895 129.17 412.317 128.897L412.814 129.816C412.243 130.238 411.498 130.462 410.703 130.462ZM409.138 126.612H411.771C411.771 125.717 411.349 125.196 410.554 125.196C409.858 125.196 409.262 125.693 409.138 126.612ZM414.401 132.709V124.202H415.606L415.718 124.848H415.755C416.277 124.413 416.923 124.053 417.593 124.053C419.108 124.053 419.99 125.283 419.99 127.17C419.99 129.257 418.748 130.462 417.394 130.462C416.848 130.462 416.314 130.213 415.83 129.791L415.879 130.809V132.709H414.401ZM417.072 129.244C417.866 129.244 418.487 128.549 418.487 127.183C418.487 125.978 418.09 125.27 417.183 125.27C416.749 125.27 416.339 125.481 415.879 125.941V128.76C416.302 129.12 416.724 129.244 417.072 129.244ZM423.945 130.462C422.417 130.462 421.026 129.294 421.026 127.27C421.026 125.233 422.417 124.053 423.945 124.053C425.46 124.053 426.851 125.233 426.851 127.27C426.851 129.294 425.46 130.462 423.945 130.462ZM423.945 129.269C424.826 129.269 425.348 128.474 425.348 127.27C425.348 126.053 424.826 125.258 423.945 125.258C423.063 125.258 422.541 126.053 422.541 127.27C422.541 128.474 423.063 129.269 423.945 129.269ZM428.24 130.312V124.202H429.444L429.556 125.295H429.593C430.04 124.5 430.686 124.053 431.332 124.053C431.642 124.053 431.841 124.103 432.027 124.177L431.729 125.432C431.543 125.382 431.394 125.357 431.146 125.357C430.661 125.357 430.078 125.68 429.717 126.612V130.312H428.24ZM435.082 130.462C433.654 130.462 433.132 129.567 433.132 128.239V125.37H432.263V124.277L433.207 124.202L433.381 122.302H434.598V124.202H436.15V125.37H434.598V128.239C434.598 128.946 434.883 129.294 435.455 129.294C435.666 129.294 435.877 129.257 436.088 129.17L436.349 130.201C436.026 130.35 435.579 130.462 435.082 130.462Z" fill="#26292C"></path>
      <g filter="url(#filter3_i_8295_67844)">
        <path d="M275 331H521.311V355.838C521.311 357.362 520.075 358.598 518.551 358.598H277.76C276.236 358.598 275 357.362 275 355.838V331Z" fill="white"></path>
      </g>
      <circle cx="289.178" cy="343.852" r="3.44973" fill="#014722"></circle>
      <path d="M296.841 346.332L295.594 340.448H296.374L296.984 343.65C297.101 344.287 297.199 344.915 297.307 345.579H297.343C297.459 344.915 297.594 344.287 297.738 343.65L298.554 340.448H299.298L300.096 343.65C300.24 344.278 300.392 344.915 300.518 345.579H300.554C300.653 344.915 300.76 344.287 300.868 343.65L301.496 340.448H302.222L300.993 346.332H300.061L299.191 342.78C299.083 342.314 299.011 341.91 298.93 341.399H298.895C298.805 341.91 298.715 342.314 298.616 342.78L297.764 346.332H296.841ZM304.869 346.44C303.802 346.44 302.851 345.606 302.851 344.161C302.851 342.699 303.802 341.865 304.869 341.865C305.937 341.865 306.896 342.699 306.896 344.161C306.896 345.606 305.937 346.44 304.869 346.44ZM304.869 345.821C305.623 345.821 306.125 345.157 306.125 344.161C306.125 343.157 305.623 342.484 304.869 342.484C304.125 342.484 303.623 343.157 303.623 344.161C303.623 345.157 304.125 345.821 304.869 345.821ZM308.035 346.332V341.973H308.645L308.708 342.601H308.735C309.148 342.188 309.596 341.865 310.197 341.865C311.121 341.865 311.533 342.457 311.533 343.569V346.332H310.789V343.668C310.789 342.852 310.538 342.511 309.964 342.511C309.524 342.511 309.21 342.735 308.78 343.175V346.332H308.035Z" fill="#21232C"></path>
      <circle cx="322.737" cy="343.852" r="3.44973" fill="#3DBC62"></circle>
      <path d="M331.924 346.44C330.444 346.44 329.413 345.256 329.413 343.363C329.413 341.48 330.444 340.341 331.924 340.341C333.404 340.341 334.445 341.489 334.445 343.363C334.445 345.256 333.404 346.44 331.924 346.44ZM331.924 345.776C332.974 345.776 333.664 344.834 333.664 343.363C333.664 341.901 332.974 341.004 331.924 341.004C330.875 341.004 330.193 341.901 330.193 343.363C330.193 344.834 330.875 345.776 331.924 345.776ZM335.638 348.171V341.973H336.248L336.311 342.475H336.338C336.732 342.143 337.226 341.865 337.728 341.865C338.849 341.865 339.459 342.735 339.459 344.09C339.459 345.57 338.562 346.44 337.566 346.44C337.172 346.44 336.759 346.251 336.365 345.937L336.383 346.7V348.171H335.638ZM337.441 345.812C338.158 345.812 338.688 345.166 338.688 344.09C338.688 343.13 338.356 342.493 337.54 342.493C337.172 342.493 336.804 342.69 336.383 343.085V345.363C336.777 345.695 337.154 345.812 337.441 345.812ZM342.371 346.44C341.205 346.44 340.29 345.597 340.29 344.152C340.29 342.735 341.25 341.865 342.246 341.865C343.358 341.865 343.995 342.655 343.995 343.91C343.995 344.072 343.986 344.206 343.959 344.35H341.026C341.089 345.247 341.636 345.839 342.461 345.839C342.882 345.839 343.25 345.722 343.555 345.516L343.815 345.991C343.439 346.26 342.972 346.44 342.371 346.44ZM341.026 343.776H343.331C343.331 342.915 342.927 342.457 342.264 342.457C341.654 342.457 341.116 342.942 341.026 343.776ZM345.063 346.332V341.973H345.673L345.736 342.601H345.762C346.175 342.188 346.624 341.865 347.224 341.865C348.148 341.865 348.561 342.457 348.561 343.569V346.332H347.816V343.668C347.816 342.852 347.565 342.511 346.991 342.511C346.552 342.511 346.238 342.735 345.807 343.175V346.332H345.063Z" fill="#21232C"></path>
      <circle cx="360.296" cy="343.852" r="3.44973" fill="#A2B3AC"></circle>
      <path d="M367.313 346.332V340.448H368.066V345.695H370.631V346.332H367.313ZM373.193 346.44C372.126 346.44 371.175 345.606 371.175 344.161C371.175 342.699 372.126 341.865 373.193 341.865C374.261 341.865 375.22 342.699 375.22 344.161C375.22 345.606 374.261 346.44 373.193 346.44ZM373.193 345.821C373.947 345.821 374.449 345.157 374.449 344.161C374.449 343.157 373.947 342.484 373.193 342.484C372.449 342.484 371.946 343.157 371.946 344.161C371.946 345.157 372.449 345.821 373.193 345.821ZM377.498 346.44C376.862 346.44 376.279 346.206 375.875 345.812L376.216 345.381C376.592 345.695 376.987 345.857 377.525 345.857C378.099 345.857 378.377 345.561 378.377 345.184C378.377 344.735 377.893 344.547 377.4 344.368C376.745 344.135 376.117 343.821 376.117 343.103C376.117 342.403 376.673 341.865 377.624 341.865C378.171 341.865 378.637 342.072 378.978 342.359L378.637 342.789C378.332 342.565 378.019 342.439 377.633 342.439C377.077 342.439 376.835 342.744 376.835 343.067C376.835 343.462 377.211 343.623 377.758 343.812C378.44 344.054 379.095 344.35 379.095 345.139C379.095 345.848 378.53 346.44 377.498 346.44ZM381.314 346.44C380.381 346.44 380.067 345.848 380.067 344.978V342.574H379.421V342.018L380.103 341.973L380.193 340.574H380.812V341.973H381.996V342.574H380.812V344.996C380.812 345.525 380.991 345.83 381.484 345.83C381.646 345.83 381.807 345.803 381.987 345.722L382.139 346.251C381.906 346.359 381.61 346.44 381.314 346.44Z" fill="#21232C"></path>
      <rect x="304" y="149" width="188.311" height="176" rx="3.28617" fill="white"></rect>
      <mask id="path-67-inside-1_8295_67844" fill="white">
        <path d="M462.026 220.215C467.547 235.586 467.339 252.433 461.441 267.663C455.543 282.893 444.351 295.486 429.918 303.13C415.484 310.773 398.778 312.956 382.866 309.276C366.953 305.597 352.901 296.302 343.289 283.098L398.155 243.155L462.026 220.215Z"></path>
      </mask>
      <path d="M462.026 220.215C467.547 235.586 467.339 252.433 461.441 267.663C455.543 282.893 444.351 295.486 429.918 303.13C415.484 310.773 398.778 312.956 382.866 309.276C366.953 305.597 352.901 296.302 343.289 283.098L398.155 243.155L462.026 220.215Z" fill="#85DA95" stroke="white" stroke-width="0.821543" mask="url(#path-67-inside-1_8295_67844)"></path>
      <mask id="path-68-inside-2_8295_67844" fill="white">
        <path d="M343.29 283.1C332.801 268.693 328.399 250.738 331.036 233.112L398.155 243.155L343.29 283.1Z"></path>
      </mask>
      <path d="M343.29 283.1C332.801 268.693 328.399 250.738 331.036 233.112L398.155 243.155L343.29 283.1Z" fill="#A2B3AC" stroke="white" stroke-width="0.821543" mask="url(#path-68-inside-2_8295_67844)"></path>
      <mask id="path-69-inside-3_8295_67844" fill="white">
        <path d="M331.044 233.059C333.292 218.12 340.459 204.358 351.411 193.953C362.364 183.548 376.474 177.095 391.509 175.615C406.543 174.136 421.641 177.715 434.411 185.785C447.181 193.856 456.894 205.956 462.01 220.17L398.155 243.155L331.044 233.059Z"></path>
      </mask>
      <path d="M331.044 233.059C333.292 218.12 340.459 204.358 351.411 193.953C362.364 183.548 376.474 177.095 391.509 175.615C406.543 174.136 421.641 177.715 434.411 185.785C447.181 193.856 456.894 205.956 462.01 220.17L398.155 243.155L331.044 233.059Z" fill="#014722" stroke="white" stroke-width="0.821543" mask="url(#path-69-inside-3_8295_67844)"></path>
      <path d="M432.004 176.418V175.48L434.493 173.04C434.732 172.799 434.93 172.586 435.089 172.399C435.247 172.212 435.366 172.031 435.446 171.856C435.525 171.681 435.565 171.495 435.565 171.296C435.565 171.07 435.513 170.876 435.411 170.715C435.308 170.552 435.167 170.426 434.987 170.337C434.807 170.248 434.603 170.204 434.374 170.204C434.139 170.204 433.932 170.253 433.755 170.351C433.577 170.447 433.44 170.583 433.342 170.761C433.246 170.938 433.198 171.149 433.198 171.394H431.962C431.962 170.939 432.066 170.543 432.274 170.207C432.482 169.871 432.768 169.611 433.132 169.427C433.498 169.242 433.918 169.15 434.392 169.15C434.873 169.15 435.295 169.24 435.659 169.42C436.023 169.599 436.306 169.846 436.507 170.158C436.71 170.471 436.811 170.828 436.811 171.23C436.811 171.498 436.76 171.762 436.657 172.021C436.554 172.28 436.373 172.567 436.114 172.882C435.858 173.197 435.497 173.579 435.033 174.027L433.797 175.284V175.333H436.92V176.418H432.004ZM441.044 169.248V176.418H439.745V170.512H439.703L438.026 171.583V170.393L439.808 169.248H441.044Z" fill="#21232C"></path>
      <path d="M453.934 306.996V306.058L456.423 303.618C456.661 303.377 456.86 303.164 457.018 302.977C457.177 302.79 457.296 302.609 457.375 302.434C457.455 302.259 457.494 302.073 457.494 301.874C457.494 301.648 457.443 301.454 457.34 301.293C457.238 301.13 457.097 301.004 456.917 300.915C456.737 300.826 456.533 300.782 456.304 300.782C456.068 300.782 455.862 300.831 455.684 300.929C455.507 301.025 455.369 301.161 455.271 301.339C455.176 301.516 455.128 301.727 455.128 301.972H453.892C453.892 301.517 453.996 301.122 454.204 300.786C454.411 300.449 454.697 300.189 455.061 300.005C455.428 299.82 455.848 299.728 456.322 299.728C456.802 299.728 457.225 299.818 457.589 299.998C457.953 300.178 458.235 300.424 458.436 300.736C458.639 301.049 458.741 301.406 458.741 301.808C458.741 302.076 458.689 302.34 458.587 302.599C458.484 302.858 458.303 303.145 458.044 303.46C457.787 303.775 457.427 304.157 456.962 304.605L455.726 305.862V305.911H458.849V306.996H453.934ZM462.63 307.094C462.126 307.094 461.678 307.008 461.286 306.835C460.896 306.662 460.588 306.422 460.362 306.114C460.135 305.806 460.015 305.45 460.001 305.046H461.317C461.329 305.24 461.393 305.409 461.51 305.554C461.627 305.696 461.782 305.807 461.976 305.886C462.169 305.966 462.386 306.005 462.627 306.005C462.883 306.005 463.111 305.961 463.309 305.872C463.508 305.781 463.663 305.655 463.775 305.494C463.887 305.333 463.942 305.148 463.94 304.938C463.942 304.721 463.886 304.529 463.772 304.363C463.657 304.198 463.491 304.068 463.274 303.975C463.06 303.881 462.801 303.835 462.497 303.835H461.864V302.834H462.497C462.747 302.834 462.965 302.79 463.152 302.704C463.341 302.618 463.489 302.496 463.597 302.34C463.704 302.181 463.756 301.998 463.754 301.79C463.756 301.587 463.711 301.411 463.618 301.262C463.526 301.11 463.397 300.992 463.229 300.908C463.063 300.824 462.868 300.782 462.644 300.782C462.425 300.782 462.222 300.822 462.035 300.901C461.848 300.98 461.698 301.094 461.583 301.241C461.469 301.385 461.408 301.558 461.401 301.759H460.152C460.161 301.357 460.276 301.005 460.498 300.701C460.722 300.396 461.021 300.158 461.394 299.987C461.768 299.815 462.187 299.728 462.651 299.728C463.13 299.728 463.545 299.818 463.898 299.998C464.252 300.175 464.527 300.414 464.72 300.715C464.914 301.017 465.011 301.349 465.011 301.713C465.013 302.117 464.894 302.455 464.654 302.729C464.416 303.002 464.103 303.18 463.716 303.264V303.32C464.22 303.39 464.606 303.577 464.874 303.88C465.145 304.181 465.279 304.556 465.277 305.004C465.277 305.406 465.163 305.765 464.934 306.082C464.707 306.397 464.395 306.645 463.996 306.825C463.599 307.004 463.144 307.094 462.63 307.094Z" fill="#21232C"></path>
      <path d="M420.758 178.993L423.587 174.455L428.872 174.455" stroke="#21232C" stroke-opacity="0.12" stroke-width="0.821543"></path>
      <path d="M452.312 302.41H446.55L442.869 292.822" stroke="#21232C" stroke-opacity="0.12" stroke-width="0.821543"></path>
      <path d="M317.732 261.734H324.448L332.603 258.437" stroke="#21232C" stroke-opacity="0.12" stroke-width="0.821543"></path>
      <path d="M310.429 265.875L313.478 259.839V259.79H309.939V258.705H314.823V259.815L311.777 265.875H310.429Z" fill="#21232C"></path>
      <path d="M287.353 151.15V146.946H285.926V146.187H289.683V146.946H288.256V151.15H287.353ZM290.647 151.15V146.187H291.55V148.175H293.523V146.187H294.426V151.15H293.523V148.965H291.55V151.15H290.647ZM295.825 151.15V146.187H296.728V151.15H295.825ZM299.569 151.241C298.886 151.241 298.248 150.991 297.778 150.513L298.264 149.921C298.62 150.262 299.114 150.46 299.592 150.46C300.138 150.46 300.442 150.209 300.442 149.83C300.442 149.435 300.123 149.306 299.675 149.116L299 148.82C298.507 148.616 297.998 148.228 297.998 147.507C297.998 146.711 298.696 146.096 299.668 146.096C300.267 146.096 300.821 146.339 301.208 146.711L300.723 147.303C300.411 147.037 300.047 146.885 299.668 146.885C299.205 146.885 298.909 147.098 298.909 147.454C298.909 147.834 299.281 147.97 299.69 148.145L300.358 148.418C300.95 148.669 301.36 149.041 301.36 149.762C301.36 150.566 300.692 151.241 299.569 151.241ZM304.05 151.15V146.187H305.113L305.963 148.616C306.069 148.934 306.16 149.223 306.251 149.587H306.282C306.373 149.223 306.449 148.934 306.555 148.616L307.405 146.187H308.467V151.15H307.632V148.889C307.632 148.418 307.708 147.735 307.769 147.28H307.739L307.344 148.479L306.54 150.695H305.948L305.158 148.479L304.764 147.28H304.733C304.794 147.735 304.87 148.418 304.87 148.889V151.15H304.05ZM311.794 151.241C310.496 151.241 309.6 150.255 309.6 148.646C309.6 147.045 310.496 146.096 311.794 146.096C313.091 146.096 313.987 147.045 313.987 148.646C313.987 150.255 313.091 151.241 311.794 151.241ZM311.794 150.46C312.56 150.46 313.061 149.754 313.061 148.646C313.061 147.545 312.56 146.885 311.794 146.885C311.019 146.885 310.526 147.545 310.526 148.646C310.526 149.754 311.019 150.46 311.794 150.46ZM315.118 151.15V146.187H316.081L317.569 148.919C317.751 149.253 317.918 149.648 318.078 150.042H318.108C318.055 149.511 317.994 148.904 317.994 148.357V146.187H318.836V151.15H317.873L316.385 148.418C316.203 148.084 316.036 147.69 315.877 147.295H315.846C315.899 147.811 315.96 148.426 315.96 148.98V151.15H315.118ZM321.23 151.15V146.946H319.804V146.187H323.56V146.946H322.134V151.15H321.23ZM324.525 151.15V146.187H325.428V148.175H327.401V146.187H328.304V151.15H327.401V148.965H325.428V151.15H324.525Z" fill="#747678"></path>
      <rect width="645.79" height="0.344973" transform="translate(274.689 163.16)" fill="#E4E6E9"></rect>
    </g>
  </g>
  <path fill-rule="evenodd" clip-rule="evenodd" d="M464.464 361.251L464.639 361.484L464.639 354.792C464.639 353.312 465.804 352.112 467.242 352.112C468.679 352.112 469.845 353.312 469.845 354.792V353.005C469.845 351.526 471.01 350.326 472.447 350.326C473.885 350.326 475.05 351.526 475.05 353.005L474.982 357.05L475.05 354.792C475.05 353.312 476.215 352.112 477.653 352.112C479.09 352.112 480.255 353.312 480.255 354.792V358.364C480.255 356.884 481.42 355.685 482.858 355.685C484.295 355.685 485.461 356.884 485.461 358.364V362.264C485.461 365.548 485.025 368.818 484.166 371.988C483.402 374.807 480.843 376.764 477.923 376.764L476.042 376.764L471.387 376.777C467.563 376.749 464.145 374.385 462.769 370.817L459.179 361.511C458.796 360.081 459.611 358.621 461 358.249" fill="white"></path>
  <path d="M474.963 358.184L474.949 359.074L475.05 353.005C475.05 351.526 473.885 350.326 472.447 350.326C471.01 350.326 469.845 351.526 469.845 353.005V357.805L469.845 354.792C469.845 353.312 468.679 352.112 467.242 352.112C465.804 352.112 464.639 353.312 464.639 354.792V365.831M464.464 361.251L464.207 360.163C463.824 358.734 462.388 357.877 461 358.249C459.611 358.621 458.796 360.081 459.179 361.511L462.769 370.817C464.145 374.385 467.563 376.749 471.387 376.777L476.042 376.764L477.923 376.764C480.843 376.764 483.402 374.807 484.166 371.988C485.025 368.818 485.461 365.548 485.461 362.264V358.364C485.461 356.884 484.295 355.685 482.858 355.685C481.42 355.685 480.255 356.884 480.255 358.364V359.618V354.792C480.255 353.312 479.09 352.112 477.653 352.112C476.215 352.112 475.05 353.312 475.05 354.792L474.949 358.181" stroke="#192435" stroke-width="2.25" stroke-linecap="round" stroke-linejoin="round"></path>
  <defs>
    <filter id="filter0_d_8295_67844" x="38" y="23" width="341.726" height="273.082" filterUnits="userSpaceOnUse" color-interpolation-filters="sRGB">
      <feFlood flood-opacity="0" result="BackgroundImageFix"></feFlood>
      <feColorMatrix in="SourceAlpha" type="matrix" values="0 0 0 0 0 0 0 0 0 0 0 0 0 0 0 0 0 0 127 0" result="hardAlpha"></feColorMatrix>
      <feOffset></feOffset>
      <feGaussianBlur stdDeviation="5"></feGaussianBlur>
      <feComposite in2="hardAlpha" operator="out"></feComposite>
      <feColorMatrix type="matrix" values="0 0 0 0 0 0 0 0 0 0 0 0 0 0 0 0 0 0 0.25 0"></feColorMatrix>
      <feBlend mode="normal" in2="BackgroundImageFix" result="effect1_dropShadow_8295_67844"></feBlend>
      <feBlend mode="normal" in="SourceGraphic" in2="effect1_dropShadow_8295_67844" result="shape"></feBlend>
    </filter>
    <filter id="filter1_d_8295_67844" x="265" y="97" width="266" height="272" filterUnits="userSpaceOnUse" color-interpolation-filters="sRGB">
      <feFlood flood-opacity="0" result="BackgroundImageFix"></feFlood>
      <feColorMatrix in="SourceAlpha" type="matrix" values="0 0 0 0 0 0 0 0 0 0 0 0 0 0 0 0 0 0 127 0" result="hardAlpha"></feColorMatrix>
      <feOffset></feOffset>
      <feGaussianBlur stdDeviation="5"></feGaussianBlur>
      <feComposite in2="hardAlpha" operator="out"></feComposite>
      <feColorMatrix type="matrix" values="0 0 0 0 0 0 0 0 0 0 0 0 0 0 0 0 0 0 0.25 0"></feColorMatrix>
      <feBlend mode="normal" in2="BackgroundImageFix" result="effect1_dropShadow_8295_67844"></feBlend>
      <feBlend mode="normal" in="SourceGraphic" in2="effect1_dropShadow_8295_67844" result="shape"></feBlend>
    </filter>
    <filter id="filter2_ddd_8295_67844" x="272.62" y="105.608" width="250.451" height="255.97" filterUnits="userSpaceOnUse" color-interpolation-filters="sRGB">
      <feFlood flood-opacity="0" result="BackgroundImageFix"></feFlood>
      <feColorMatrix in="SourceAlpha" type="matrix" values="0 0 0 0 0 0 0 0 0 0 0 0 0 0 0 0 0 0 127 0" result="hardAlpha"></feColorMatrix>
      <feOffset dy="0.689947"></feOffset>
      <feGaussianBlur stdDeviation="1.03492"></feGaussianBlur>
      <feColorMatrix type="matrix" values="0 0 0 0 0 0 0 0 0 0 0 0 0 0 0 0 0 0 0.07 0"></feColorMatrix>
      <feBlend mode="normal" in2="BackgroundImageFix" result="effect1_dropShadow_8295_67844"></feBlend>
      <feColorMatrix in="SourceAlpha" type="matrix" values="0 0 0 0 0 0 0 0 0 0 0 0 0 0 0 0 0 0 127 0" result="hardAlpha"></feColorMatrix>
      <feOffset dy="0.689947"></feOffset>
      <feGaussianBlur stdDeviation="0.689947"></feGaussianBlur>
      <feColorMatrix type="matrix" values="0 0 0 0 0 0 0 0 0 0 0 0 0 0 0 0 0 0 0.06 0"></feColorMatrix>
      <feBlend mode="normal" in2="effect1_dropShadow_8295_67844" result="effect2_dropShadow_8295_67844"></feBlend>
      <feColorMatrix in="SourceAlpha" type="matrix" values="0 0 0 0 0 0 0 0 0 0 0 0 0 0 0 0 0 0 127 0" result="hardAlpha"></feColorMatrix>
      <feOffset></feOffset>
      <feGaussianBlur stdDeviation="0.344973"></feGaussianBlur>
      <feColorMatrix type="matrix" values="0 0 0 0 0 0 0 0 0 0 0 0 0 0 0 0 0 0 0.05 0"></feColorMatrix>
      <feBlend mode="normal" in2="effect2_dropShadow_8295_67844" result="effect3_dropShadow_8295_67844"></feBlend>
      <feBlend mode="normal" in="SourceGraphic" in2="effect3_dropShadow_8295_67844" result="shape"></feBlend>
    </filter>
    <filter id="filter3_i_8295_67844" x="275" y="331" width="246.311" height="27.5977" filterUnits="userSpaceOnUse" color-interpolation-filters="sRGB">
      <feFlood flood-opacity="0" result="BackgroundImageFix"></feFlood>
      <feBlend mode="normal" in="SourceGraphic" in2="BackgroundImageFix" result="shape"></feBlend>
      <feColorMatrix in="SourceAlpha" type="matrix" values="0 0 0 0 0 0 0 0 0 0 0 0 0 0 0 0 0 0 127 0" result="hardAlpha"></feColorMatrix>
      <feOffset dy="0.689947"></feOffset>
      <feComposite in2="hardAlpha" operator="arithmetic" k2="-1" k3="1"></feComposite>
      <feColorMatrix type="matrix" values="0 0 0 0 0.898039 0 0 0 0 0.898039 0 0 0 0 0.898039 0 0 0 1 0"></feColorMatrix>
      <feBlend mode="normal" in2="shape" result="effect1_innerShadow_8295_67844"></feBlend>
    </filter>
    <clipPath id="clip0_8295_67844">
      <rect x="48" y="33" width="321.726" height="253.082" rx="8" fill="white"></rect>
    </clipPath>
    <clipPath id="clip1_8295_67844">
      <rect width="322" height="0.693965" fill="white" transform="translate(48 90.6543)"></rect>
    </clipPath>
    <clipPath id="clip2_8295_67844">
      <rect width="259.059" height="0.693965" fill="white" transform="translate(94.0922 124.76)"></rect>
    </clipPath>
    <clipPath id="clip3_8295_67844">
      <rect width="259.059" height="0.693965" fill="white" transform="translate(94.0922 150.639)"></rect>
    </clipPath>
    <clipPath id="clip4_8295_67844">
      <rect width="259.059" height="0.693965" fill="white" transform="translate(94.0922 176.518)"></rect>
    </clipPath>
    <clipPath id="clip5_8295_67844">
      <rect width="259.059" height="0.693965" fill="white" transform="translate(94.0922 202.398)"></rect>
    </clipPath>
    <clipPath id="clip6_8295_67844">
      <rect width="259.059" height="0.693965" fill="white" transform="translate(94.0922 228.277)"></rect>
    </clipPath>
    <clipPath id="clip7_8295_67844">
      <rect width="322" height="0.693965" fill="white" transform="translate(48 254.43)"></rect>
    </clipPath>
    <clipPath id="clip8_8295_67844">
      <rect x="275" y="107" width="246" height="252" rx="8" fill="white"></rect>
    </clipPath>
  </defs>
</svg>
